<?xml version="1.0" encoding="utf-8"?>
<!-- Generator: Adobe Illustrator 16.0.0, SVG Export Plug-In . SVG Version: 6.00 Build 0)  -->
<!DOCTYPE svg PUBLIC "-//W3C//DTD SVG 1.1//EN" "http://www.w3.org/Graphics/SVG/1.1/DTD/svg11.dtd">
<svg version="1.1" id="Layer_1" xmlns="http://www.w3.org/2000/svg" xmlns:xlink="http://www.w3.org/1999/xlink" x="0px" y="0px"
viewBox="0 0 613 475.062" enable-background="new 0 0 613 475.062" xml:space="preserve">
<line fill="none" stroke="#FFFFFF" stroke-width="2" stroke-miterlimit="10" x1="56.5" y1="113.683" x2="116.5" y2="113.683"/>
<line fill="none" stroke="#FFFFFF" stroke-width="2" stroke-miterlimit="10" x1="37.5" y1="113.683" x2="50.5" y2="113.683"/>
<line fill="none" stroke="#FFFFFF" stroke-width="2" stroke-miterlimit="10" x1="125.5" y1="81.683" x2="178.499" y2="81.683"/>
<line fill="none" stroke="#FFFFFF" stroke-width="2" stroke-miterlimit="10" x1="114.5" y1="81.683" x2="119.5" y2="81.683"/>
<line fill="none" stroke="#FFFFFF" stroke-width="2" stroke-miterlimit="10" x1="437.5" y1="101.683" x2="498.5" y2="101.683"/>
<line fill="none" stroke="#FFFFFF" stroke-width="2" stroke-miterlimit="10" x1="504.5" y1="101.683" x2="516.5" y2="101.683"/>
<line fill="none" stroke="#FFDA68" stroke-width="2" stroke-miterlimit="10" x1="511" y1="168.683" x2="550" y2="168.683"/>
<line fill="none" stroke="#FFDA68" stroke-width="2" stroke-miterlimit="10" x1="556" y1="168.683" x2="572" y2="168.683"/>
<line fill="none" stroke="#FFFFFF" stroke-width="2" stroke-miterlimit="10" x1="538" y1="235.683" x2="567" y2="235.683"/>
<line fill="none" stroke="#FFFFFF" stroke-width="2" stroke-miterlimit="10" x1="515" y1="261.683" x2="551" y2="261.683"/>
<line fill="none" stroke="#FFFFFF" stroke-width="2" stroke-miterlimit="10" x1="529" y1="272.683" x2="541" y2="272.683"/>
<line fill="none" stroke="#FFFFFF" stroke-width="2" stroke-miterlimit="10" x1="573" y1="235.683" x2="584" y2="235.683"/>
<line fill="none" stroke="#FFFFFF" stroke-width="2" stroke-miterlimit="10" x1="514" y1="354.683" x2="538" y2="354.683"/>
<line fill="none" stroke="#FFFFFF" stroke-width="2" stroke-miterlimit="10" x1="544" y1="354.683" x2="575" y2="354.683"/>
<line fill="none" stroke="#FFDA68" stroke-width="2" stroke-miterlimit="10" x1="551" y1="294.683" x2="590" y2="294.683"/>
<g>
	<defs>
		<rect id="SVGID_1_" width="613" height="475.062"/>
	</defs>
	<clipPath id="SVGID_2_">
		<use xlink:href="#SVGID_1_"  overflow="visible"/>
	</clipPath>
	
		<line clip-path="url(#SVGID_2_)" fill="none" stroke="#FFDA68" stroke-width="2" stroke-miterlimit="10" x1="596" y1="294.683" x2="613" y2="294.683"/>
</g>
<line fill="none" stroke="#FB667F" stroke-width="2" stroke-miterlimit="10" x1="511" y1="176.683" x2="530" y2="176.683"/>
<line fill="none" stroke="#FFDA68" stroke-width="2" stroke-miterlimit="10" x1="29" y1="186.683" x2="63" y2="186.683"/>
<line fill="none" stroke="#FFDA68" stroke-width="2" stroke-miterlimit="10" x1="67" y1="186.683" x2="79" y2="186.683"/>
<line fill="none" stroke="#FFFFFF" stroke-width="2" stroke-miterlimit="10" x1="64" y1="257.683" x2="70" y2="257.683"/>
<line fill="none" stroke="#FFFFFF" stroke-width="2" stroke-miterlimit="10" x1="77" y1="257.683" x2="101" y2="257.683"/>
<g>
	<defs>
		<rect id="SVGID_3_" width="613" height="475.062"/>
	</defs>
	<clipPath id="SVGID_4_">
		<use xlink:href="#SVGID_3_"  overflow="visible"/>
	</clipPath>
	
		<line clip-path="url(#SVGID_4_)" fill="none" stroke="#FFDA68" stroke-width="2" stroke-miterlimit="10" x1="0" y1="326.683" x2="6" y2="326.683"/>
</g>
<line fill="none" stroke="#FFDA68" stroke-width="2" stroke-miterlimit="10" x1="13" y1="326.683" x2="64" y2="326.683"/>
<line fill="none" stroke="#FFFFFF" stroke-width="2" stroke-miterlimit="10" x1="60" y1="370.683" x2="91" y2="370.683"/>
<line fill="none" stroke="#FFFFFF" stroke-width="2" stroke-miterlimit="10" x1="45" y1="370.683" x2="54" y2="370.683"/>
<line fill="none" stroke="#FB667F" stroke-width="2" stroke-miterlimit="10" x1="40" y1="198.683" x2="52" y2="198.683"/>
<line fill="none" stroke="#FFFFFF" stroke-width="2" stroke-miterlimit="10" x1="347.168" y1="13" x2="347.168" y2="23"/>
<line fill="none" stroke="#FFFFFF" stroke-width="2" stroke-miterlimit="10" x1="347.168" y1="29" x2="347.168" y2="39"/>
<line fill="none" stroke="#FFFFFF" stroke-width="2" stroke-miterlimit="10" x1="360.168" y1="26" x2="350.168" y2="26"/>
<line fill="none" stroke="#FFFFFF" stroke-width="2" stroke-miterlimit="10" x1="344.168" y1="26" x2="334.168" y2="26"/>
<g>
	<defs>
		<rect id="SVGID_5_" width="613" height="475.062"/>
	</defs>
	<clipPath id="SVGID_6_">
		<use xlink:href="#SVGID_5_"  overflow="visible"/>
	</clipPath>
	
		<line clip-path="url(#SVGID_6_)" fill="none" stroke="#FFFFFF" stroke-width="2" stroke-miterlimit="10" x1="268.167" y1="0" x2="268.167" y2="5"/>
</g>
<line fill="none" stroke="#FFFFFF" stroke-width="2" stroke-miterlimit="10" x1="268.167" y1="9" x2="268.167" y2="14"/>
<line fill="none" stroke="#FFFFFF" stroke-width="2" stroke-miterlimit="10" x1="275.167" y1="7" x2="270.167" y2="7"/>
<line fill="none" stroke="#FFFFFF" stroke-width="2" stroke-miterlimit="10" x1="266.167" y1="7" x2="261.167" y2="7"/>
<line fill="none" stroke="#FFFFFF" stroke-width="2" stroke-miterlimit="10" x1="258.167" y1="51" x2="258.167" y2="54"/>
<line fill="none" stroke="#FFFFFF" stroke-width="2" stroke-miterlimit="10" x1="258.167" y1="56" x2="258.167" y2="59"/>
<line fill="none" stroke="#FFFFFF" stroke-width="2" stroke-miterlimit="10" x1="262.167" y1="55" x2="259.167" y2="55"/>
<line fill="none" stroke="#FFFFFF" stroke-width="2" stroke-miterlimit="10" x1="257.167" y1="55" x2="254.167" y2="55"/>
<line fill="none" stroke="#FFDA68" stroke-width="2" stroke-miterlimit="10" x1="391.418" y1="40.75" x2="391.418" y2="51.75"/>
<line fill="none" stroke="#FFDA68" stroke-width="2" stroke-miterlimit="10" x1="396.918" y1="46.25" x2="385.918" y2="46.25"/>
<line fill="none" stroke="#FB667F" stroke-width="2" stroke-miterlimit="10" x1="220.862" y1="60.306" x2="216.081" y2="65.087"/>
<line fill="none" stroke="#FB667F" stroke-width="2" stroke-miterlimit="10" x1="212.255" y1="68.913" x2="207.475" y2="73.692"/>
<line fill="none" stroke="#FB667F" stroke-width="2" stroke-miterlimit="10" x1="220.862" y1="73.693" x2="216.081" y2="68.913"/>
<line fill="none" stroke="#FB667F" stroke-width="2" stroke-miterlimit="10" x1="212.255" y1="65.087" x2="207.475" y2="60.306"/>
<g>
	<defs>
		<rect id="SVGID_7_" width="613" height="475.062"/>
	</defs>
	<clipPath id="SVGID_8_">
		<use xlink:href="#SVGID_7_"  overflow="visible"/>
	</clipPath>
	
		<circle clip-path="url(#SVGID_8_)" fill="none" stroke="#FFFFFF" stroke-width="2" stroke-miterlimit="10" cx="425.466" cy="79.129" r="1.883"/>
	
		<circle clip-path="url(#SVGID_8_)" fill="none" stroke="#FFFFFF" stroke-width="2" stroke-miterlimit="10" cx="369.467" cy="67.129" r="1.5"/>
	<polygon clip-path="url(#SVGID_8_)" fill="#1E222F" points="375.676,92.895 374.613,92.895 306.887,53.909 239.158,92.895 
		238.097,92.895 238.097,268.867 306.887,308.464 375.676,268.867 	"/>
	<polygon clip-path="url(#SVGID_8_)" fill="none" stroke="#FFDA68" stroke-width="2" stroke-miterlimit="10" points="
		306.887,131.881 239.158,92.895 306.887,53.908 374.614,92.895 	"/>
	
		<ellipse transform="matrix(0.9989 -0.0461 0.0461 0.9989 -3.8373 12.983)" clip-path="url(#SVGID_8_)" fill="none" stroke="#FFDA68" stroke-width="2" stroke-miterlimit="10" cx="279.815" cy="89.763" rx="10.983" ry="6.369"/>
	
		<ellipse transform="matrix(0.9989 -0.0461 0.0461 0.9989 -3.1541 14.1056)" clip-path="url(#SVGID_8_)" fill="none" stroke="#FFDA68" stroke-width="2" stroke-miterlimit="10" cx="304.23" cy="75.433" rx="10.983" ry="6.369"/>
	<polyline clip-path="url(#SVGID_8_)" fill="none" stroke="#FFDA68" stroke-width="2" stroke-miterlimit="10" points="
		375.676,92.895 375.676,268.867 306.887,308.464 238.097,268.867 238.097,92.895 	"/>
	
		<line clip-path="url(#SVGID_8_)" fill="none" stroke="#FFDA68" stroke-width="2" stroke-miterlimit="10" x1="306.887" y1="131.881" x2="306.887" y2="308.464"/>
	<polygon clip-path="url(#SVGID_8_)" fill="none" stroke="#FFFFFF" stroke-miterlimit="10" points="370.368,113.996 
		312.193,147.482 312.193,160.752 370.368,127.266 	"/>
	
		<line clip-path="url(#SVGID_8_)" fill="none" stroke="#FFDA68" stroke-width="2" stroke-miterlimit="10" x1="375.903" y1="98.645" x2="306.783" y2="138.433"/>
	
		<line clip-path="url(#SVGID_8_)" fill="none" stroke="#FFDA68" stroke-width="2" stroke-miterlimit="10" x1="375.903" y1="104.483" x2="306.783" y2="144.271"/>
	
		<line clip-path="url(#SVGID_8_)" fill="none" stroke="#FFFFFF" stroke-miterlimit="10" x1="324.293" y1="140.807" x2="324.293" y2="154.13"/>
	<polygon clip-path="url(#SVGID_8_)" fill="none" stroke="#FFDA68" stroke-miterlimit="10" points="356.984,130.723 
		367.183,124.852 367.183,120.606 356.984,126.477 	"/>
	<polygon clip-path="url(#SVGID_8_)" fill="none" stroke="#FFFFFF" stroke-miterlimit="10" points="343.185,138.685 
		353.384,132.813 353.384,128.567 343.185,134.439 	"/>
	<polygon clip-path="url(#SVGID_8_)" fill="none" stroke="#FFDA68" stroke-miterlimit="10" points="329.385,146.646 
		339.584,140.775 339.584,136.529 329.385,142.4 	"/>
	<polygon clip-path="url(#SVGID_8_)" fill="none" stroke="#FFDA68" stroke-miterlimit="10" points="370.368,135.226 
		312.193,168.713 312.193,181.982 370.368,148.495 	"/>
	
		<line clip-path="url(#SVGID_8_)" fill="none" stroke="#FFDA68" stroke-miterlimit="10" x1="324.293" y1="162.038" x2="324.293" y2="175.36"/>
	<polygon clip-path="url(#SVGID_8_)" fill="none" stroke="#FFDA68" stroke-miterlimit="10" points="356.984,151.954 
		367.183,146.083 367.183,141.836 356.984,147.708 	"/>
	<polygon clip-path="url(#SVGID_8_)" fill="none" stroke="#FF687D" stroke-miterlimit="10" points="343.185,159.916 
		353.384,154.043 353.384,149.797 343.185,155.669 	"/>
	<polygon clip-path="url(#SVGID_8_)" fill="none" stroke="#FFDA68" stroke-miterlimit="10" points="329.385,167.876 
		339.584,162.005 339.584,157.759 329.385,163.63 	"/>
	<polygon clip-path="url(#SVGID_8_)" fill="none" stroke="#FFFFFF" stroke-miterlimit="10" points="370.368,156.457 
		312.193,189.943 312.193,203.212 370.368,169.726 	"/>
	
		<line clip-path="url(#SVGID_8_)" fill="none" stroke="#FFFFFF" stroke-miterlimit="10" x1="324.293" y1="183.268" x2="324.293" y2="196.591"/>
	<polygon clip-path="url(#SVGID_8_)" fill="none" stroke="#FFFFFF" stroke-miterlimit="10" points="356.984,173.184 
		367.183,167.312 367.183,163.067 356.984,168.938 	"/>
	<polygon clip-path="url(#SVGID_8_)" fill="none" stroke="#FFDA68" stroke-miterlimit="10" points="343.185,181.145 
		353.384,175.274 353.384,171.028 343.185,176.899 	"/>
	<polygon clip-path="url(#SVGID_8_)" fill="none" stroke="#FFFFFF" stroke-miterlimit="10" points="329.385,189.107 
		339.584,183.235 339.584,178.989 329.385,184.861 	"/>
	<polygon clip-path="url(#SVGID_8_)" fill="none" stroke="#FFDA68" stroke-miterlimit="10" points="370.368,177.687 
		312.193,211.174 312.193,224.443 370.368,190.956 	"/>
	
		<line clip-path="url(#SVGID_8_)" fill="none" stroke="#FFDA68" stroke-miterlimit="10" x1="324.293" y1="204.499" x2="324.293" y2="217.821"/>
	<polygon clip-path="url(#SVGID_8_)" fill="none" stroke="#FF687D" stroke-miterlimit="10" points="356.984,194.415 
		367.183,188.542 367.183,184.296 356.984,190.168 	"/>
	<polygon clip-path="url(#SVGID_8_)" fill="none" stroke="#FFDA68" stroke-miterlimit="10" points="343.185,202.375 
		353.384,196.504 353.384,192.258 343.185,198.129 	"/>
	<polygon clip-path="url(#SVGID_8_)" fill="none" stroke="#FF687D" stroke-miterlimit="10" points="329.385,210.337 
		339.584,204.465 339.584,200.219 329.385,206.091 	"/>
	<polygon clip-path="url(#SVGID_8_)" fill="none" stroke="#FFFFFF" stroke-miterlimit="10" points="370.368,198.917 
		312.193,232.403 312.193,245.673 370.368,212.187 	"/>
	
		<line clip-path="url(#SVGID_8_)" fill="none" stroke="#FFFFFF" stroke-miterlimit="10" x1="324.293" y1="225.728" x2="324.293" y2="239.052"/>
	<polygon clip-path="url(#SVGID_8_)" fill="none" stroke="#FFDA68" stroke-miterlimit="10" points="356.984,215.645 
		367.183,209.773 367.183,205.527 356.984,211.399 	"/>
	<polygon clip-path="url(#SVGID_8_)" fill="none" stroke="#FFFFFF" stroke-miterlimit="10" points="343.185,223.606 
		353.384,217.735 353.384,213.489 343.185,219.36 	"/>
	<polygon clip-path="url(#SVGID_8_)" fill="none" stroke="#FFDA68" stroke-miterlimit="10" points="329.385,231.567 
		339.584,225.696 339.584,221.45 329.385,227.321 	"/>
	<polygon clip-path="url(#SVGID_8_)" fill="none" stroke="#FFDA68" stroke-miterlimit="10" points="370.368,220.147 
		312.193,253.634 312.193,266.904 370.368,233.417 	"/>
	
		<line clip-path="url(#SVGID_8_)" fill="none" stroke="#FFDA68" stroke-miterlimit="10" x1="324.293" y1="246.958" x2="324.293" y2="260.282"/>
	<polygon clip-path="url(#SVGID_8_)" fill="none" stroke="#FFDA68" stroke-miterlimit="10" points="356.984,236.875 
		367.183,231.003 367.183,226.757 356.984,232.628 	"/>
	<polygon clip-path="url(#SVGID_8_)" fill="none" stroke="#FF687D" stroke-miterlimit="10" points="343.185,244.836 
		353.384,238.964 353.384,234.718 343.185,240.59 	"/>
	<polygon clip-path="url(#SVGID_8_)" fill="none" stroke="#FFDA68" stroke-miterlimit="10" points="329.385,252.797 
		339.584,246.926 339.584,242.68 329.385,248.551 	"/>
	<polygon clip-path="url(#SVGID_8_)" fill="none" stroke="#FFFFFF" stroke-miterlimit="10" points="370.368,241.377 
		312.193,274.865 312.193,288.133 370.368,254.647 	"/>
	
		<line clip-path="url(#SVGID_8_)" fill="none" stroke="#FFFFFF" stroke-miterlimit="10" x1="324.293" y1="268.189" x2="324.293" y2="281.512"/>
	<polygon clip-path="url(#SVGID_8_)" fill="none" stroke="#FFFFFF" stroke-miterlimit="10" points="356.984,258.105 
		367.183,252.234 367.183,247.988 356.984,253.859 	"/>
	<polygon clip-path="url(#SVGID_8_)" fill="none" stroke="#FFDA68" stroke-miterlimit="10" points="343.185,266.067 
		353.384,260.195 353.384,255.949 343.185,261.821 	"/>
	<polygon clip-path="url(#SVGID_8_)" fill="none" stroke="#FFFFFF" stroke-miterlimit="10" points="329.385,274.028 
		339.584,268.157 339.584,263.911 329.385,269.782 	"/>
	
		<line clip-path="url(#SVGID_8_)" fill="none" stroke="#FFDA68" stroke-width="2" stroke-miterlimit="10" x1="311.133" y1="296.753" x2="311.133" y2="306.075"/>
	
		<line clip-path="url(#SVGID_8_)" fill="none" stroke="#FFDA68" stroke-width="2" stroke-miterlimit="10" x1="316.614" y1="293.588" x2="316.614" y2="302.94"/>
	
		<line clip-path="url(#SVGID_8_)" fill="none" stroke="#FFDA68" stroke-width="2" stroke-miterlimit="10" x1="322.096" y1="290.439" x2="322.096" y2="299.746"/>
	
		<line clip-path="url(#SVGID_8_)" fill="none" stroke="#FFDA68" stroke-width="2" stroke-miterlimit="10" x1="327.577" y1="287.264" x2="327.577" y2="296.552"/>
	
		<line clip-path="url(#SVGID_8_)" fill="none" stroke="#FFDA68" stroke-width="2" stroke-miterlimit="10" x1="333.06" y1="284.129" x2="333.06" y2="293.437"/>
	
		<line clip-path="url(#SVGID_8_)" fill="none" stroke="#FFDA68" stroke-width="2" stroke-miterlimit="10" x1="338.541" y1="280.955" x2="338.541" y2="290.243"/>
	
		<line clip-path="url(#SVGID_8_)" fill="none" stroke="#FFDA68" stroke-width="2" stroke-miterlimit="10" x1="344.022" y1="277.783" x2="344.022" y2="287.069"/>
	
		<line clip-path="url(#SVGID_8_)" fill="none" stroke="#FFDA68" stroke-width="2" stroke-miterlimit="10" x1="349.503" y1="274.731" x2="349.503" y2="283.972"/>
	
		<line clip-path="url(#SVGID_8_)" fill="none" stroke="#FFDA68" stroke-width="2" stroke-miterlimit="10" x1="354.985" y1="271.583" x2="354.985" y2="280.779"/>
	
		<line clip-path="url(#SVGID_8_)" fill="none" stroke="#FFDA68" stroke-width="2" stroke-miterlimit="10" x1="360.467" y1="268.246" x2="360.467" y2="277.624"/>
	
		<line clip-path="url(#SVGID_8_)" fill="none" stroke="#FFDA68" stroke-width="2" stroke-miterlimit="10" x1="365.948" y1="265.22" x2="365.948" y2="274.43"/>
	
		<line clip-path="url(#SVGID_8_)" fill="none" stroke="#FFDA68" stroke-width="2" stroke-miterlimit="10" x1="371.43" y1="262.046" x2="371.43" y2="271.334"/>
	
		<line clip-path="url(#SVGID_8_)" fill="none" stroke="#FFDA68" stroke-width="2" stroke-miterlimit="10" x1="367.715" y1="103.121" x2="367.715" y2="109.021"/>
	
		<line clip-path="url(#SVGID_8_)" fill="none" stroke="#FFDA68" stroke-width="2" stroke-miterlimit="10" x1="315.91" y1="132.842" x2="315.91" y2="139.274"/>
	
		<line clip-path="url(#SVGID_8_)" fill="none" stroke="#FFDA68" stroke-width="2" stroke-miterlimit="10" x1="375.903" y1="259.464" x2="306.783" y2="299.252"/>
	<polygon clip-path="url(#SVGID_8_)" fill="#1E222F" points="249.579,178.725 248.517,178.725 180.79,139.738 113.062,178.725 
		112,178.725 112,354.697 180.79,394.294 249.579,354.697 	"/>
	<polygon clip-path="url(#SVGID_8_)" fill="none" stroke="#FFFFFF" stroke-width="2" stroke-miterlimit="10" points="
		180.79,217.711 113.062,178.725 180.79,139.737 248.518,178.725 	"/>
	
		<ellipse transform="matrix(0.9989 -0.0461 0.0461 0.9989 -7.9315 7.2731)" clip-path="url(#SVGID_8_)" fill="none" stroke="#FFFFFF" stroke-width="2" stroke-miterlimit="10" cx="153.718" cy="175.593" rx="10.984" ry="6.37"/>
	
		<ellipse transform="matrix(0.9989 -0.0461 0.0461 0.9989 -7.2452 8.3838)" clip-path="url(#SVGID_8_)" fill="none" stroke="#FFFFFF" stroke-width="2" stroke-miterlimit="10" cx="178.133" cy="161.263" rx="10.983" ry="6.368"/>
	<polyline clip-path="url(#SVGID_8_)" fill="none" stroke="#FFFFFF" stroke-width="2" stroke-miterlimit="10" points="
		249.579,178.725 249.579,354.697 180.79,394.294 112,354.697 112,178.725 	"/>
	
		<line clip-path="url(#SVGID_8_)" fill="none" stroke="#FFFFFF" stroke-width="2" stroke-miterlimit="10" x1="180.79" y1="217.711" x2="180.79" y2="394.294"/>
	<polygon clip-path="url(#SVGID_8_)" fill="none" stroke="#FFFFFF" stroke-miterlimit="10" points="244.271,199.826 
		186.097,233.313 186.097,246.582 244.271,213.096 	"/>
	
		<line clip-path="url(#SVGID_8_)" fill="none" stroke="#FFFFFF" stroke-width="2" stroke-miterlimit="10" x1="249.806" y1="184.474" x2="180.686" y2="224.262"/>
	
		<line clip-path="url(#SVGID_8_)" fill="none" stroke="#FFFFFF" stroke-width="2" stroke-miterlimit="10" x1="249.806" y1="190.313" x2="180.686" y2="230.101"/>
	
		<line clip-path="url(#SVGID_8_)" fill="none" stroke="#FFFFFF" stroke-miterlimit="10" x1="198.196" y1="226.637" x2="198.196" y2="239.96"/>
	<polygon clip-path="url(#SVGID_8_)" fill="none" stroke="#FFDA68" stroke-miterlimit="10" points="230.886,216.553 
		241.086,210.682 241.086,206.436 230.886,212.307 	"/>
	<polygon clip-path="url(#SVGID_8_)" fill="none" stroke="#FFFFFF" stroke-miterlimit="10" points="217.086,224.515 
		227.287,218.643 227.287,214.397 217.086,220.269 	"/>
	<polygon clip-path="url(#SVGID_8_)" fill="none" stroke="#FFDA68" stroke-miterlimit="10" points="203.287,232.476 
		213.487,226.605 213.487,222.359 203.287,228.23 	"/>
	<polygon clip-path="url(#SVGID_8_)" fill="none" stroke="#FFDA68" stroke-miterlimit="10" points="244.271,221.056 
		186.097,254.543 186.097,267.812 244.271,234.325 	"/>
	
		<line clip-path="url(#SVGID_8_)" fill="none" stroke="#FFDA68" stroke-miterlimit="10" x1="198.196" y1="247.868" x2="198.196" y2="261.191"/>
	<polygon clip-path="url(#SVGID_8_)" fill="none" stroke="#FFDA68" stroke-miterlimit="10" points="230.886,237.784 
		241.086,231.913 241.086,227.667 230.886,233.538 	"/>
	<polygon clip-path="url(#SVGID_8_)" fill="none" stroke="#FF687D" stroke-miterlimit="10" points="217.086,245.745 
		227.287,239.874 227.287,235.627 217.086,241.499 	"/>
	<polygon clip-path="url(#SVGID_8_)" fill="none" stroke="#FFDA68" stroke-miterlimit="10" points="203.287,253.707 
		213.487,247.834 213.487,243.588 203.287,249.46 	"/>
	<polygon clip-path="url(#SVGID_8_)" fill="none" stroke="#FFFFFF" stroke-miterlimit="10" points="244.271,242.287 
		186.097,275.774 186.097,289.042 244.271,255.555 	"/>
	
		<line clip-path="url(#SVGID_8_)" fill="none" stroke="#FFFFFF" stroke-miterlimit="10" x1="198.196" y1="269.098" x2="198.196" y2="282.421"/>
	<polygon clip-path="url(#SVGID_8_)" fill="none" stroke="#FFFFFF" stroke-miterlimit="10" points="230.886,259.014 
		241.086,253.142 241.086,248.896 230.886,254.768 	"/>
	<polygon clip-path="url(#SVGID_8_)" fill="none" stroke="#FFDA68" stroke-miterlimit="10" points="217.086,266.975 
		227.287,261.104 227.287,256.858 217.086,262.729 	"/>
	<polygon clip-path="url(#SVGID_8_)" fill="none" stroke="#FFFFFF" stroke-miterlimit="10" points="203.287,274.937 
		213.487,269.065 213.487,264.819 203.287,270.691 	"/>
	<polygon clip-path="url(#SVGID_8_)" fill="none" stroke="#FFDA68" stroke-miterlimit="10" points="244.271,263.517 
		186.097,297.003 186.097,310.273 244.271,276.786 	"/>
	
		<line clip-path="url(#SVGID_8_)" fill="none" stroke="#FFDA68" stroke-miterlimit="10" x1="198.196" y1="290.328" x2="198.196" y2="303.652"/>
	<polygon clip-path="url(#SVGID_8_)" fill="none" stroke="#FF687D" stroke-miterlimit="10" points="230.886,280.245 
		241.086,274.373 241.086,270.126 230.886,275.999 	"/>
	<polygon clip-path="url(#SVGID_8_)" fill="none" stroke="#FFDA68" stroke-miterlimit="10" points="217.086,288.206 
		227.287,282.334 227.287,278.088 217.086,283.959 	"/>
	<polygon clip-path="url(#SVGID_8_)" fill="none" stroke="#FF687D" stroke-miterlimit="10" points="203.287,296.167 
		213.487,290.295 213.487,286.049 203.287,291.92 	"/>
	<polygon clip-path="url(#SVGID_8_)" fill="none" stroke="#FFFFFF" stroke-miterlimit="10" points="244.271,284.747 
		186.097,318.234 186.097,331.503 244.271,298.016 	"/>
	
		<line clip-path="url(#SVGID_8_)" fill="none" stroke="#FFFFFF" stroke-miterlimit="10" x1="198.196" y1="311.558" x2="198.196" y2="324.882"/>
	<polygon clip-path="url(#SVGID_8_)" fill="none" stroke="#FFDA68" stroke-miterlimit="10" points="230.886,301.474 
		241.086,295.603 241.086,291.357 230.886,297.228 	"/>
	<polygon clip-path="url(#SVGID_8_)" fill="none" stroke="#FFFFFF" stroke-miterlimit="10" points="217.086,309.436 
		227.287,303.564 227.287,299.318 217.086,305.19 	"/>
	<polygon clip-path="url(#SVGID_8_)" fill="none" stroke="#FFDA68" stroke-miterlimit="10" points="203.287,317.397 
		213.487,311.526 213.487,307.28 203.287,313.151 	"/>
	<polygon clip-path="url(#SVGID_8_)" fill="none" stroke="#FFDA68" stroke-miterlimit="10" points="244.271,305.977 
		186.097,339.464 186.097,352.733 244.271,319.247 	"/>
	
		<line clip-path="url(#SVGID_8_)" fill="none" stroke="#FFDA68" stroke-miterlimit="10" x1="198.196" y1="332.789" x2="198.196" y2="346.112"/>
	<polygon clip-path="url(#SVGID_8_)" fill="none" stroke="#FFDA68" stroke-miterlimit="10" points="230.886,322.705 
		241.086,316.833 241.086,312.587 230.886,318.458 	"/>
	<polygon clip-path="url(#SVGID_8_)" fill="none" stroke="#FF687D" stroke-miterlimit="10" points="217.086,330.667 
		227.287,324.794 227.287,320.548 217.086,326.42 	"/>
	<polygon clip-path="url(#SVGID_8_)" fill="none" stroke="#FFDA68" stroke-miterlimit="10" points="203.287,338.627 
		213.487,332.756 213.487,328.51 203.287,334.381 	"/>
	<polygon clip-path="url(#SVGID_8_)" fill="none" stroke="#FFFFFF" stroke-miterlimit="10" points="244.271,327.208 
		186.097,360.695 186.097,373.963 244.271,340.476 	"/>
	
		<line clip-path="url(#SVGID_8_)" fill="none" stroke="#FFFFFF" stroke-miterlimit="10" x1="198.196" y1="354.019" x2="198.196" y2="367.342"/>
	<polygon clip-path="url(#SVGID_8_)" fill="none" stroke="#FFFFFF" stroke-miterlimit="10" points="230.886,343.935 
		241.086,338.064 241.086,333.818 230.886,339.689 	"/>
	<polygon clip-path="url(#SVGID_8_)" fill="none" stroke="#FFDA68" stroke-miterlimit="10" points="217.086,351.896 
		227.287,346.025 227.287,341.779 217.086,347.65 	"/>
	<polygon clip-path="url(#SVGID_8_)" fill="none" stroke="#FFFFFF" stroke-miterlimit="10" points="203.287,359.858 
		213.487,353.986 213.487,349.741 203.287,355.612 	"/>
	
		<line clip-path="url(#SVGID_8_)" fill="none" stroke="#FFFFFF" stroke-width="2" stroke-miterlimit="10" x1="185.036" y1="382.583" x2="185.036" y2="391.905"/>
	
		<line clip-path="url(#SVGID_8_)" fill="none" stroke="#FFFFFF" stroke-width="2" stroke-miterlimit="10" x1="190.517" y1="379.417" x2="190.517" y2="388.77"/>
	
		<line clip-path="url(#SVGID_8_)" fill="none" stroke="#FFFFFF" stroke-width="2" stroke-miterlimit="10" x1="195.999" y1="376.269" x2="195.999" y2="385.576"/>
	
		<line clip-path="url(#SVGID_8_)" fill="none" stroke="#FFFFFF" stroke-width="2" stroke-miterlimit="10" x1="201.48" y1="373.094" x2="201.48" y2="382.382"/>
	
		<line clip-path="url(#SVGID_8_)" fill="none" stroke="#FFFFFF" stroke-width="2" stroke-miterlimit="10" x1="206.961" y1="369.959" x2="206.961" y2="379.266"/>
	
		<line clip-path="url(#SVGID_8_)" fill="none" stroke="#FFFFFF" stroke-width="2" stroke-miterlimit="10" x1="212.443" y1="366.785" x2="212.443" y2="376.073"/>
	
		<line clip-path="url(#SVGID_8_)" fill="none" stroke="#FFFFFF" stroke-width="2" stroke-miterlimit="10" x1="217.924" y1="363.613" x2="217.924" y2="372.898"/>
	
		<line clip-path="url(#SVGID_8_)" fill="none" stroke="#FFFFFF" stroke-width="2" stroke-miterlimit="10" x1="223.407" y1="360.561" x2="223.407" y2="369.802"/>
	
		<line clip-path="url(#SVGID_8_)" fill="none" stroke="#FFFFFF" stroke-width="2" stroke-miterlimit="10" x1="228.888" y1="357.414" x2="228.888" y2="366.609"/>
	
		<line clip-path="url(#SVGID_8_)" fill="none" stroke="#FFFFFF" stroke-width="2" stroke-miterlimit="10" x1="234.37" y1="354.076" x2="234.37" y2="363.454"/>
	
		<line clip-path="url(#SVGID_8_)" fill="none" stroke="#FFFFFF" stroke-width="2" stroke-miterlimit="10" x1="239.851" y1="351.05" x2="239.851" y2="360.26"/>
	
		<line clip-path="url(#SVGID_8_)" fill="none" stroke="#FFFFFF" stroke-width="2" stroke-miterlimit="10" x1="245.333" y1="347.876" x2="245.333" y2="357.164"/>
	
		<line clip-path="url(#SVGID_8_)" fill="none" stroke="#FFFFFF" stroke-width="2" stroke-miterlimit="10" x1="241.618" y1="188.95" x2="241.618" y2="194.851"/>
	
		<line clip-path="url(#SVGID_8_)" fill="none" stroke="#FFFFFF" stroke-width="2" stroke-miterlimit="10" x1="189.812" y1="218.672" x2="189.812" y2="225.104"/>
	
		<line clip-path="url(#SVGID_8_)" fill="none" stroke="#FFFFFF" stroke-width="2" stroke-miterlimit="10" x1="249.806" y1="345.294" x2="180.686" y2="385.083"/>
	<polygon clip-path="url(#SVGID_8_)" fill="#1E222F" points="501.773,178.725 500.711,178.725 432.983,139.738 365.255,178.725 
		364.194,178.725 364.194,354.697 432.983,394.294 501.773,354.697 	"/>
	<polygon clip-path="url(#SVGID_8_)" fill="none" stroke="#FFFFFF" stroke-width="2" stroke-miterlimit="10" points="
		432.982,217.711 365.255,178.725 432.982,139.737 500.712,178.725 	"/>
	
		<ellipse transform="matrix(0.9989 -0.0461 0.0461 0.9989 -7.6638 18.9006)" clip-path="url(#SVGID_8_)" fill="none" stroke="#FFFFFF" stroke-width="2" stroke-miterlimit="10" cx="405.912" cy="175.593" rx="10.983" ry="6.37"/>
	
		<ellipse transform="matrix(0.9989 -0.0461 0.0461 0.9989 -6.9769 20.0101)" clip-path="url(#SVGID_8_)" fill="none" stroke="#FFFFFF" stroke-width="2" stroke-miterlimit="10" cx="430.327" cy="161.263" rx="10.983" ry="6.368"/>
	<polyline clip-path="url(#SVGID_8_)" fill="none" stroke="#FFFFFF" stroke-width="2" stroke-miterlimit="10" points="
		501.773,178.725 501.773,354.697 432.983,394.294 364.194,354.697 364.194,178.725 	"/>
	
		<line clip-path="url(#SVGID_8_)" fill="none" stroke="#FFFFFF" stroke-width="2" stroke-miterlimit="10" x1="432.982" y1="217.711" x2="432.982" y2="394.294"/>
	<polygon clip-path="url(#SVGID_8_)" fill="none" stroke="#FFFFFF" stroke-miterlimit="10" points="496.466,199.826 438.29,233.313 
		438.29,246.582 496.466,213.096 	"/>
	
		<line clip-path="url(#SVGID_8_)" fill="none" stroke="#FFFFFF" stroke-width="2" stroke-miterlimit="10" x1="502" y1="184.474" x2="432.881" y2="224.262"/>
	
		<line clip-path="url(#SVGID_8_)" fill="none" stroke="#FFFFFF" stroke-width="2" stroke-miterlimit="10" x1="502" y1="190.313" x2="432.881" y2="230.101"/>
	
		<line clip-path="url(#SVGID_8_)" fill="none" stroke="#FFFFFF" stroke-miterlimit="10" x1="450.39" y1="226.637" x2="450.39" y2="239.96"/>
	<polygon clip-path="url(#SVGID_8_)" fill="none" stroke="#FFDA68" stroke-miterlimit="10" points="483.081,216.553 493.28,210.682 
		493.28,206.436 483.081,212.307 	"/>
	<polygon clip-path="url(#SVGID_8_)" fill="none" stroke="#FFFFFF" stroke-miterlimit="10" points="469.281,224.515 479.48,218.643 
		479.48,214.397 469.281,220.269 	"/>
	<polygon clip-path="url(#SVGID_8_)" fill="none" stroke="#FFDA68" stroke-miterlimit="10" points="455.481,232.476 
		465.681,226.605 465.681,222.359 455.481,228.23 	"/>
	<polygon clip-path="url(#SVGID_8_)" fill="none" stroke="#FFDA68" stroke-miterlimit="10" points="496.466,221.056 438.29,254.543 
		438.29,267.812 496.466,234.325 	"/>
	
		<line clip-path="url(#SVGID_8_)" fill="none" stroke="#FFDA68" stroke-miterlimit="10" x1="450.39" y1="247.868" x2="450.39" y2="261.191"/>
	<polygon clip-path="url(#SVGID_8_)" fill="none" stroke="#FFDA68" stroke-miterlimit="10" points="483.081,237.784 493.28,231.913 
		493.28,227.667 483.081,233.538 	"/>
	<polygon clip-path="url(#SVGID_8_)" fill="none" stroke="#FF687D" stroke-miterlimit="10" points="469.281,245.745 479.48,239.874 
		479.48,235.627 469.281,241.499 	"/>
	<polygon clip-path="url(#SVGID_8_)" fill="none" stroke="#FFDA68" stroke-miterlimit="10" points="455.481,253.707 
		465.681,247.834 465.681,243.588 455.481,249.46 	"/>
	<polygon clip-path="url(#SVGID_8_)" fill="none" stroke="#FFFFFF" stroke-miterlimit="10" points="496.466,242.287 438.29,275.774 
		438.29,289.042 496.466,255.555 	"/>
	
		<line clip-path="url(#SVGID_8_)" fill="none" stroke="#FFFFFF" stroke-miterlimit="10" x1="450.39" y1="269.098" x2="450.39" y2="282.421"/>
	<polygon clip-path="url(#SVGID_8_)" fill="none" stroke="#FFFFFF" stroke-miterlimit="10" points="483.081,259.014 493.28,253.142 
		493.28,248.896 483.081,254.768 	"/>
	<polygon clip-path="url(#SVGID_8_)" fill="none" stroke="#FFDA68" stroke-miterlimit="10" points="469.281,266.975 479.48,261.104 
		479.48,256.858 469.281,262.729 	"/>
	<polygon clip-path="url(#SVGID_8_)" fill="none" stroke="#FFFFFF" stroke-miterlimit="10" points="455.481,274.937 
		465.681,269.065 465.681,264.819 455.481,270.691 	"/>
	<polygon clip-path="url(#SVGID_8_)" fill="none" stroke="#FFDA68" stroke-miterlimit="10" points="496.466,263.517 438.29,297.003 
		438.29,310.273 496.466,276.786 	"/>
	
		<line clip-path="url(#SVGID_8_)" fill="none" stroke="#FFDA68" stroke-miterlimit="10" x1="450.39" y1="290.328" x2="450.39" y2="303.652"/>
	<polygon clip-path="url(#SVGID_8_)" fill="none" stroke="#FF687D" stroke-miterlimit="10" points="483.081,280.245 493.28,274.373 
		493.28,270.126 483.081,275.999 	"/>
	<polygon clip-path="url(#SVGID_8_)" fill="none" stroke="#FFDA68" stroke-miterlimit="10" points="469.281,288.206 479.48,282.334 
		479.48,278.088 469.281,283.959 	"/>
	<polygon clip-path="url(#SVGID_8_)" fill="none" stroke="#FF687D" stroke-miterlimit="10" points="455.481,296.167 
		465.681,290.295 465.681,286.049 455.481,291.92 	"/>
	<polygon clip-path="url(#SVGID_8_)" fill="none" stroke="#FFFFFF" stroke-miterlimit="10" points="496.466,284.747 438.29,318.234 
		438.29,331.503 496.466,298.016 	"/>
	
		<line clip-path="url(#SVGID_8_)" fill="none" stroke="#FFFFFF" stroke-miterlimit="10" x1="450.39" y1="311.558" x2="450.39" y2="324.882"/>
	<polygon clip-path="url(#SVGID_8_)" fill="none" stroke="#FFDA68" stroke-miterlimit="10" points="483.081,301.474 493.28,295.603 
		493.28,291.357 483.081,297.228 	"/>
	<polygon clip-path="url(#SVGID_8_)" fill="none" stroke="#FFFFFF" stroke-miterlimit="10" points="469.281,309.436 479.48,303.564 
		479.48,299.318 469.281,305.19 	"/>
	<polygon clip-path="url(#SVGID_8_)" fill="none" stroke="#FFDA68" stroke-miterlimit="10" points="455.481,317.397 
		465.681,311.526 465.681,307.28 455.481,313.151 	"/>
	<polygon clip-path="url(#SVGID_8_)" fill="none" stroke="#FFDA68" stroke-miterlimit="10" points="496.466,305.977 438.29,339.464 
		438.29,352.733 496.466,319.247 	"/>
	
		<line clip-path="url(#SVGID_8_)" fill="none" stroke="#FFDA68" stroke-miterlimit="10" x1="450.39" y1="332.789" x2="450.39" y2="346.112"/>
	<polygon clip-path="url(#SVGID_8_)" fill="none" stroke="#FFDA68" stroke-miterlimit="10" points="483.081,322.705 493.28,316.833 
		493.28,312.587 483.081,318.458 	"/>
	<polygon clip-path="url(#SVGID_8_)" fill="none" stroke="#FF687D" stroke-miterlimit="10" points="469.281,330.667 479.48,324.794 
		479.48,320.548 469.281,326.42 	"/>
	<polygon clip-path="url(#SVGID_8_)" fill="none" stroke="#FFDA68" stroke-miterlimit="10" points="455.481,338.627 
		465.681,332.756 465.681,328.51 455.481,334.381 	"/>
	<polygon clip-path="url(#SVGID_8_)" fill="none" stroke="#FFFFFF" stroke-miterlimit="10" points="496.466,327.208 438.29,360.695 
		438.29,373.963 496.466,340.476 	"/>
	
		<line clip-path="url(#SVGID_8_)" fill="none" stroke="#FFFFFF" stroke-miterlimit="10" x1="450.39" y1="354.019" x2="450.39" y2="367.342"/>
	<polygon clip-path="url(#SVGID_8_)" fill="none" stroke="#FFFFFF" stroke-miterlimit="10" points="483.081,343.935 493.28,338.064 
		493.28,333.818 483.081,339.689 	"/>
	<polygon clip-path="url(#SVGID_8_)" fill="none" stroke="#FFDA68" stroke-miterlimit="10" points="469.281,351.896 479.48,346.025 
		479.48,341.779 469.281,347.65 	"/>
	<polygon clip-path="url(#SVGID_8_)" fill="none" stroke="#FFFFFF" stroke-miterlimit="10" points="455.481,359.858 
		465.681,353.986 465.681,349.741 455.481,355.612 	"/>
	
		<line clip-path="url(#SVGID_8_)" fill="none" stroke="#FFFFFF" stroke-width="2" stroke-miterlimit="10" x1="437.229" y1="382.583" x2="437.229" y2="391.905"/>
	
		<line clip-path="url(#SVGID_8_)" fill="none" stroke="#FFFFFF" stroke-width="2" stroke-miterlimit="10" x1="442.712" y1="379.417" x2="442.712" y2="388.77"/>
	
		<line clip-path="url(#SVGID_8_)" fill="none" stroke="#FFFFFF" stroke-width="2" stroke-miterlimit="10" x1="448.193" y1="376.269" x2="448.193" y2="385.576"/>
	
		<line clip-path="url(#SVGID_8_)" fill="none" stroke="#FFFFFF" stroke-width="2" stroke-miterlimit="10" x1="453.674" y1="373.094" x2="453.674" y2="382.382"/>
	
		<line clip-path="url(#SVGID_8_)" fill="none" stroke="#FFFFFF" stroke-width="2" stroke-miterlimit="10" x1="459.156" y1="369.959" x2="459.156" y2="379.266"/>
	
		<line clip-path="url(#SVGID_8_)" fill="none" stroke="#FFFFFF" stroke-width="2" stroke-miterlimit="10" x1="464.637" y1="366.785" x2="464.637" y2="376.073"/>
	
		<line clip-path="url(#SVGID_8_)" fill="none" stroke="#FFFFFF" stroke-width="2" stroke-miterlimit="10" x1="470.119" y1="363.613" x2="470.119" y2="372.898"/>
	
		<line clip-path="url(#SVGID_8_)" fill="none" stroke="#FFFFFF" stroke-width="2" stroke-miterlimit="10" x1="475.6" y1="360.561" x2="475.6" y2="369.802"/>
	
		<line clip-path="url(#SVGID_8_)" fill="none" stroke="#FFFFFF" stroke-width="2" stroke-miterlimit="10" x1="481.082" y1="357.414" x2="481.082" y2="366.609"/>
	
		<line clip-path="url(#SVGID_8_)" fill="none" stroke="#FFFFFF" stroke-width="2" stroke-miterlimit="10" x1="486.564" y1="354.076" x2="486.564" y2="363.454"/>
	
		<line clip-path="url(#SVGID_8_)" fill="none" stroke="#FFFFFF" stroke-width="2" stroke-miterlimit="10" x1="492.045" y1="351.05" x2="492.045" y2="360.26"/>
	
		<line clip-path="url(#SVGID_8_)" fill="none" stroke="#FFFFFF" stroke-width="2" stroke-miterlimit="10" x1="497.527" y1="347.876" x2="497.527" y2="357.164"/>
	
		<line clip-path="url(#SVGID_8_)" fill="none" stroke="#FFFFFF" stroke-width="2" stroke-miterlimit="10" x1="493.812" y1="188.95" x2="493.812" y2="194.851"/>
	
		<line clip-path="url(#SVGID_8_)" fill="none" stroke="#FFFFFF" stroke-width="2" stroke-miterlimit="10" x1="442.007" y1="218.672" x2="442.007" y2="225.104"/>
	
		<line clip-path="url(#SVGID_8_)" fill="none" stroke="#FFFFFF" stroke-width="2" stroke-miterlimit="10" x1="502" y1="345.294" x2="432.881" y2="385.083"/>
	<polygon clip-path="url(#SVGID_8_)" fill="#1E222F" points="375.676,258.338 374.613,258.338 306.887,219.353 239.158,258.338 
		238.097,258.338 238.097,434.311 306.887,473.909 375.676,434.311 	"/>
	<polygon clip-path="url(#SVGID_8_)" fill="none" stroke="#FFDA68" stroke-width="2" stroke-miterlimit="10" points="
		306.887,297.325 239.158,258.338 306.887,219.352 374.614,258.338 	"/>
	
		<ellipse transform="matrix(0.9989 -0.0461 0.0461 0.9989 -11.4681 13.1715)" clip-path="url(#SVGID_8_)" fill="none" stroke="#FFDA68" stroke-width="2" stroke-miterlimit="10" cx="279.815" cy="255.207" rx="10.983" ry="6.369"/>
	
		<ellipse transform="matrix(0.9989 -0.0461 0.0461 0.9989 -10.7813 14.2815)" clip-path="url(#SVGID_8_)" fill="none" stroke="#FFDA68" stroke-width="2" stroke-miterlimit="10" cx="304.23" cy="240.876" rx="10.983" ry="6.369"/>
	<polyline clip-path="url(#SVGID_8_)" fill="none" stroke="#FFDA68" stroke-width="2" stroke-miterlimit="10" points="
		375.676,258.338 375.676,434.311 306.887,473.909 238.097,434.311 238.097,258.338 	"/>
	
		<line clip-path="url(#SVGID_8_)" fill="none" stroke="#FFDA68" stroke-width="2" stroke-miterlimit="10" x1="306.887" y1="297.325" x2="306.887" y2="473.909"/>
	<polygon clip-path="url(#SVGID_8_)" fill="none" stroke="#FFFFFF" stroke-miterlimit="10" points="370.368,279.439 
		312.193,312.926 312.193,326.196 370.368,292.708 	"/>
	
		<line clip-path="url(#SVGID_8_)" fill="none" stroke="#FFDA68" stroke-width="2" stroke-miterlimit="10" x1="375.903" y1="264.088" x2="306.783" y2="303.876"/>
	
		<line clip-path="url(#SVGID_8_)" fill="none" stroke="#FFDA68" stroke-width="2" stroke-miterlimit="10" x1="375.903" y1="269.926" x2="306.783" y2="309.714"/>
	
		<line clip-path="url(#SVGID_8_)" fill="none" stroke="#FFFFFF" stroke-miterlimit="10" x1="324.293" y1="306.25" x2="324.293" y2="319.575"/>
	<polygon clip-path="url(#SVGID_8_)" fill="none" stroke="#FFDA68" stroke-miterlimit="10" points="356.984,296.167 
		367.183,290.295 367.183,286.049 356.984,291.92 	"/>
	<polygon clip-path="url(#SVGID_8_)" fill="none" stroke="#FFFFFF" stroke-miterlimit="10" points="343.185,304.128 
		353.383,298.256 353.383,294.01 343.185,299.882 	"/>
	<polygon clip-path="url(#SVGID_8_)" fill="none" stroke="#FFDA68" stroke-miterlimit="10" points="329.385,312.089 
		339.584,306.218 339.584,301.972 329.385,307.843 	"/>
	<polygon clip-path="url(#SVGID_8_)" fill="none" stroke="#FFDA68" stroke-miterlimit="10" points="370.368,300.669 
		312.193,334.157 312.193,347.425 370.368,313.939 	"/>
	
		<line clip-path="url(#SVGID_8_)" fill="none" stroke="#FFDA68" stroke-miterlimit="10" x1="324.293" y1="327.481" x2="324.293" y2="340.804"/>
	<polygon clip-path="url(#SVGID_8_)" fill="none" stroke="#FFDA68" stroke-miterlimit="10" points="356.984,317.397 
		367.183,311.526 367.183,307.28 356.984,313.151 	"/>
	<polygon clip-path="url(#SVGID_8_)" fill="none" stroke="#FF687D" stroke-miterlimit="10" points="343.185,325.359 
		353.383,319.487 353.383,315.241 343.185,321.113 	"/>
	<polygon clip-path="url(#SVGID_8_)" fill="none" stroke="#FFDA68" stroke-miterlimit="10" points="329.385,333.32 339.584,327.449 
		339.584,323.203 329.385,329.074 	"/>
	<polygon clip-path="url(#SVGID_8_)" fill="none" stroke="#FFFFFF" stroke-miterlimit="10" points="370.368,321.9 312.193,355.387 
		312.193,368.656 370.368,335.168 	"/>
	
		<line clip-path="url(#SVGID_8_)" fill="none" stroke="#FFFFFF" stroke-miterlimit="10" x1="324.293" y1="348.711" x2="324.293" y2="362.035"/>
	<polygon clip-path="url(#SVGID_8_)" fill="none" stroke="#FFFFFF" stroke-miterlimit="10" points="356.984,338.627 
		367.183,332.756 367.183,328.51 356.984,334.381 	"/>
	<polygon clip-path="url(#SVGID_8_)" fill="none" stroke="#FFDA68" stroke-miterlimit="10" points="343.185,346.588 
		353.383,340.717 353.383,336.471 343.185,342.342 	"/>
	<polygon clip-path="url(#SVGID_8_)" fill="none" stroke="#FFFFFF" stroke-miterlimit="10" points="329.385,354.55 339.584,348.678 
		339.584,344.433 329.385,350.304 	"/>
	<polygon clip-path="url(#SVGID_8_)" fill="none" stroke="#FFDA68" stroke-miterlimit="10" points="370.368,343.13 312.193,376.618 
		312.193,389.886 370.368,356.399 	"/>
	
		<line clip-path="url(#SVGID_8_)" fill="none" stroke="#FFDA68" stroke-miterlimit="10" x1="324.293" y1="369.942" x2="324.293" y2="383.265"/>
	<polygon clip-path="url(#SVGID_8_)" fill="none" stroke="#FF687D" stroke-miterlimit="10" points="356.984,359.858 
		367.183,353.986 367.183,349.74 356.984,355.612 	"/>
	<polygon clip-path="url(#SVGID_8_)" fill="none" stroke="#FFDA68" stroke-miterlimit="10" points="343.185,367.819 
		353.383,361.948 353.383,357.702 343.185,363.573 	"/>
	<polygon clip-path="url(#SVGID_8_)" fill="none" stroke="#FF687D" stroke-miterlimit="10" points="329.385,375.781 
		339.584,369.909 339.584,365.663 329.385,371.535 	"/>
	<polygon clip-path="url(#SVGID_8_)" fill="none" stroke="#FFFFFF" stroke-miterlimit="10" points="370.368,364.361 
		312.193,397.848 312.193,411.117 370.368,377.629 	"/>
	
		<line clip-path="url(#SVGID_8_)" fill="none" stroke="#FFFFFF" stroke-miterlimit="10" x1="324.293" y1="391.171" x2="324.293" y2="404.496"/>
	<polygon clip-path="url(#SVGID_8_)" fill="none" stroke="#FFDA68" stroke-miterlimit="10" points="356.984,381.088 
		367.183,375.216 367.183,370.97 356.984,376.842 	"/>
	<polygon clip-path="url(#SVGID_8_)" fill="none" stroke="#FFFFFF" stroke-miterlimit="10" points="343.185,389.049 
		353.383,383.178 353.383,378.932 343.185,384.803 	"/>
	<polygon clip-path="url(#SVGID_8_)" fill="none" stroke="#FFDA68" stroke-miterlimit="10" points="329.385,397.011 
		339.584,391.139 339.584,386.893 329.385,392.765 	"/>
	<polygon clip-path="url(#SVGID_8_)" fill="none" stroke="#FFDA68" stroke-miterlimit="10" points="370.368,385.59 312.193,419.078 
		312.193,432.347 370.368,398.86 	"/>
	
		<line clip-path="url(#SVGID_8_)" fill="none" stroke="#FFDA68" stroke-miterlimit="10" x1="324.293" y1="412.402" x2="324.293" y2="425.726"/>
	<polygon clip-path="url(#SVGID_8_)" fill="none" stroke="#FFDA68" stroke-miterlimit="10" points="356.984,402.318 
		367.183,396.447 367.183,392.201 356.984,398.073 	"/>
	<polygon clip-path="url(#SVGID_8_)" fill="none" stroke="#FF687D" stroke-miterlimit="10" points="343.185,410.28 353.383,404.408 
		353.383,400.163 343.185,406.034 	"/>
	<polygon clip-path="url(#SVGID_8_)" fill="none" stroke="#FFDA68" stroke-miterlimit="10" points="329.385,418.241 339.584,412.37 
		339.584,408.124 329.385,413.995 	"/>
	<polygon clip-path="url(#SVGID_8_)" fill="none" stroke="#FFFFFF" stroke-miterlimit="10" points="370.368,406.821 
		312.193,440.308 312.193,453.578 370.368,420.09 	"/>
	
		<line clip-path="url(#SVGID_8_)" fill="none" stroke="#FFFFFF" stroke-miterlimit="10" x1="324.293" y1="433.632" x2="324.293" y2="446.956"/>
	<polygon clip-path="url(#SVGID_8_)" fill="none" stroke="#FFFFFF" stroke-miterlimit="10" points="356.984,423.548 
		367.183,417.677 367.183,413.431 356.984,419.302 	"/>
	<polygon clip-path="url(#SVGID_8_)" fill="none" stroke="#FFDA68" stroke-miterlimit="10" points="343.185,431.51 353.383,425.638 
		353.383,421.392 343.185,427.264 	"/>
	<polygon clip-path="url(#SVGID_8_)" fill="none" stroke="#FFFFFF" stroke-miterlimit="10" points="329.385,439.471 339.584,433.6 
		339.584,429.354 329.385,435.225 	"/>
	
		<line clip-path="url(#SVGID_8_)" fill="none" stroke="#FFDA68" stroke-width="2" stroke-miterlimit="10" x1="311.133" y1="462.197" x2="311.133" y2="471.518"/>
	
		<line clip-path="url(#SVGID_8_)" fill="none" stroke="#FFDA68" stroke-width="2" stroke-miterlimit="10" x1="316.614" y1="459.032" x2="316.614" y2="468.383"/>
	
		<line clip-path="url(#SVGID_8_)" fill="none" stroke="#FFDA68" stroke-width="2" stroke-miterlimit="10" x1="322.096" y1="455.882" x2="322.096" y2="465.19"/>
	
		<line clip-path="url(#SVGID_8_)" fill="none" stroke="#FFDA68" stroke-width="2" stroke-miterlimit="10" x1="327.577" y1="452.708" x2="327.577" y2="461.996"/>
	
		<line clip-path="url(#SVGID_8_)" fill="none" stroke="#FFDA68" stroke-width="2" stroke-miterlimit="10" x1="333.06" y1="449.573" x2="333.06" y2="458.88"/>
	
		<line clip-path="url(#SVGID_8_)" fill="none" stroke="#FFDA68" stroke-width="2" stroke-miterlimit="10" x1="338.541" y1="446.399" x2="338.541" y2="455.686"/>
	
		<line clip-path="url(#SVGID_8_)" fill="none" stroke="#FFDA68" stroke-width="2" stroke-miterlimit="10" x1="344.022" y1="443.226" x2="344.022" y2="452.512"/>
	
		<line clip-path="url(#SVGID_8_)" fill="none" stroke="#FFDA68" stroke-width="2" stroke-miterlimit="10" x1="349.503" y1="440.174" x2="349.503" y2="449.416"/>
	
		<line clip-path="url(#SVGID_8_)" fill="none" stroke="#FFDA68" stroke-width="2" stroke-miterlimit="10" x1="354.985" y1="437.027" x2="354.985" y2="446.222"/>
	
		<line clip-path="url(#SVGID_8_)" fill="none" stroke="#FFDA68" stroke-width="2" stroke-miterlimit="10" x1="360.467" y1="433.689" x2="360.467" y2="443.068"/>
	
		<line clip-path="url(#SVGID_8_)" fill="none" stroke="#FFDA68" stroke-width="2" stroke-miterlimit="10" x1="365.948" y1="430.665" x2="365.948" y2="439.874"/>
	
		<line clip-path="url(#SVGID_8_)" fill="none" stroke="#FFDA68" stroke-width="2" stroke-miterlimit="10" x1="371.43" y1="427.49" x2="371.43" y2="436.778"/>
	
		<line clip-path="url(#SVGID_8_)" fill="none" stroke="#FFDA68" stroke-width="2" stroke-miterlimit="10" x1="367.715" y1="268.564" x2="367.715" y2="274.464"/>
	
		<line clip-path="url(#SVGID_8_)" fill="none" stroke="#FFDA68" stroke-width="2" stroke-miterlimit="10" x1="315.91" y1="298.286" x2="315.91" y2="304.717"/>
	
		<line clip-path="url(#SVGID_8_)" fill="none" stroke="#FFDA68" stroke-width="2" stroke-miterlimit="10" x1="375.903" y1="424.908" x2="306.783" y2="464.696"/>
</g>
</svg>
