<?xml version="1.0" encoding="utf-8"?>
<!-- Generator: Adobe Illustrator 16.0.0, SVG Export Plug-In . SVG Version: 6.00 Build 0)  -->
<!DOCTYPE svg PUBLIC "-//W3C//DTD SVG 1.1//EN" "http://www.w3.org/Graphics/SVG/1.1/DTD/svg11.dtd">
<svg version="1.1" id="Layer_1" xmlns="http://www.w3.org/2000/svg" xmlns:xlink="http://www.w3.org/1999/xlink" x="0px" y="0px"
	 viewBox="0 0 190 150" enable-background="new 0 0 190 150" xml:space="preserve">
<g>
	<defs>
		<rect id="SVGID_1_" width="190" height="150"/>
	</defs>
	<clipPath id="SVGID_2_">
		<use xlink:href="#SVGID_1_"  overflow="visible"/>
	</clipPath>
	<path clip-path="url(#SVGID_2_)" fill="#181B22" d="M39.72,47.68c-13.146,0-23.84-10.695-23.84-23.841
		C15.88,10.695,26.574,0,39.72,0s23.84,10.696,23.84,23.84C63.561,36.985,52.866,47.68,39.72,47.68 M39.72,1.057
		c-12.563,0-22.783,10.221-22.783,22.783c0,12.563,10.22,22.783,22.783,22.783s22.783-10.22,22.783-22.783
		C62.503,11.277,52.283,1.057,39.72,1.057"/>
	<path clip-path="url(#SVGID_2_)" fill="#181B22" d="M39.72,44.769c-11.54,0-20.929-9.389-20.929-20.929S28.18,2.912,39.72,2.912
		s20.928,9.388,20.928,20.928S51.26,44.769,39.72,44.769 M39.72,3.969c-10.957,0-19.871,8.914-19.871,19.871
		c0,10.958,8.914,19.872,19.871,19.872s19.871-8.914,19.871-19.872C59.591,12.882,50.677,3.969,39.72,3.969"/>
	<path clip-path="url(#SVGID_2_)" fill="#181B22" d="M27.215,13.399c-0.806,0-1.461-0.656-1.461-1.462
		c0-0.804,0.655-1.46,1.461-1.46c0.807,0,1.462,0.656,1.462,1.46C28.678,12.743,28.022,13.399,27.215,13.399 M27.215,11.534
		c-0.223,0-0.404,0.181-0.404,0.403c0,0.223,0.181,0.405,0.404,0.405c0.223,0,0.404-0.182,0.404-0.405
		C27.62,11.715,27.438,11.534,27.215,11.534"/>
	<path clip-path="url(#SVGID_2_)" fill="#181B22" d="M25.921,25.572h-2.808c-0.697,0-1.265-0.567-1.265-1.264v-0.936
		c0-0.696,0.568-1.265,1.265-1.265h2.808c0.697,0,1.263,0.569,1.263,1.265v0.936C27.184,25.005,26.618,25.572,25.921,25.572
		 M23.113,23.165c-0.115,0-0.208,0.093-0.208,0.207v0.936c0,0.114,0.093,0.208,0.208,0.208h2.808c0.114,0,0.207-0.094,0.207-0.208
		v-0.936c0-0.114-0.093-0.207-0.207-0.207H23.113z"/>
	<path clip-path="url(#SVGID_2_)" fill="#181B22" d="M56.88,25.572h-2.808c-0.697,0-1.265-0.567-1.265-1.264v-0.936
		c0-0.696,0.568-1.265,1.265-1.265h2.808c0.697,0,1.263,0.569,1.263,1.265v0.936C58.143,25.005,57.577,25.572,56.88,25.572
		 M54.072,23.165c-0.115,0-0.208,0.093-0.208,0.207v0.936c0,0.114,0.093,0.208,0.208,0.208h2.808c0.114,0,0.207-0.094,0.207-0.208
		v-0.936c0-0.114-0.093-0.207-0.207-0.207H54.072z"/>
	<path clip-path="url(#SVGID_2_)" fill="#181B22" d="M39.72,10.936c-0.955,0-1.732-0.777-1.732-1.733V7.331
		c0-0.954,0.777-1.732,1.732-1.732c0.955,0,1.732,0.778,1.732,1.732v1.872C41.453,10.159,40.675,10.936,39.72,10.936 M39.72,6.656
		c-0.372,0-0.676,0.303-0.676,0.675v1.872c0,0.373,0.304,0.677,0.676,0.677c0.372,0,0.675-0.304,0.675-0.677V7.331
		C40.396,6.959,40.092,6.656,39.72,6.656"/>
	<path clip-path="url(#SVGID_2_)" fill="#181B22" d="M52.643,13.399c-0.806,0-1.461-0.656-1.461-1.462
		c0-0.804,0.655-1.46,1.461-1.46c0.807,0,1.462,0.656,1.462,1.46C54.105,12.743,53.45,13.399,52.643,13.399 M52.643,11.534
		c-0.223,0-0.403,0.181-0.403,0.403c0,0.223,0.18,0.405,0.403,0.405c0.224,0,0.405-0.182,0.405-0.405
		C53.048,11.715,52.867,11.534,52.643,11.534"/>
	<path clip-path="url(#SVGID_2_)" fill="#181B22" d="M39.72,32.805c-4.943,0-8.964-4.022-8.964-8.965
		c0-4.942,4.021-8.964,8.964-8.964c3.051,0,5.864,1.53,7.525,4.092c0.16,0.246,0.09,0.573-0.155,0.733
		c-0.245,0.155-0.572,0.088-0.73-0.157c-1.467-2.26-3.949-3.611-6.64-3.611c-4.36,0-7.907,3.548-7.907,7.907
		c0,4.361,3.547,7.908,7.907,7.908c4.359,0,7.907-3.547,7.907-7.908c0-0.613-0.07-1.223-0.21-1.816
		c-0.066-0.284,0.11-0.57,0.395-0.635c0.282-0.072,0.568,0.108,0.635,0.394c0.157,0.67,0.237,1.363,0.237,2.057
		C48.685,28.783,44.663,32.805,39.72,32.805"/>
	<path clip-path="url(#SVGID_2_)" fill="#181B22" d="M42.801,24.151c-0.204,0-0.397-0.117-0.484-0.315
		c-0.118-0.268,0.005-0.58,0.271-0.698l13.045-5.725l0.528-0.406l-0.467,0.247c-0.027-0.05-0.085-0.075-0.136-0.055l-13.883,4.88
		c-0.276,0.097-0.576-0.049-0.674-0.324c-0.096-0.275,0.048-0.577,0.323-0.673l13.897-4.885c0.559-0.179,1.143,0.06,1.407,0.565
		c0.152,0.288,0.177,0.629,0.068,0.935c-0.109,0.307-0.343,0.557-0.642,0.684l-13.041,5.726
		C42.944,24.136,42.872,24.151,42.801,24.151"/>
	<path clip-path="url(#SVGID_2_)" fill="#181B22" d="M27.215,36.604c-0.806,0-1.461-0.655-1.461-1.461s0.655-1.462,1.461-1.462
		c0.807,0,1.462,0.656,1.462,1.462S28.022,36.604,27.215,36.604 M27.215,34.739c-0.223,0-0.404,0.181-0.404,0.404
		s0.181,0.405,0.404,0.405c0.223,0,0.404-0.182,0.404-0.405S27.438,34.739,27.215,34.739"/>
	<path clip-path="url(#SVGID_2_)" fill="#181B22" d="M52.643,36.604c-0.806,0-1.461-0.655-1.461-1.461s0.655-1.462,1.461-1.462
		c0.807,0,1.462,0.656,1.462,1.462S53.45,36.604,52.643,36.604 M52.643,34.739c-0.223,0-0.403,0.181-0.403,0.404
		s0.18,0.405,0.403,0.405c0.224,0,0.405-0.182,0.405-0.405S52.867,34.739,52.643,34.739"/>
	<path clip-path="url(#SVGID_2_)" fill="#181B22" d="M39.72,27.149c-1.824,0-3.309-1.485-3.309-3.309
		c0-1.824,1.485-3.308,3.309-3.308c1.824,0,3.309,1.484,3.309,3.308C43.029,25.664,41.544,27.149,39.72,27.149 M39.72,21.589
		c-1.241,0-2.251,1.01-2.251,2.251c0,1.241,1.01,2.252,2.251,2.252c1.241,0,2.251-1.011,2.251-2.252
		C41.971,22.599,40.961,21.589,39.72,21.589"/>
	<path clip-path="url(#SVGID_2_)" fill="#181B22" d="M149.543,150c-0.292,0-0.528-0.236-0.528-0.528v-5.263
		c0-0.292,0.236-0.528,0.528-0.528c0.293,0,0.528,0.236,0.528,0.528v5.263C150.071,149.764,149.836,150,149.543,150"/>
	<path clip-path="url(#SVGID_2_)" fill="#181B22" d="M149.543,136.835c-0.292,0-0.528-0.236-0.528-0.528v-14.559
		c0-0.292,0.236-0.528,0.528-0.528c0.293,0,0.528,0.236,0.528,0.528v14.559C150.071,136.599,149.836,136.835,149.543,136.835"/>
	<path clip-path="url(#SVGID_2_)" fill="#181B22" d="M149.543,144.34c-2.192,0-3.977-1.783-3.977-3.976
		c0-2.193,1.784-3.978,3.977-3.978s3.978,1.784,3.978,3.978C153.521,142.557,151.735,144.34,149.543,144.34 M149.543,137.444
		c-1.609,0-2.919,1.311-2.919,2.92s1.31,2.92,2.919,2.92s2.92-1.311,2.92-2.92S151.152,137.444,149.543,137.444"/>
	<path clip-path="url(#SVGID_2_)" fill="#181B22" d="M161.484,127.617c-0.292,0-0.528-0.236-0.528-0.528v-5.341
		c0-0.292,0.236-0.528,0.528-0.528s0.527,0.236,0.527,0.528v5.341C162.012,127.381,161.776,127.617,161.484,127.617"/>
	<path clip-path="url(#SVGID_2_)" fill="#181B22" d="M161.484,150c-0.292,0-0.528-0.236-0.528-0.528v-14.608
		c0-0.293,0.236-0.528,0.528-0.528s0.527,0.235,0.527,0.528v14.608C162.012,149.764,161.776,150,161.484,150"/>
	<path clip-path="url(#SVGID_2_)" fill="#181B22" d="M161.484,134.831c-2.192,0-3.978-1.783-3.978-3.976
		c0-2.193,1.785-3.978,3.978-3.978c2.191,0,3.977,1.784,3.977,3.978C165.461,133.048,163.676,134.831,161.484,134.831
		 M161.484,127.936c-1.61,0-2.92,1.311-2.92,2.92s1.31,2.92,2.92,2.92c1.608,0,2.919-1.311,2.919-2.92
		S163.093,127.936,161.484,127.936"/>
	<path clip-path="url(#SVGID_2_)" fill="#181B22" d="M173.425,150c-0.292,0-0.528-0.236-0.528-0.528v-5.048
		c0-0.292,0.236-0.528,0.528-0.528s0.527,0.236,0.527,0.528v5.048C173.952,149.764,173.717,150,173.425,150"/>
	<path clip-path="url(#SVGID_2_)" fill="#181B22" d="M173.425,136.944c-0.292,0-0.528-0.236-0.528-0.528v-14.668
		c0-0.292,0.236-0.529,0.528-0.529s0.527,0.237,0.527,0.529v14.668C173.952,136.708,173.717,136.944,173.425,136.944"/>
	<path clip-path="url(#SVGID_2_)" fill="#181B22" d="M173.425,144.34c-2.192,0-3.978-1.783-3.978-3.976
		c0-2.193,1.785-3.978,3.978-3.978c2.191,0,3.977,1.784,3.977,3.978C177.401,142.557,175.616,144.34,173.425,144.34
		 M173.425,137.444c-1.61,0-2.92,1.311-2.92,2.92s1.31,2.92,2.92,2.92c1.608,0,2.919-1.311,2.919-2.92
		S175.033,137.444,173.425,137.444"/>
	<path clip-path="url(#SVGID_2_)" fill="#181B22" d="M159.02,63.57h-64.74c-0.292,0-0.529-0.236-0.529-0.528
		s0.237-0.529,0.529-0.529h64.212V48.278c0-1.349-1.099-2.447-2.448-2.447h-90.15c-1.35,0-2.447,1.098-2.447,2.447v14.235
		l3.766-0.023c0-0.292,0.237-0.528,0.529-0.528s0.528,0.236,0.528,0.528v0.552c0,0.292-0.236,0.528-0.528,0.528h-4.825
		c-0.292,0-0.528-0.236-0.528-0.528V48.278c0-1.932,1.572-3.504,3.505-3.504h90.15c1.934,0,3.504,1.572,3.504,3.504v14.764
		C159.547,63.334,159.312,63.57,159.02,63.57"/>
	<path clip-path="url(#SVGID_2_)" fill="#181B22" d="M156.044,118.805H65.893c-1.932,0-3.505-1.57-3.505-3.505V63.042
		c0-0.292,0.237-0.529,0.529-0.529h4.296V62.49v-4.409c0-1.112,0.904-2.017,2.015-2.017h23.563c1.111,0,2.015,0.905,2.015,2.017
		v4.432h64.213c0.292,0,0.529,0.237,0.529,0.529V115.3C159.548,117.234,157.976,118.805,156.044,118.805 M63.446,63.57V115.3
		c0,1.351,1.098,2.449,2.447,2.449h90.151c1.348,0,2.447-1.099,2.447-2.449V63.57H94.279c-0.291,0-0.527-0.236-0.528-0.527
		l-0.001-4.962c0-0.53-0.431-0.959-0.959-0.959H69.228c-0.528,0-0.959,0.429-0.959,0.959v4.409c0,0.208-0.12,0.389-0.295,0.475
		c0.004,0.025,0.006,0.05,0.006,0.077c0,0.292-0.236,0.528-0.528,0.528H63.446z"/>
	<path clip-path="url(#SVGID_2_)" fill="#181B22" d="M72.294,53.921c-1.261,0-2.287-1.027-2.287-2.289
		c0-1.26,1.026-2.287,2.287-2.287c1.262,0,2.288,1.027,2.288,2.287C74.583,52.894,73.557,53.921,72.294,53.921 M72.294,50.402
		c-0.679,0-1.23,0.553-1.23,1.23c0,0.68,0.551,1.232,1.23,1.232c0.679,0,1.231-0.552,1.231-1.232
		C73.525,50.955,72.974,50.402,72.294,50.402"/>
	<path clip-path="url(#SVGID_2_)" fill="#181B22" d="M79.73,53.921c-1.261,0-2.287-1.027-2.287-2.289
		c0-1.26,1.026-2.287,2.287-2.287c1.262,0,2.288,1.027,2.288,2.287C82.018,52.894,80.992,53.921,79.73,53.921 M79.73,50.402
		c-0.678,0-1.23,0.553-1.23,1.23c0,0.68,0.552,1.232,1.23,1.232c0.679,0,1.231-0.552,1.231-1.232
		C80.961,50.955,80.409,50.402,79.73,50.402"/>
	<path clip-path="url(#SVGID_2_)" fill="#181B22" d="M87.167,53.921c-1.261,0-2.287-1.027-2.287-2.289
		c0-1.26,1.026-2.287,2.287-2.287c1.262,0,2.288,1.027,2.288,2.287C89.455,52.894,88.429,53.921,87.167,53.921 M87.167,50.402
		c-0.679,0-1.23,0.553-1.23,1.23c0,0.68,0.551,1.232,1.23,1.232c0.679,0,1.231-0.552,1.231-1.232
		C88.397,50.955,87.846,50.402,87.167,50.402"/>
	<path clip-path="url(#SVGID_2_)" fill="#181B22" d="M124.766,63.57H97.171v-5.366c0-1.111,0.905-2.016,2.017-2.016h23.562
		c1.112,0,2.017,0.905,2.017,2.016V63.57z M98.229,62.514h25.479v-4.309c0-0.529-0.43-0.96-0.959-0.96H99.188
		c-0.529,0-0.959,0.431-0.959,0.96V62.514z"/>
	<path clip-path="url(#SVGID_2_)" fill="#181B22" d="M154.156,63.57h-27.596v-5.366c0-1.111,0.905-2.016,2.018-2.016h23.561
		c1.112,0,2.018,0.905,2.018,2.016V63.57z M127.618,62.514h25.479v-4.309c0-0.529-0.429-0.96-0.959-0.96h-23.561
		c-0.53,0-0.96,0.431-0.96,0.96V62.514z"/>
	<path clip-path="url(#SVGID_2_)" fill="#181B22" d="M80.495,108.845h-5.247c-0.874,0-1.585-0.711-1.585-1.585V87.345
		c0-0.873,0.711-1.585,1.585-1.585h5.247c0.874,0,1.585,0.712,1.585,1.585v19.915C82.08,108.134,81.369,108.845,80.495,108.845
		 M75.248,86.817c-0.291,0-0.528,0.237-0.528,0.527v19.915c0,0.291,0.237,0.529,0.528,0.529h5.247c0.291,0,0.528-0.238,0.528-0.529
		V87.345c0-0.29-0.237-0.527-0.528-0.527H75.248z"/>
	<path clip-path="url(#SVGID_2_)" fill="#181B22" d="M91.76,108.846h-4.533c-1.07,0-1.941-0.871-1.941-1.941V89.116
		c0-1.072,0.871-1.943,1.941-1.943h4.533c1.071,0,1.942,0.871,1.942,1.943v17.788C93.702,107.975,92.831,108.846,91.76,108.846
		 M87.227,88.23c-0.488,0-0.885,0.396-0.885,0.886v17.788c0,0.488,0.397,0.885,0.885,0.885h4.533c0.488,0,0.885-0.396,0.885-0.885
		V89.116c0-0.489-0.397-0.886-0.885-0.886H87.227z"/>
	<path clip-path="url(#SVGID_2_)" fill="#181B22" d="M115.005,108.846h-4.533c-1.07,0-1.941-0.871-1.941-1.941V89.116
		c0-1.072,0.871-1.943,1.941-1.943h4.533c1.07,0,1.942,0.871,1.942,1.943v17.788C116.947,107.975,116.075,108.846,115.005,108.846
		 M110.472,88.23c-0.487,0-0.885,0.396-0.885,0.886v17.788c0,0.488,0.397,0.885,0.885,0.885h4.533c0.488,0,0.886-0.396,0.886-0.885
		V89.116c0-0.489-0.397-0.886-0.886-0.886H110.472z"/>
	<path clip-path="url(#SVGID_2_)" fill="#181B22" d="M126.627,108.846h-4.532c-1.071,0-1.942-0.871-1.942-1.942V96.182
		c0-1.071,0.871-1.942,1.942-1.942h4.532c1.071,0,1.942,0.871,1.942,1.942v10.722C128.569,107.975,127.698,108.846,126.627,108.846
		 M122.095,95.297c-0.488,0-0.886,0.396-0.886,0.885v10.722c0,0.489,0.397,0.886,0.886,0.886h4.532c0.488,0,0.886-0.396,0.886-0.886
		V96.182c0-0.489-0.397-0.885-0.886-0.885H122.095z"/>
	<path clip-path="url(#SVGID_2_)" fill="#181B22" d="M103.526,108.846h-4.532c-1.071,0-1.942-0.871-1.942-1.942V96.182
		c0-1.071,0.871-1.942,1.942-1.942h4.532c1.071,0,1.942,0.871,1.942,1.942v10.722C105.469,107.975,104.598,108.846,103.526,108.846
		 M98.994,95.297c-0.488,0-0.886,0.396-0.886,0.885v10.722c0,0.489,0.397,0.886,0.886,0.886h4.532c0.488,0,0.886-0.396,0.886-0.886
		V96.182c0-0.489-0.397-0.885-0.886-0.885H98.994z"/>
	<path clip-path="url(#SVGID_2_)" fill="#181B22" d="M138.25,108.846h-4.533c-1.07,0-1.941-0.871-1.941-1.941V76.396
		c0-1.071,0.871-1.942,1.941-1.942h4.533c1.07,0,1.942,0.871,1.942,1.942v30.509C140.192,107.975,139.32,108.846,138.25,108.846
		 M133.717,75.511c-0.487,0-0.886,0.396-0.886,0.885v30.509c0,0.488,0.398,0.884,0.886,0.884h4.533c0.487,0,0.885-0.396,0.885-0.884
		V76.396c0-0.489-0.397-0.885-0.885-0.885H133.717z"/>
	<path clip-path="url(#SVGID_2_)" fill="#181B22" d="M149.872,108.846h-4.532c-1.071,0-1.942-0.871-1.942-1.941V73.569
		c0-1.072,0.871-1.943,1.942-1.943h4.532c1.071,0,1.942,0.871,1.942,1.943v33.335C151.814,107.975,150.943,108.846,149.872,108.846
		 M145.34,72.684c-0.488,0-0.886,0.397-0.886,0.886v33.335c0,0.488,0.397,0.884,0.886,0.884h4.532c0.488,0,0.886-0.396,0.886-0.884
		V73.569c0-0.489-0.397-0.886-0.886-0.886H145.34z"/>
	<path clip-path="url(#SVGID_2_)" fill="#181B22" d="M151.604,113.115H69.228c-0.292,0-0.528-0.236-0.528-0.528V71.951
		c0-0.292,0.236-0.528,0.528-0.528s0.528,0.236,0.528,0.528v40.105h81.849c0.292,0,0.527,0.237,0.527,0.53
		C152.132,112.879,151.896,113.115,151.604,113.115"/>
	<path clip-path="url(#SVGID_2_)" fill="#181B22" d="M55.315,91.788H26.513c-0.292,0-0.528-0.236-0.528-0.529
		c0-0.292,0.236-0.529,0.528-0.529h28.802c0.292,0,0.528,0.237,0.528,0.529C55.843,91.552,55.607,91.788,55.315,91.788"/>
	<path clip-path="url(#SVGID_2_)" fill="#181B22" d="M99.527,124.474h-5.284c-0.292,0-0.529-0.236-0.529-0.528
		s0.237-0.529,0.529-0.529h5.284c0.292,0,0.528,0.237,0.528,0.529S99.819,124.474,99.527,124.474 M88.958,124.474h-5.284
		c-0.292,0-0.528-0.236-0.528-0.528s0.236-0.529,0.528-0.529h5.284c0.292,0,0.529,0.237,0.529,0.529S89.25,124.474,88.958,124.474
		 M78.39,124.474h-5.285c-0.292,0-0.528-0.236-0.528-0.528s0.236-0.529,0.528-0.529h5.285c0.292,0,0.528,0.237,0.528,0.529
		S78.682,124.474,78.39,124.474"/>
	<path clip-path="url(#SVGID_2_)" fill="#181B22" d="M101.522,39.521c-0.104,0-0.21-0.031-0.303-0.095l-4.599-3.21
		c-0.24-0.167-0.298-0.496-0.131-0.736c0.166-0.239,0.496-0.298,0.734-0.131l4.601,3.21c0.239,0.167,0.298,0.496,0.131,0.736
		C101.854,39.442,101.688,39.521,101.522,39.521"/>
	<path clip-path="url(#SVGID_2_)" fill="#181B22" d="M94.088,32.514c-0.292,0-0.528-0.236-0.528-0.528v-4.944
		c0-0.292,0.236-0.528,0.528-0.528s0.528,0.236,0.528,0.528v4.944C94.617,32.278,94.38,32.514,94.088,32.514"/>
	<path clip-path="url(#SVGID_2_)" fill="#181B22" d="M86.655,39.521c-0.167,0-0.332-0.078-0.435-0.226
		c-0.167-0.24-0.108-0.569,0.131-0.736l4.6-3.21c0.24-0.165,0.569-0.107,0.736,0.131c0.166,0.24,0.109,0.569-0.131,0.736
		l-4.599,3.21C86.865,39.489,86.759,39.521,86.655,39.521"/>
	<path clip-path="url(#SVGID_2_)" fill="#181B22" d="M151.6,16.601c0.054,0.157-0.032,0.326-0.19,0.379
		c-0.021,0.006-0.064,0.017-0.12,0.017h-0.005c-0.054,0-0.136-0.011-0.213-0.06c-0.069-0.043-0.129-0.114-0.173-0.19
		c-0.077-0.157-0.115-0.354-0.115-0.652c-0.005-0.104-0.025-0.174-0.064-0.234c-0.032-0.06-0.099-0.114-0.163-0.158
		c-0.114-0.076-0.255-0.12-0.304-0.131h-0.643v1.18c0,0.164-0.135,0.3-0.304,0.3s-0.3-0.136-0.3-0.3v-3.207
		c0-0.169,0.131-0.3,0.3-0.3h0.005h0.967c0.648,0,1.165,0.523,1.165,1.169c0,0.359-0.164,0.675-0.424,0.893
		c0.07,0.053,0.135,0.119,0.188,0.201c0.11,0.157,0.181,0.358,0.181,0.587c-0.005,0.163,0.012,0.266,0.021,0.321
		C151.496,16.442,151.567,16.508,151.6,16.601 M150.839,14.414c0-0.314-0.25-0.565-0.562-0.565h-0.668v1.12h0.668
		C150.589,14.969,150.839,14.719,150.839,14.414"/>
	<path clip-path="url(#SVGID_2_)" fill="#181B22" d="M152.614,16.655c-0.233-0.239-0.375-0.577-0.375-0.958
		c0-0.369,0.142-0.69,0.375-0.951c0.244-0.256,0.561-0.413,0.936-0.413c0.358,0,0.685,0.157,0.908,0.413
		c0.245,0.261,0.381,0.582,0.381,0.951c0,0.381-0.136,0.719-0.381,0.958c-0.224,0.255-0.55,0.412-0.908,0.412
		C153.175,17.067,152.858,16.91,152.614,16.655 M152.833,15.697c0,0.234,0.069,0.425,0.194,0.576
		c0.137,0.131,0.316,0.202,0.522,0.202c0.189,0,0.364-0.071,0.501-0.202c0.136-0.151,0.212-0.342,0.212-0.576
		c0-0.223-0.076-0.418-0.212-0.565c-0.137-0.12-0.312-0.206-0.501-0.206c-0.206,0-0.386,0.086-0.522,0.206
		C152.902,15.279,152.833,15.474,152.833,15.697"/>
	<path clip-path="url(#SVGID_2_)" fill="#181B22" d="M156.01,16.655c-0.233-0.239-0.375-0.577-0.375-0.958
		c0-0.369,0.142-0.69,0.375-0.951c0.244-0.256,0.561-0.413,0.936-0.413c0.358,0,0.685,0.157,0.908,0.413
		c0.245,0.261,0.381,0.582,0.381,0.951c0,0.381-0.136,0.719-0.381,0.958c-0.224,0.255-0.55,0.412-0.908,0.412
		C156.57,17.067,156.254,16.91,156.01,16.655 M156.229,15.697c0,0.234,0.069,0.425,0.194,0.576c0.137,0.131,0.316,0.202,0.522,0.202
		c0.189,0,0.364-0.071,0.501-0.202c0.136-0.151,0.212-0.342,0.212-0.576c0-0.223-0.076-0.418-0.212-0.565
		c-0.137-0.12-0.312-0.206-0.501-0.206c-0.206,0-0.386,0.086-0.522,0.206C156.298,15.279,156.229,15.474,156.229,15.697"/>
	<path clip-path="url(#SVGID_2_)" fill="#181B22" d="M160.276,14.632c0,0.163-0.143,0.299-0.305,0.299h-0.136v1.517
		c0.169,0,0.298,0.136,0.298,0.304c0,0.169-0.129,0.3-0.298,0.3c-0.331,0-0.604-0.272-0.604-0.604v-1.517h-0.157
		c-0.169,0-0.299-0.136-0.299-0.299c0-0.168,0.13-0.299,0.299-0.299h0.157v-0.788c0-0.169,0.136-0.3,0.305-0.3
		s0.299,0.131,0.299,0.3v0.788h0.136C160.134,14.333,160.276,14.463,160.276,14.632"/>
	<path clip-path="url(#SVGID_2_)" fill="#181B22" d="M161.184,16.638l1.332-3.17c0.064-0.151,0.238-0.223,0.396-0.157
		c0.146,0.059,0.217,0.239,0.152,0.386l-1.332,3.175c-0.049,0.115-0.163,0.18-0.278,0.18c-0.032,0-0.076-0.006-0.108-0.021
		C161.188,16.97,161.118,16.791,161.184,16.638"/>
	<path clip-path="url(#SVGID_2_)" fill="#181B22" d="M150.47,24.519c-1.1,0-1.992-0.893-1.992-1.99c0-1.099,0.893-1.992,1.992-1.992
		c1.097,0,1.989,0.893,1.989,1.992C152.459,23.625,151.566,24.519,150.47,24.519 M150.47,21.594c-0.517,0-0.936,0.419-0.936,0.935
		c0,0.514,0.419,0.933,0.936,0.933c0.515,0,0.934-0.419,0.934-0.933C151.403,22.013,150.984,21.594,150.47,21.594"/>
	<path clip-path="url(#SVGID_2_)" fill="#181B22" d="M167.516,23.057H156.79c-0.292,0-0.527-0.236-0.527-0.528
		s0.235-0.53,0.527-0.53h10.726c0.292,0,0.528,0.238,0.528,0.53S167.808,23.057,167.516,23.057"/>
	<path clip-path="url(#SVGID_2_)" fill="#181B22" d="M174.426,23.057h-4.11c-0.292,0-0.529-0.236-0.529-0.528s0.237-0.53,0.529-0.53
		h4.11c0.292,0,0.527,0.238,0.527,0.53S174.718,23.057,174.426,23.057"/>
	<path clip-path="url(#SVGID_2_)" fill="#181B22" d="M184.744,23.057h-7.079c-0.293,0-0.529-0.236-0.529-0.528
		s0.236-0.53,0.529-0.53h7.079c0.292,0,0.527,0.238,0.527,0.53S185.036,23.057,184.744,23.057"/>
	<path clip-path="url(#SVGID_2_)" fill="#181B22" d="M150.47,32.894c-1.1,0-1.992-0.893-1.992-1.991
		c0-1.098,0.893-1.992,1.992-1.992c1.097,0,1.989,0.894,1.989,1.992C152.459,32,151.566,32.894,150.47,32.894 M150.47,29.968
		c-0.517,0-0.936,0.419-0.936,0.934c0,0.514,0.419,0.934,0.936,0.934c0.515,0,0.934-0.42,0.934-0.934
		C151.403,30.388,150.984,29.968,150.47,29.968"/>
	<path clip-path="url(#SVGID_2_)" fill="#181B22" d="M163.139,31.431h-6.573c-0.292,0-0.529-0.236-0.529-0.528
		s0.237-0.529,0.529-0.529h6.573c0.292,0,0.527,0.237,0.527,0.529S163.431,31.431,163.139,31.431"/>
	<path clip-path="url(#SVGID_2_)" fill="#181B22" d="M178.352,31.431h-12.413c-0.292,0-0.528-0.236-0.528-0.528
		s0.236-0.529,0.528-0.529h12.413c0.292,0,0.528,0.237,0.528,0.529S178.644,31.431,178.352,31.431"/>
	<path clip-path="url(#SVGID_2_)" fill="#181B22" d="M184.519,31.431h-3.62c-0.292,0-0.528-0.236-0.528-0.528
		s0.236-0.529,0.528-0.529h3.62c0.292,0,0.527,0.237,0.527,0.529S184.811,31.431,184.519,31.431"/>
	<path clip-path="url(#SVGID_2_)" fill="#181B22" d="M189.088,9.306c-0.292,0-0.528-0.236-0.528-0.528V1.913
		c0-0.471-0.384-0.856-0.856-0.856h-41.918c-0.471,0-0.854,0.385-0.854,0.856v6.865c0,0.292-0.237,0.528-0.529,0.528
		s-0.529-0.236-0.529-0.528V1.913c0-1.055,0.859-1.913,1.913-1.913h41.918c1.056,0,1.912,0.858,1.912,1.913v6.865
		C189.615,9.069,189.38,9.306,189.088,9.306"/>
	<path clip-path="url(#SVGID_2_)" fill="#181B22" d="M187.703,37.313h-41.918c-1.054,0-1.913-0.858-1.913-1.912V8.777
		c0-0.292,0.238-0.529,0.53-0.529h44.685c0.292,0,0.529,0.237,0.529,0.529v26.624C189.616,36.456,188.758,37.313,187.703,37.313
		 M144.931,9.306v26.096c0,0.471,0.384,0.855,0.854,0.855h41.918c0.473,0,0.856-0.384,0.856-0.855V9.306H144.931z"/>
	<path clip-path="url(#SVGID_2_)" fill="#181B22" d="M149.58,3.472c0,0.452-0.366,0.818-0.817,0.818
		c-0.453,0-0.819-0.366-0.819-0.818c0-0.451,0.366-0.817,0.819-0.817C149.214,2.654,149.58,3.021,149.58,3.472"/>
	<path clip-path="url(#SVGID_2_)" fill="#181B22" d="M153.038,3.472c0,0.452-0.366,0.818-0.818,0.818s-0.818-0.366-0.818-0.818
		c0-0.451,0.366-0.817,0.818-0.817S153.038,3.021,153.038,3.472"/>
	<path clip-path="url(#SVGID_2_)" fill="#181B22" d="M156.496,3.472c0,0.452-0.366,0.818-0.818,0.818
		c-0.453,0-0.819-0.366-0.819-0.818c0-0.451,0.366-0.817,0.819-0.817C156.13,2.654,156.496,3.021,156.496,3.472"/>
	<path clip-path="url(#SVGID_2_)" fill="#FF687D" d="M171.385,103.173c-0.678,0-1.354-0.257-1.868-0.772l-2.523-2.522
		c-0.499-0.499-0.772-1.164-0.772-1.869s0.273-1.369,0.772-1.866l2.523-2.522c0.997-1,2.739-1,3.735,0l2.523,2.522
		c0.499,0.497,0.773,1.161,0.773,1.866s-0.274,1.37-0.773,1.869l-2.523,2.522C172.738,102.916,172.062,103.173,171.385,103.173
		 M171.385,93.902c-0.425,0-0.821,0.165-1.121,0.465l-2.523,2.521c-0.298,0.3-0.463,0.697-0.463,1.12
		c0,0.424,0.165,0.823,0.463,1.122l2.523,2.522c0.618,0.617,1.624,0.617,2.242,0l2.522-2.522c0.298-0.299,0.463-0.698,0.463-1.122
		c0-0.423-0.165-0.82-0.463-1.12l-2.522-2.521C172.205,94.067,171.809,93.902,171.385,93.902"/>
	<path clip-path="url(#SVGID_2_)" fill="#FF687D" d="M184.836,103.173c-0.678,0-1.354-0.257-1.868-0.772l-2.523-2.522
		c-0.499-0.499-0.772-1.163-0.772-1.869c0-0.705,0.273-1.369,0.772-1.866l2.523-2.522c1.029-1.029,2.706-1.031,3.735,0l2.523,2.522
		c0.499,0.497,0.773,1.161,0.773,1.866c0,0.706-0.274,1.37-0.773,1.869l-2.523,2.522
		C186.189,102.916,185.513,103.173,184.836,103.173 M184.836,93.903c-0.406,0-0.813,0.154-1.121,0.464l-2.522,2.521
		c-0.3,0.3-0.464,0.697-0.464,1.12c0,0.424,0.165,0.823,0.464,1.122l2.522,2.522c0.618,0.617,1.624,0.617,2.242,0l2.521-2.522
		c0.299-0.299,0.464-0.698,0.464-1.122c0-0.423-0.164-0.82-0.464-1.12l-2.521-2.521C185.647,94.058,185.241,93.903,184.836,93.903"
		/>
	<path clip-path="url(#SVGID_2_)" fill="#62BE24" d="M47.125,133.698c-1.582,0-2.869-1.288-2.869-2.871
		c0-1.582,1.287-2.87,2.869-2.87c1.583,0,2.87,1.288,2.87,2.87C49.995,132.41,48.708,133.698,47.125,133.698 M47.125,129.015
		c-0.999,0-1.812,0.813-1.812,1.813s0.813,1.814,1.812,1.814c1,0,1.813-0.814,1.813-1.814S48.125,129.015,47.125,129.015"/>
	<path clip-path="url(#SVGID_2_)" fill="#FF687D" d="M72.294,23.619c-1.583,0-2.87-1.288-2.87-2.871c0-1.582,1.287-2.87,2.87-2.87
		c1.582,0,2.87,1.288,2.87,2.87C75.165,22.332,73.876,23.619,72.294,23.619 M72.294,18.936c-1,0-1.813,0.813-1.813,1.813
		s0.813,1.814,1.813,1.814s1.813-0.814,1.813-1.814S73.294,18.936,72.294,18.936"/>
	<path clip-path="url(#SVGID_2_)" fill="#62BE24" d="M129.962,34.655c-1.582,0-2.87-1.288-2.87-2.871c0-1.582,1.288-2.87,2.87-2.87
		c1.583,0,2.87,1.288,2.87,2.87C132.832,33.368,131.545,34.655,129.962,34.655 M129.962,29.972c-1,0-1.813,0.813-1.813,1.813
		s0.813,1.814,1.813,1.814s1.813-0.814,1.813-1.814S130.962,29.972,129.962,29.972"/>
	<path clip-path="url(#SVGID_2_)" fill="#62BE24" d="M24.731,122.288c-0.423,0-0.821-0.165-1.121-0.464l-2.048-2.048
		c-0.618-0.618-0.618-1.625-0.001-2.243l2.049-2.047c0.6-0.599,1.644-0.599,2.243,0l2.048,2.047c0.618,0.618,0.618,1.625,0,2.243
		l-2.049,2.048C25.553,122.123,25.155,122.288,24.731,122.288 M24.731,116.078c-0.141,0-0.273,0.055-0.373,0.154l-2.049,2.048
		c-0.206,0.207-0.206,0.542,0,0.749l2.049,2.048c0.2,0.2,0.548,0.2,0.746,0l2.05-2.048c0.206-0.207,0.206-0.542,0-0.749
		l-2.049-2.048C25.004,116.133,24.873,116.078,24.731,116.078"/>
	<path clip-path="url(#SVGID_2_)" fill="#FFDA68" d="M33.378,122.288c-0.423,0-0.821-0.165-1.121-0.464l-2.048-2.048
		c-0.618-0.618-0.618-1.625-0.001-2.243l2.049-2.047c0.6-0.599,1.644-0.599,2.243,0l2.048,2.047c0.618,0.618,0.618,1.625,0,2.243
		l-2.049,2.048C34.201,122.123,33.803,122.288,33.378,122.288 M33.378,116.078c-0.141,0-0.273,0.055-0.373,0.154l-2.049,2.048
		c-0.206,0.207-0.206,0.542,0,0.749l2.049,2.048c0.2,0.2,0.548,0.2,0.746,0l2.05-2.048c0.206-0.207,0.206-0.542,0-0.749
		l-2.049-2.048C33.651,116.133,33.521,116.078,33.378,116.078"/>
	<path clip-path="url(#SVGID_2_)" fill="#181B22" d="M32.079,83.527h-5.128c-0.293,0-0.53-0.236-0.53-0.528s0.237-0.529,0.53-0.529
		h5.128c0.292,0,0.529,0.237,0.529,0.529S32.371,83.527,32.079,83.527 M21.666,83.527h-5.284c-0.292,0-0.528-0.236-0.528-0.528
		s0.236-0.529,0.528-0.529h5.284c0.292,0,0.529,0.237,0.529,0.529S21.958,83.527,21.666,83.527 M11.097,83.527H5.813
		c-0.292,0-0.528-0.236-0.528-0.528s0.236-0.529,0.528-0.529h5.284c0.292,0,0.528,0.237,0.528,0.529S11.389,83.527,11.097,83.527"/>
	<path clip-path="url(#SVGID_2_)" fill="#181B22" d="M5.812,87.612c-0.113,0-0.228-0.036-0.324-0.112l-5.284-4.124
		C0.072,83.273-0.003,83.116,0,82.95c0.003-0.167,0.084-0.321,0.218-0.42l5.285-3.824c0.237-0.17,0.566-0.119,0.738,0.118
		c0.171,0.236,0.118,0.565-0.118,0.738l-4.715,3.411l4.73,3.692c0.23,0.179,0.271,0.512,0.091,0.742
		C6.124,87.542,5.969,87.612,5.812,87.612"/>
	<path clip-path="url(#SVGID_2_)" fill="#181B22" d="M13.151,96.711c0.947,0,1.716,0.768,1.716,1.716
		c0,0.947-0.769,1.716-1.716,1.716c-0.948,0-1.717-0.769-1.717-1.716C11.434,97.479,12.203,96.711,13.151,96.711"/>
	<path clip-path="url(#SVGID_2_)" fill="#181B22" d="M132.304,128.074c0.947,0,1.716,0.769,1.716,1.717
		c0,0.947-0.769,1.716-1.716,1.716c-0.948,0-1.716-0.769-1.716-1.716C130.588,128.843,131.355,128.074,132.304,128.074"/>
	<path clip-path="url(#SVGID_2_)" fill="#181B22" d="M103.67,11.958c0.946,0,1.716,0.769,1.716,1.717
		c0,0.947-0.77,1.716-1.716,1.716c-0.948,0-1.717-0.769-1.717-1.716C101.953,12.727,102.722,11.958,103.67,11.958"/>
	<path clip-path="url(#SVGID_2_)" fill="#181B22" d="M176.872,77.196c0.947,0,1.717,0.768,1.717,1.716
		c0,0.947-0.77,1.716-1.717,1.716s-1.717-0.769-1.717-1.716C175.155,77.964,175.925,77.196,176.872,77.196"/>
	<path clip-path="url(#SVGID_2_)" fill="#181B22" d="M14.867,51.488c0.948,0,1.716,0.769,1.716,1.717
		c0,0.947-0.768,1.716-1.716,1.716c-0.948,0-1.716-0.769-1.716-1.716C13.151,52.257,13.919,51.488,14.867,51.488"/>
	<path clip-path="url(#SVGID_2_)" fill="#181B22" d="M29.055,139.787c0.947,0,1.716,0.768,1.716,1.716s-0.769,1.716-1.716,1.716
		c-0.948,0-1.716-0.768-1.716-1.716S28.107,139.787,29.055,139.787"/>
	<path clip-path="url(#SVGID_2_)" fill="#181B22" d="M173.51,54.347c0.946,0,1.716,0.769,1.716,1.717
		c0,0.947-0.77,1.716-1.716,1.716c-0.948,0-1.717-0.769-1.717-1.716C171.793,55.116,172.562,54.347,173.51,54.347"/>
	<path clip-path="url(#SVGID_2_)" fill="#181B22" d="M57.007,111.313c-0.104,0-0.21-0.031-0.302-0.096l-3.277-2.287
		c-0.239-0.167-0.298-0.496-0.131-0.735s0.496-0.299,0.735-0.132l3.278,2.288c0.239,0.167,0.298,0.496,0.131,0.734
		C57.338,111.234,57.173,111.313,57.007,111.313"/>
	<path clip-path="url(#SVGID_2_)" fill="#181B22" d="M51.71,106.322c-0.292,0-0.528-0.236-0.528-0.529v-3.522
		c0-0.292,0.236-0.528,0.528-0.528c0.293,0,0.529,0.236,0.529,0.528v3.522C52.24,106.086,52.003,106.322,51.71,106.322"/>
	<path clip-path="url(#SVGID_2_)" fill="#181B22" d="M46.415,111.313c-0.167,0-0.331-0.079-0.434-0.228
		c-0.167-0.238-0.108-0.567,0.131-0.734l3.277-2.288c0.239-0.166,0.569-0.106,0.736,0.132c0.167,0.239,0.108,0.568-0.131,0.735
		l-3.277,2.287C46.625,111.282,46.519,111.313,46.415,111.313"/>
	<path clip-path="url(#SVGID_2_)" fill="#181B22" d="M114.738,40.627c-0.292,0-0.527-0.237-0.527-0.529v-5.284
		c0-0.292,0.235-0.528,0.527-0.528s0.529,0.236,0.529,0.528v5.284C115.268,40.39,115.03,40.627,114.738,40.627 M114.738,30.058
		c-0.292,0-0.527-0.236-0.527-0.528v-5.285c0-0.292,0.235-0.529,0.527-0.529s0.529,0.237,0.529,0.529v5.285
		C115.268,29.822,115.03,30.058,114.738,30.058 M114.738,19.489c-0.292,0-0.527-0.236-0.527-0.528v-3.002
		c0-0.292,0.235-0.529,0.527-0.529h2.283c0.292,0,0.528,0.237,0.528,0.529s-0.236,0.528-0.528,0.528h-1.754v2.474
		C115.268,19.253,115.03,19.489,114.738,19.489 M138.157,16.487h-5.284c-0.292,0-0.527-0.236-0.527-0.528s0.235-0.529,0.527-0.529
		h5.284c0.292,0,0.529,0.237,0.529,0.529S138.449,16.487,138.157,16.487 M127.59,16.487h-5.284c-0.292,0-0.528-0.236-0.528-0.528
		s0.236-0.529,0.528-0.529h5.284c0.292,0,0.527,0.237,0.527,0.529S127.882,16.487,127.59,16.487"/>
	<path clip-path="url(#SVGID_2_)" fill="#181B22" d="M133.378,139.088h-5.285c-0.292,0-0.527-0.235-0.527-0.527
		s0.235-0.528,0.527-0.528h5.285c0.292,0,0.528,0.236,0.528,0.528S133.67,139.088,133.378,139.088 M122.809,139.088h-5.283
		c-0.293,0-0.528-0.235-0.528-0.527s0.235-0.528,0.528-0.528h5.283c0.292,0,0.529,0.236,0.529,0.528
		S123.101,139.088,122.809,139.088 M112.24,139.088h-5.284c-0.292,0-0.529-0.235-0.529-0.527s0.237-0.528,0.529-0.528h5.284
		c0.292,0,0.528,0.236,0.528,0.528S112.532,139.088,112.24,139.088 M104.652,136.108c-0.292,0-0.528-0.236-0.528-0.528v-5.284
		c0-0.293,0.236-0.529,0.528-0.529s0.527,0.236,0.527,0.529v5.284C105.18,135.872,104.944,136.108,104.652,136.108"/>
	<path clip-path="url(#SVGID_2_)" fill="#181B22" d="M60.162,79.951h-5.285c-0.292,0-0.528-0.236-0.528-0.528
		s0.236-0.529,0.528-0.529h5.285c0.292,0,0.529,0.237,0.529,0.529S60.454,79.951,60.162,79.951 M49.592,79.951h-5.284
		c-0.292,0-0.529-0.236-0.529-0.528s0.237-0.529,0.529-0.529h5.284c0.292,0,0.528,0.237,0.528,0.529S49.884,79.951,49.592,79.951
		 M39.423,79.552c-0.292,0-0.528-0.237-0.528-0.529v-5.284c0-0.292,0.236-0.528,0.528-0.528s0.528,0.236,0.528,0.528v5.284
		C39.952,79.314,39.715,79.552,39.423,79.552 M39.423,68.983c-0.292,0-0.528-0.236-0.528-0.528v-5.284
		c0-0.292,0.236-0.528,0.528-0.528s0.528,0.236,0.528,0.528v5.284C39.952,68.747,39.715,68.983,39.423,68.983 M39.423,58.415
		c-0.292,0-0.528-0.236-0.528-0.528v-5.285c0-0.292,0.236-0.529,0.528-0.529s0.528,0.237,0.528,0.529v5.285
		C39.952,58.179,39.715,58.415,39.423,58.415"/>
</g>
</svg>
