<?xml version="1.0" encoding="utf-8"?>
<!-- Generator: Adobe Illustrator 16.0.0, SVG Export Plug-In . SVG Version: 6.00 Build 0)  -->
<!DOCTYPE svg PUBLIC "-//W3C//DTD SVG 1.1//EN" "http://www.w3.org/Graphics/SVG/1.1/DTD/svg11.dtd">
<svg version="1.1" id="Layer_1" xmlns="http://www.w3.org/2000/svg" xmlns:xlink="http://www.w3.org/1999/xlink" x="0px" y="0px"
	viewBox="0 0 190 150" enable-background="new 0 0 190 150" xml:space="preserve">
<g>
	<defs>
		<rect id="SVGID_1_" width="190" height="150"/>
	</defs>
	<clipPath id="SVGID_2_">
		<use xlink:href="#SVGID_1_"  overflow="visible"/>
	</clipPath>
	<path clip-path="url(#SVGID_2_)" fill="#181B22" d="M180.196,43.145H159.87c-1.414,0-2.563-1.15-2.563-2.564V2.563
		c0-1.414,1.148-2.564,2.563-2.564h20.326c1.414,0,2.565,1.15,2.565,2.564V40.58C182.762,41.994,181.61,43.145,180.196,43.145
		 M159.87,1.062c-0.827,0-1.502,0.674-1.502,1.502V40.58c0,0.828,0.675,1.502,1.502,1.502h20.326c0.829,0,1.503-0.674,1.503-1.502
		V2.563c0-0.828-0.674-1.502-1.503-1.502H159.87z"/>
	<path clip-path="url(#SVGID_2_)" fill="#181B22" d="M175.058,38.783c-1.085,0-1.968-0.884-1.968-1.969s0.883-1.968,1.968-1.968
		c1.086,0,1.97,0.883,1.97,1.968S176.144,38.783,175.058,38.783 M175.058,35.908c-0.5,0-0.905,0.406-0.905,0.906
		s0.405,0.907,0.905,0.907s0.907-0.407,0.907-0.907S175.558,35.908,175.058,35.908"/>
	<path clip-path="url(#SVGID_2_)" fill="#181B22" d="M167.212,6.66c0,0.442-0.357,0.801-0.801,0.801
		c-0.442,0-0.802-0.359-0.802-0.801c0-0.442,0.359-0.801,0.802-0.801C166.854,5.858,167.212,6.217,167.212,6.66"/>
	<path clip-path="url(#SVGID_2_)" fill="#181B22" d="M170.598,6.66c0,0.442-0.357,0.801-0.801,0.801
		c-0.441,0-0.802-0.359-0.802-0.801c0-0.442,0.36-0.801,0.802-0.801C170.24,5.858,170.598,6.217,170.598,6.66"/>
	<path clip-path="url(#SVGID_2_)" fill="#181B22" d="M173.983,6.66c0,0.442-0.357,0.801-0.801,0.801
		c-0.442,0-0.802-0.359-0.802-0.801c0-0.442,0.359-0.801,0.802-0.801C173.626,5.858,173.983,6.217,173.983,6.66"/>
	<path clip-path="url(#SVGID_2_)" fill="#181B22" d="M175.408,11.549h-10.75c-0.293,0-0.529-0.237-0.529-0.531
		c0-0.293,0.236-0.531,0.529-0.531h10.75c0.293,0,0.53,0.238,0.53,0.531C175.938,11.312,175.701,11.549,175.408,11.549"/>
	<path clip-path="url(#SVGID_2_)" fill="#181B22" d="M175.408,15.701h-10.75c-0.293,0-0.529-0.237-0.529-0.531
		c0-0.293,0.236-0.531,0.529-0.531h10.75c0.293,0,0.53,0.238,0.53,0.531C175.938,15.463,175.701,15.701,175.408,15.701"/>
	<path clip-path="url(#SVGID_2_)" fill="#181B22" d="M175.408,19.854h-10.75c-0.293,0-0.529-0.237-0.529-0.531
		c0-0.293,0.236-0.531,0.529-0.531h10.75c0.293,0,0.53,0.238,0.53,0.531C175.938,19.617,175.701,19.854,175.408,19.854"/>
	<path clip-path="url(#SVGID_2_)" fill="#181B22" d="M175.408,24.006h-10.75c-0.293,0-0.529-0.237-0.529-0.531
		c0-0.293,0.236-0.531,0.529-0.531h10.75c0.293,0,0.53,0.238,0.53,0.531C175.938,23.769,175.701,24.006,175.408,24.006"/>
	<path clip-path="url(#SVGID_2_)" fill="#181B22" d="M175.408,28.159h-10.75c-0.293,0-0.529-0.237-0.529-0.531
		c0-0.293,0.236-0.531,0.529-0.531h10.75c0.293,0,0.53,0.238,0.53,0.531C175.938,27.921,175.701,28.159,175.408,28.159"/>
	<path clip-path="url(#SVGID_2_)" fill="#181B22" d="M175.408,32.311h-10.75c-0.293,0-0.529-0.238-0.529-0.531
		s0.236-0.531,0.529-0.531h10.75c0.293,0,0.53,0.238,0.53,0.531S175.701,32.311,175.408,32.311"/>
	<path clip-path="url(#SVGID_2_)" fill="#181B22" d="M157.205,39.079h-5.251c-1.04,0-1.886-0.846-1.886-1.886V7.38
		c0-1.04,0.846-1.886,1.886-1.886h5.505c0.293,0,0.53,0.237,0.53,0.531c0,0.293-0.237,0.531-0.53,0.531h-5.505
		c-0.454,0-0.823,0.37-0.823,0.824v29.812c0,0.454,0.369,0.824,0.823,0.824h5.251c0.293,0,0.53,0.238,0.53,0.531
		S157.498,39.079,157.205,39.079"/>
	<path clip-path="url(#SVGID_2_)" fill="#181B22" d="M154.579,11.321c0,0.443-0.357,0.801-0.801,0.801
		c-0.441,0-0.801-0.358-0.801-0.801c0-0.442,0.359-0.801,0.801-0.801C154.222,10.52,154.579,10.879,154.579,11.321"/>
	<path clip-path="url(#SVGID_2_)" fill="#181B22" d="M188.114,39.079h-5.252c-0.294,0-0.53-0.238-0.53-0.531s0.236-0.531,0.53-0.531
		h5.252c0.454,0,0.824-0.37,0.824-0.824V7.38c0-0.454-0.37-0.824-0.824-0.824h-5.506c-0.294,0-0.531-0.238-0.531-0.531
		c0-0.294,0.237-0.531,0.531-0.531h5.506c1.039,0,1.887,0.846,1.887,1.886v29.812C190.001,38.232,189.153,39.079,188.114,39.079"/>
	<path clip-path="url(#SVGID_2_)" fill="#181B22" d="M185.488,11.321c0,0.443,0.358,0.801,0.802,0.801
		c0.441,0,0.801-0.358,0.801-0.801c0-0.442-0.359-0.801-0.801-0.801C185.847,10.52,185.488,10.879,185.488,11.321"/>
	<path clip-path="url(#SVGID_2_)" fill="#181B22" d="M106.41,118.537c-17.414,0-35.924-2.664-35.924-7.599V93.159h1.062v17.779
		c0,3.093,14.318,6.536,34.862,6.536c20.544,0,34.862-3.443,34.862-6.536V93.159h1.063v17.779
		C142.335,115.873,123.825,118.537,106.41,118.537"/>
	<path clip-path="url(#SVGID_2_)" fill="#181B22" d="M106.41,100.757c-17.414,0-35.924-2.664-35.924-7.598
		c0-1.25,1.172-2.398,3.483-3.412l0.427,0.972c-1.838,0.806-2.848,1.672-2.848,2.44c0,3.091,14.318,6.535,34.862,6.535
		c20.544,0,34.862-3.444,34.862-6.535c0-0.828-1.16-1.758-3.265-2.616l0.399-0.982c2.606,1.062,3.928,2.272,3.928,3.599
		C142.335,98.093,123.825,100.757,106.41,100.757"/>
	<path clip-path="url(#SVGID_2_)" fill="#181B22" d="M106.41,94.91c-17.414,0-35.924-2.663-35.924-7.598v-17.78h1.062v17.78
		c0,3.092,14.318,6.536,34.862,6.536c20.544,0,34.862-3.444,34.862-6.536v-17.78h1.063v17.78
		C142.335,92.247,123.825,94.91,106.41,94.91"/>
	<path clip-path="url(#SVGID_2_)" fill="#181B22" d="M106.41,77.13c-17.414,0-35.924-2.663-35.924-7.598
		c0-1.023,0.782-1.978,2.322-2.84l0.519,0.927c-1.164,0.65-1.779,1.312-1.779,1.913c0,3.092,14.318,6.536,34.862,6.536
		c20.544,0,34.862-3.444,34.862-6.536c0-0.617-0.647-1.296-1.871-1.963l0.508-0.932c1.608,0.877,2.426,1.85,2.426,2.895
		C142.335,74.467,123.825,77.13,106.41,77.13"/>
	<path clip-path="url(#SVGID_2_)" fill="#181B22" d="M99.185,88.333c-1.234,0-2.239-1.004-2.239-2.24s1.005-2.241,2.239-2.241
		c1.235,0,2.24,1.005,2.24,2.241S100.42,88.333,99.185,88.333 M99.185,84.914c-0.649,0-1.179,0.528-1.179,1.179
		s0.529,1.178,1.179,1.178s1.18-0.527,1.18-1.178S99.834,84.914,99.185,84.914"/>
	<path clip-path="url(#SVGID_2_)" fill="#181B22" d="M106.41,88.333c-1.234,0-2.239-1.004-2.239-2.24s1.005-2.241,2.239-2.241
		c1.235,0,2.24,1.005,2.24,2.241S107.646,88.333,106.41,88.333 M106.41,84.914c-0.648,0-1.179,0.528-1.179,1.179
		s0.53,1.178,1.179,1.178c0.65,0,1.18-0.527,1.18-1.178S107.061,84.914,106.41,84.914"/>
	<path clip-path="url(#SVGID_2_)" fill="#181B22" d="M106.41,111.332c-1.234,0-2.239-1.004-2.239-2.24s1.005-2.241,2.239-2.241
		c1.235,0,2.24,1.005,2.24,2.241S107.646,111.332,106.41,111.332 M106.41,107.913c-0.648,0-1.179,0.529-1.179,1.179
		c0,0.65,0.53,1.178,1.179,1.178c0.65,0,1.18-0.527,1.18-1.178C107.59,108.442,107.061,107.913,106.41,107.913"/>
	<path clip-path="url(#SVGID_2_)" fill="#181B22" d="M113.636,111.332c-1.234,0-2.239-1.004-2.239-2.24s1.005-2.241,2.239-2.241
		c1.236,0,2.24,1.005,2.24,2.241S114.872,111.332,113.636,111.332 M113.636,107.913c-0.648,0-1.179,0.529-1.179,1.179
		c0,0.65,0.53,1.178,1.179,1.178c0.65,0,1.18-0.527,1.18-1.178C114.815,108.442,114.286,107.913,113.636,107.913"/>
	<path clip-path="url(#SVGID_2_)" fill="#181B22" d="M106.41,71.96c-17.414,0-35.924-2.664-35.924-7.598v-17.78h1.062v17.78
		c0,3.092,14.318,6.536,34.862,6.536c20.544,0,34.862-3.444,34.862-6.536v-17.78h1.063v17.78
		C142.335,69.296,123.825,71.96,106.41,71.96"/>
	<path clip-path="url(#SVGID_2_)" fill="#181B22" d="M106.41,54.18c-17.414,0-35.924-2.664-35.924-7.598
		c0-3.465,9.128-5.355,14.569-6.173l0.157,1.049c-10.085,1.518-13.664,3.709-13.664,5.124c0,3.091,14.318,6.536,34.862,6.536
		c20.544,0,34.862-3.445,34.862-6.536c0-1.442-3.684-3.666-14.068-5.183l0.153-1.051c5.593,0.818,14.978,2.714,14.978,6.234
		C142.335,51.516,123.825,54.18,106.41,54.18"/>
	<path clip-path="url(#SVGID_2_)" fill="#181B22" d="M99.185,64.693c-1.234,0-2.239-1.004-2.239-2.24s1.005-2.241,2.239-2.241
		c1.235,0,2.24,1.005,2.24,2.241S100.42,64.693,99.185,64.693 M99.185,61.274c-0.649,0-1.179,0.529-1.179,1.179
		s0.529,1.178,1.179,1.178s1.18-0.528,1.18-1.178S99.834,61.274,99.185,61.274"/>
	<path clip-path="url(#SVGID_2_)" fill="#181B22" d="M113.636,64.693c-1.234,0-2.239-1.004-2.239-2.24s1.005-2.241,2.239-2.241
		c1.236,0,2.24,1.005,2.24,2.241S114.872,64.693,113.636,64.693 M113.636,61.274c-0.648,0-1.179,0.529-1.179,1.179
		s0.53,1.178,1.179,1.178c0.65,0,1.18-0.528,1.18-1.178S114.286,61.274,113.636,61.274"/>
	<path clip-path="url(#SVGID_2_)" fill="#181B22" d="M106.41,50.787c-12.771,0-25.7-1.828-25.7-5.322
		c0-1.188,1.365-2.182,4.175-3.038l0.308,1.016c-2.523,0.769-3.422,1.549-3.422,2.022c0,1.78,9.373,4.26,24.639,4.26
		c15.267,0,24.641-2.48,24.641-4.26c0-0.515-1.031-1.356-3.918-2.167l0.288-1.023c3.156,0.888,4.69,1.932,4.69,3.19
		C132.111,48.959,119.183,50.787,106.41,50.787"/>
	<path clip-path="url(#SVGID_2_)" fill="#181B22" d="M105.97,50.787c-15.661,0-20.456-2.128-20.652-2.219l-0.309-0.142v-8.975h1.062
		v8.27c1.275,0.446,6.681,2.004,19.898,2.004c13.355,0,19.363-1.579,20.78-2.021v-8.253h1.063v8.998l-0.34,0.132
		C127.241,48.671,121.614,50.787,105.97,50.787"/>
	<path clip-path="url(#SVGID_2_)" fill="#181B22" d="M106.41,44.036c-8.603,0-21.401-1.251-21.401-4.697
		c0-3.447,12.798-4.699,21.401-4.699c8.604,0,21.401,1.252,21.401,4.699C127.812,42.785,115.014,44.036,106.41,44.036
		 M106.41,35.702c-12.602,0-20.34,2.118-20.34,3.637c0,1.518,7.738,3.635,20.34,3.635c12.604,0,20.341-2.117,20.341-3.635
		C126.751,37.819,119.014,35.702,106.41,35.702"/>
	<path clip-path="url(#SVGID_2_)" fill="#181B22" d="M99.185,112.69c-1.983,0-3.6-1.615-3.6-3.599c0-1.984,1.616-3.601,3.6-3.601
		c1.984,0,3.6,1.616,3.6,3.601C102.784,111.075,101.169,112.69,99.185,112.69 M99.185,106.554c-1.398,0-2.538,1.139-2.538,2.538
		s1.14,2.538,2.538,2.538s2.537-1.139,2.537-2.538S100.583,106.554,99.185,106.554"/>
	<path clip-path="url(#SVGID_2_)" fill="#181B22" d="M113.636,89.69c-1.983,0-3.599-1.614-3.599-3.598
		c0-1.984,1.615-3.601,3.599-3.601c1.984,0,3.601,1.616,3.601,3.601C117.236,88.076,115.62,89.69,113.636,89.69 M113.636,83.555
		c-1.398,0-2.537,1.138-2.537,2.538c0,1.398,1.139,2.537,2.537,2.537c1.399,0,2.538-1.139,2.538-2.537
		C116.174,84.692,115.035,83.555,113.636,83.555"/>
	<path clip-path="url(#SVGID_2_)" fill="#181B22" d="M106.41,66.051c-1.983,0-3.6-1.614-3.6-3.598c0-1.984,1.616-3.6,3.6-3.6
		c1.984,0,3.6,1.616,3.6,3.6C110.01,64.437,108.395,66.051,106.41,66.051 M106.41,59.915c-1.398,0-2.538,1.138-2.538,2.538
		c0,1.398,1.14,2.537,2.538,2.537s2.537-1.139,2.537-2.537C108.947,61.053,107.809,59.915,106.41,59.915"/>
	<path clip-path="url(#SVGID_2_)" fill="#181B22" d="M158.332,112.472c-0.293,0-0.529-0.236-0.529-0.53v-2.987
		c0-2.297-1.869-4.166-4.167-4.166c-2.297,0-4.166,1.869-4.166,4.166v2.987c0,0.294-0.238,0.53-0.532,0.53
		c-0.293,0-0.53-0.236-0.53-0.53v-2.987c0-2.882,2.345-5.229,5.229-5.229c2.883,0,5.228,2.347,5.228,5.229v2.987
		C158.863,112.235,158.626,112.472,158.332,112.472"/>
	<path clip-path="url(#SVGID_2_)" fill="#181B22" d="M157.946,124.315h-8.835c-1.463,0-2.652-1.19-2.652-2.654v-7.372
		c0-1.464,1.189-2.654,2.652-2.654h8.835c1.465,0,2.654,1.19,2.654,2.654v7.372C160.601,123.125,159.411,124.315,157.946,124.315
		 M149.111,112.697c-0.878,0-1.592,0.714-1.592,1.592v7.372c0,0.878,0.714,1.593,1.592,1.593h8.835c0.878,0,1.594-0.715,1.594-1.593
		v-7.372c0-0.878-0.716-1.592-1.594-1.592H149.111z"/>
	<path clip-path="url(#SVGID_2_)" fill="#181B22" d="M153.529,119.677c-0.938,0-1.701-0.763-1.701-1.7
		c0-0.938,0.764-1.702,1.701-1.702c0.938,0,1.701,0.764,1.701,1.702C155.23,118.914,154.468,119.677,153.529,119.677
		 M153.529,117.336c-0.353,0-0.64,0.287-0.64,0.641c0,0.352,0.287,0.639,0.64,0.639c0.354,0,0.641-0.287,0.641-0.639
		C154.17,117.623,153.883,117.336,153.529,117.336"/>
	<path clip-path="url(#SVGID_2_)" fill="#181B22" d="M126.948,11.76c-0.104,0-0.212-0.031-0.304-0.095l-4.118-2.875
		c-0.24-0.168-0.299-0.499-0.131-0.739c0.17-0.243,0.5-0.298,0.739-0.132l4.118,2.875c0.239,0.168,0.3,0.499,0.132,0.739
		C127.28,11.681,127.115,11.76,126.948,11.76"/>
	<path clip-path="url(#SVGID_2_)" fill="#181B22" d="M120.292,5.487c-0.294,0-0.53-0.237-0.53-0.531V0.53
		c0-0.293,0.236-0.53,0.53-0.53c0.293,0,0.53,0.237,0.53,0.53v4.426C120.822,5.25,120.585,5.487,120.292,5.487"/>
	<path clip-path="url(#SVGID_2_)" fill="#181B22" d="M113.636,11.76c-0.167,0-0.331-0.079-0.436-0.227
		c-0.167-0.24-0.108-0.571,0.132-0.739l4.118-2.875c0.238-0.166,0.57-0.111,0.74,0.132c0.168,0.24,0.107,0.571-0.133,0.739
		l-4.117,2.875C113.848,11.729,113.742,11.76,113.636,11.76"/>
	<path clip-path="url(#SVGID_2_)" fill="#181B22" d="M53.147,59.302H39.802c-0.878,0-1.593-0.714-1.593-1.592V44.039
		c0-0.878,0.715-1.593,1.593-1.593h13.345c0.879,0,1.593,0.715,1.593,1.593V57.71C54.74,58.588,54.026,59.302,53.147,59.302
		 M39.802,43.508c-0.293,0-0.531,0.238-0.531,0.531V57.71c0,0.292,0.238,0.53,0.531,0.53h13.345c0.293,0,0.531-0.238,0.531-0.53
		V44.039c0-0.293-0.238-0.531-0.531-0.531H39.802z"/>
	<path clip-path="url(#SVGID_2_)" fill="#181B22" d="M46.439,50.42c-1.432,0-2.596-1.165-2.596-2.596
		c0-1.432,1.164-2.597,2.596-2.597c1.432,0,2.597,1.165,2.597,2.597C49.036,49.255,47.871,50.42,46.439,50.42 M46.439,46.29
		c-0.846,0-1.534,0.688-1.534,1.535c0,0.846,0.688,1.535,1.534,1.535c0.847,0,1.535-0.689,1.535-1.535
		C47.974,46.978,47.286,46.29,46.439,46.29"/>
	<path clip-path="url(#SVGID_2_)" fill="#181B22" d="M52.027,53.869H40.851c-0.293,0-0.53-0.237-0.53-0.531
		c0-0.293,0.237-0.531,0.53-0.531h11.176c0.293,0,0.53,0.238,0.53,0.531C52.557,53.632,52.32,53.869,52.027,53.869"/>
	<path clip-path="url(#SVGID_2_)" fill="#181B22" d="M50.87,56.379h-8.861c-0.294,0-0.532-0.237-0.532-0.531
		c0-0.293,0.238-0.531,0.532-0.531h8.861c0.294,0,0.531,0.238,0.531,0.531C51.4,56.142,51.164,56.379,50.87,56.379"/>
	<path clip-path="url(#SVGID_2_)" fill="#181B22" d="M56.241,63.107H36.708c-1.464,0-2.654-1.19-2.654-2.654V41.294
		c0-1.464,1.19-2.654,2.654-2.654h19.534c1.464,0,2.654,1.19,2.654,2.654v19.159C58.896,61.917,57.706,63.107,56.241,63.107
		 M36.708,39.703c-0.878,0-1.593,0.714-1.593,1.592v19.159c0,0.878,0.715,1.593,1.593,1.593h19.534c0.878,0,1.593-0.715,1.593-1.593
		V41.294c0-0.878-0.715-1.592-1.593-1.592H36.708z"/>
	<path clip-path="url(#SVGID_2_)" fill="#181B22" d="M36.225,39.703c-0.293,0-0.53-0.237-0.53-0.531v-3.255
		c0-0.294,0.237-0.531,0.53-0.531c0.294,0,0.531,0.237,0.531,0.531v3.255C36.756,39.465,36.519,39.703,36.225,39.703"/>
	<path clip-path="url(#SVGID_2_)" fill="#181B22" d="M39.598,39.703c-0.294,0-0.531-0.237-0.531-0.531v-3.255
		c0-0.294,0.237-0.531,0.531-0.531c0.293,0,0.53,0.237,0.53,0.531v3.255C40.128,39.465,39.891,39.703,39.598,39.703"/>
	<path clip-path="url(#SVGID_2_)" fill="#181B22" d="M42.97,39.703c-0.293,0-0.531-0.237-0.531-0.531v-3.255
		c0-0.294,0.238-0.531,0.531-0.531s0.53,0.237,0.53,0.531v3.255C43.5,39.465,43.263,39.703,42.97,39.703"/>
	<path clip-path="url(#SVGID_2_)" fill="#181B22" d="M46.342,39.703c-0.293,0-0.53-0.237-0.53-0.531v-3.255
		c0-0.294,0.237-0.531,0.53-0.531c0.294,0,0.531,0.237,0.531,0.531v3.255C46.873,39.465,46.636,39.703,46.342,39.703"/>
	<path clip-path="url(#SVGID_2_)" fill="#181B22" d="M49.715,39.703c-0.294,0-0.531-0.237-0.531-0.531v-3.255
		c0-0.294,0.237-0.531,0.531-0.531c0.293,0,0.53,0.237,0.53,0.531v3.255C50.245,39.465,50.008,39.703,49.715,39.703"/>
	<path clip-path="url(#SVGID_2_)" fill="#181B22" d="M53.086,39.703c-0.294,0-0.531-0.237-0.531-0.531v-3.255
		c0-0.294,0.237-0.531,0.531-0.531c0.293,0,0.53,0.237,0.53,0.531v3.255C53.616,39.465,53.379,39.703,53.086,39.703"/>
	<path clip-path="url(#SVGID_2_)" fill="#181B22" d="M56.458,39.703c-0.293,0-0.53-0.237-0.53-0.531v-3.255
		c0-0.294,0.237-0.531,0.53-0.531s0.531,0.237,0.531,0.531v3.255C56.989,39.465,56.751,39.703,56.458,39.703"/>
	<path clip-path="url(#SVGID_2_)" fill="#181B22" d="M61.838,41.075h-3.256c-0.293,0-0.53-0.237-0.53-0.531
		c0-0.293,0.237-0.531,0.53-0.531h3.256c0.293,0,0.53,0.238,0.53,0.531C62.368,40.838,62.131,41.075,61.838,41.075"/>
	<path clip-path="url(#SVGID_2_)" fill="#181B22" d="M61.838,44.448h-3.256c-0.293,0-0.53-0.238-0.53-0.531s0.237-0.531,0.53-0.531
		h3.256c0.293,0,0.53,0.238,0.53,0.531S62.131,44.448,61.838,44.448"/>
	<path clip-path="url(#SVGID_2_)" fill="#181B22" d="M61.838,47.82h-3.256c-0.293,0-0.53-0.237-0.53-0.531
		c0-0.293,0.237-0.531,0.53-0.531h3.256c0.293,0,0.53,0.238,0.53,0.531C62.368,47.583,62.131,47.82,61.838,47.82"/>
	<path clip-path="url(#SVGID_2_)" fill="#181B22" d="M61.838,51.191h-3.256c-0.293,0-0.53-0.238-0.53-0.531s0.237-0.531,0.53-0.531
		h3.256c0.293,0,0.53,0.238,0.53,0.531S62.131,51.191,61.838,51.191"/>
	<path clip-path="url(#SVGID_2_)" fill="#181B22" d="M61.838,54.563h-3.256c-0.293,0-0.53-0.237-0.53-0.531
		c0-0.293,0.237-0.531,0.53-0.531h3.256c0.293,0,0.53,0.238,0.53,0.531C62.368,54.326,62.131,54.563,61.838,54.563"/>
	<path clip-path="url(#SVGID_2_)" fill="#181B22" d="M61.838,57.936h-3.256c-0.293,0-0.53-0.237-0.53-0.531
		c0-0.293,0.237-0.531,0.53-0.531h3.256c0.293,0,0.53,0.238,0.53,0.531C62.368,57.699,62.131,57.936,61.838,57.936"/>
	<path clip-path="url(#SVGID_2_)" fill="#181B22" d="M61.838,61.309h-3.256c-0.293,0-0.53-0.238-0.53-0.531s0.237-0.531,0.53-0.531
		h3.256c0.293,0,0.53,0.238,0.53,0.531S62.131,61.309,61.838,61.309"/>
	<path clip-path="url(#SVGID_2_)" fill="#181B22" d="M57,66.363c-0.293,0-0.53-0.237-0.53-0.531v-3.255
		c0-0.294,0.237-0.531,0.53-0.531c0.294,0,0.531,0.237,0.531,0.531v3.255C57.531,66.126,57.294,66.363,57,66.363"/>
	<path clip-path="url(#SVGID_2_)" fill="#181B22" d="M53.628,66.363c-0.293,0-0.53-0.237-0.53-0.531v-3.255
		c0-0.294,0.237-0.531,0.53-0.531s0.531,0.237,0.531,0.531v3.255C54.159,66.126,53.921,66.363,53.628,66.363"/>
	<path clip-path="url(#SVGID_2_)" fill="#181B22" d="M50.256,66.363c-0.294,0-0.531-0.237-0.531-0.531v-3.255
		c0-0.294,0.237-0.531,0.531-0.531c0.293,0,0.53,0.237,0.53,0.531v3.255C50.786,66.126,50.549,66.363,50.256,66.363"/>
	<path clip-path="url(#SVGID_2_)" fill="#181B22" d="M46.883,66.363c-0.293,0-0.53-0.237-0.53-0.531v-3.255
		c0-0.294,0.237-0.531,0.53-0.531c0.294,0,0.531,0.237,0.531,0.531v3.255C47.414,66.126,47.177,66.363,46.883,66.363"/>
	<path clip-path="url(#SVGID_2_)" fill="#181B22" d="M43.512,66.363c-0.293,0-0.53-0.237-0.53-0.531v-3.255
		c0-0.294,0.237-0.531,0.53-0.531c0.294,0,0.531,0.237,0.531,0.531v3.255C44.043,66.126,43.806,66.363,43.512,66.363"/>
	<path clip-path="url(#SVGID_2_)" fill="#181B22" d="M40.14,66.363c-0.294,0-0.531-0.237-0.531-0.531v-3.255
		c0-0.294,0.237-0.531,0.531-0.531c0.293,0,0.53,0.237,0.53,0.531v3.255C40.67,66.126,40.433,66.363,40.14,66.363"/>
	<path clip-path="url(#SVGID_2_)" fill="#181B22" d="M36.768,66.363c-0.294,0-0.531-0.237-0.531-0.531v-3.255
		c0-0.294,0.237-0.531,0.531-0.531c0.293,0,0.53,0.237,0.53,0.531v3.255C37.298,66.126,37.061,66.363,36.768,66.363"/>
	<path clip-path="url(#SVGID_2_)" fill="#181B22" d="M34.584,61.309h-3.256c-0.293,0-0.53-0.238-0.53-0.531s0.237-0.531,0.53-0.531
		h3.256c0.293,0,0.53,0.238,0.53,0.531S34.877,61.309,34.584,61.309"/>
	<path clip-path="url(#SVGID_2_)" fill="#181B22" d="M34.584,57.936h-3.256c-0.293,0-0.53-0.237-0.53-0.531
		c0-0.293,0.237-0.531,0.53-0.531h3.256c0.293,0,0.53,0.238,0.53,0.531C35.114,57.699,34.877,57.936,34.584,57.936"/>
	<path clip-path="url(#SVGID_2_)" fill="#181B22" d="M34.584,54.563h-3.256c-0.293,0-0.53-0.237-0.53-0.531
		c0-0.293,0.237-0.531,0.53-0.531h3.256c0.293,0,0.53,0.238,0.53,0.531C35.114,54.326,34.877,54.563,34.584,54.563"/>
	<path clip-path="url(#SVGID_2_)" fill="#181B22" d="M34.584,51.191h-3.256c-0.293,0-0.53-0.238-0.53-0.531s0.237-0.531,0.53-0.531
		h3.256c0.293,0,0.53,0.238,0.53,0.531S34.877,51.191,34.584,51.191"/>
	<path clip-path="url(#SVGID_2_)" fill="#181B22" d="M34.584,47.82h-3.256c-0.293,0-0.53-0.237-0.53-0.531
		c0-0.293,0.237-0.531,0.53-0.531h3.256c0.293,0,0.53,0.238,0.53,0.531C35.114,47.583,34.877,47.82,34.584,47.82"/>
	<path clip-path="url(#SVGID_2_)" fill="#181B22" d="M34.584,44.448h-3.256c-0.293,0-0.53-0.238-0.53-0.531s0.237-0.531,0.53-0.531
		h3.256c0.293,0,0.53,0.238,0.53,0.531S34.877,44.448,34.584,44.448"/>
	<path clip-path="url(#SVGID_2_)" fill="#181B22" d="M34.584,41.075h-3.256c-0.293,0-0.53-0.237-0.53-0.531
		c0-0.293,0.237-0.531,0.53-0.531h3.256c0.293,0,0.53,0.238,0.53,0.531C35.114,40.838,34.877,41.075,34.584,41.075"/>
	<path clip-path="url(#SVGID_2_)" fill="#181B22" d="M26.319,85.153H0.531c-0.293,0-0.53-0.237-0.53-0.531
		c0-0.293,0.237-0.531,0.53-0.531h25.788c0.293,0,0.53,0.238,0.53,0.531C26.849,84.916,26.612,85.153,26.319,85.153"/>
	<path clip-path="url(#SVGID_2_)" fill="#181B22" d="M26.319,90.153H15.531c-0.293,0-0.53-0.237-0.53-0.531
		c0-0.293,0.237-0.531,0.53-0.531h10.788c0.293,0,0.53,0.238,0.53,0.531C26.849,89.916,26.612,90.153,26.319,90.153"/>
	<path clip-path="url(#SVGID_2_)" fill="#181B22" d="M123.648,21.123H97.861c-0.293,0-0.529-0.238-0.529-0.531
		s0.236-0.531,0.529-0.531h25.787c0.293,0,0.531,0.238,0.531,0.531S123.941,21.123,123.648,21.123"/>
	<path clip-path="url(#SVGID_2_)" fill="#181B22" d="M129.41,26.413h-11.522c-0.294,0-0.532-0.237-0.532-0.531
		c0-0.293,0.238-0.531,0.532-0.531h11.522c0.294,0,0.531,0.238,0.531,0.531C129.941,26.176,129.704,26.413,129.41,26.413"/>
	<path clip-path="url(#SVGID_2_)" fill="#181B22" d="M49.521,134.337H15.303c-1.04,0-1.885-0.846-1.885-1.884v-4.843
		c0-0.116,0.012-0.229,0.033-0.341c0.164-0.896,0.944-1.544,1.852-1.544h34.218c0.412,0,0.808,0.135,1.144,0.392
		c0.373,0.288,0.624,0.696,0.708,1.151c0.001,0,0.001,0.001,0.001,0.001c0.019,0.111,0.033,0.225,0.033,0.341v4.843
		C51.407,133.491,50.561,134.337,49.521,134.337 M15.303,126.786c-0.396,0-0.736,0.284-0.807,0.675
		c-0.01,0.049-0.017,0.098-0.017,0.149v4.843c0,0.454,0.37,0.823,0.824,0.823h34.218c0.454,0,0.824-0.369,0.824-0.823v-4.843
		c0-0.052-0.007-0.101-0.016-0.15c-0.036-0.196-0.147-0.375-0.31-0.5c-0.104-0.078-0.275-0.174-0.498-0.174H15.303z M45.859,131.598
		c-1.051,0-1.905-0.854-1.905-1.904c0-1.051,0.854-1.905,1.905-1.905c1.05,0,1.904,0.854,1.904,1.905
		C47.763,130.743,46.909,131.598,45.859,131.598 M45.859,128.851c-0.465,0-0.844,0.378-0.844,0.843c0,0.464,0.379,0.843,0.844,0.843
		c0.464,0,0.843-0.379,0.843-0.843C46.702,129.229,46.323,128.851,45.859,128.851"/>
	<path clip-path="url(#SVGID_2_)" fill="#181B22" d="M13.973,127.896c-0.17,0-0.344-0.082-0.443-0.22
		c-0.1-0.138-0.14-0.316-0.086-0.478l1.415-4.276c0.093-0.278,0.386-0.431,0.671-0.337c0.278,0.092,0.429,0.392,0.337,0.67
		l-1.379,4.166C14.461,127.688,14.246,127.896,13.973,127.896"/>
	<path clip-path="url(#SVGID_2_)" fill="#181B22" d="M50.876,127.896c-0.231,0-0.445-0.152-0.512-0.386l-1.214-4.276
		c-0.08-0.281,0.084-0.575,0.367-0.655c0.285-0.081,0.576,0.085,0.656,0.364l1.214,4.277c0.08,0.282-0.084,0.575-0.366,0.656
		C50.972,127.89,50.923,127.896,50.876,127.896"/>
	<path clip-path="url(#SVGID_2_)" fill="#181B22" d="M45.859,131.598c-1.051,0-1.905-0.854-1.905-1.904
		c0-1.051,0.854-1.905,1.905-1.905c1.05,0,1.904,0.854,1.904,1.905C47.763,130.743,46.909,131.598,45.859,131.598 M45.859,128.851
		c-0.465,0-0.844,0.378-0.844,0.843c0,0.464,0.379,0.843,0.844,0.843c0.464,0,0.843-0.379,0.843-0.843
		C46.702,129.229,46.323,128.851,45.859,128.851"/>
	<path clip-path="url(#SVGID_2_)" fill="#181B22" d="M49.521,123.539H15.303c-1.04,0-1.885-0.845-1.885-1.885v-4.843
		c0-0.116,0.012-0.23,0.033-0.342c0.164-0.895,0.944-1.544,1.852-1.544h34.218c0.413,0,0.808,0.137,1.144,0.393
		c0.373,0.288,0.624,0.695,0.708,1.15c0.001,0,0.001,0.001,0.001,0.001c0.019,0.111,0.033,0.226,0.033,0.342v4.843
		C51.407,122.694,50.561,123.539,49.521,123.539 M15.303,115.988c-0.396,0-0.736,0.283-0.807,0.674
		c-0.01,0.048-0.017,0.097-0.017,0.149v4.843c0,0.454,0.37,0.824,0.824,0.824h34.218c0.454,0,0.824-0.37,0.824-0.824v-4.843
		c0-0.053-0.007-0.102-0.016-0.15c-0.036-0.197-0.148-0.375-0.31-0.5c-0.102-0.079-0.274-0.173-0.498-0.173H15.303z M45.859,120.798
		c-1.051,0-1.905-0.854-1.905-1.903c0-1.052,0.854-1.905,1.905-1.905c1.05,0,1.904,0.854,1.904,1.905
		C47.763,119.944,46.909,120.798,45.859,120.798 M45.859,118.051c-0.465,0-0.844,0.378-0.844,0.844c0,0.464,0.379,0.843,0.844,0.843
		c0.464,0,0.843-0.379,0.843-0.843C46.702,118.429,46.323,118.051,45.859,118.051"/>
	<path clip-path="url(#SVGID_2_)" fill="#181B22" d="M50.876,117.097c-0.231,0-0.445-0.152-0.512-0.386l-3.785-13.341
		c-0.099-0.353-0.426-0.599-0.793-0.599H19.668c-0.356,0-0.671,0.227-0.783,0.565l-4.398,13.285
		c-0.026,0.267-0.241,0.475-0.514,0.475c-0.17,0-0.344-0.082-0.444-0.22c-0.099-0.139-0.139-0.316-0.086-0.479l4.435-13.396
		c0.256-0.774,0.976-1.293,1.79-1.293h26.118c0.839,0,1.585,0.563,1.815,1.37l3.786,13.341c0.08,0.281-0.084,0.574-0.366,0.655
		C50.972,117.091,50.923,117.097,50.876,117.097"/>
	<path clip-path="url(#SVGID_2_)" fill="#181B22" d="M45.859,120.798c-1.051,0-1.905-0.854-1.905-1.903
		c0-1.052,0.854-1.905,1.905-1.905c1.05,0,1.904,0.854,1.904,1.905C47.763,119.944,46.909,120.798,45.859,120.798 M45.859,118.051
		c-0.465,0-0.844,0.378-0.844,0.844c0,0.464,0.379,0.843,0.844,0.843c0.464,0,0.843-0.379,0.843-0.843
		C46.702,118.429,46.323,118.051,45.859,118.051"/>
	<path clip-path="url(#SVGID_2_)" fill="#181B22" d="M33.469,112.048c-3.767,0-7.579-1.04-7.579-3.028
		c0-3.977,15.156-3.977,15.156,0C41.046,111.008,37.234,112.048,33.469,112.048 M33.469,107.052c-3.979,0-6.517,1.166-6.517,1.968
		c0,0.801,2.538,1.967,6.517,1.967c3.978,0,6.516-1.166,6.516-1.967C39.985,108.218,37.447,107.052,33.469,107.052"/>
	<path clip-path="url(#SVGID_2_)" fill="#FF687D" d="M65.474,23.106c-1.59,0-2.884-1.294-2.884-2.883
		c0-1.59,1.294-2.884,2.884-2.884c1.589,0,2.883,1.294,2.883,2.884C68.357,21.812,67.063,23.106,65.474,23.106 M65.474,18.401
		c-1.005,0-1.822,0.817-1.822,1.822c0,1.004,0.817,1.821,1.822,1.821c1.004,0,1.821-0.817,1.821-1.821
		C67.295,19.218,66.478,18.401,65.474,18.401"/>
	<path clip-path="url(#SVGID_2_)" fill="#FFDA68" d="M166.971,110.982c-1.589,0-2.882-1.293-2.882-2.884
		c0-1.589,1.293-2.883,2.882-2.883c1.591,0,2.884,1.294,2.884,2.883C169.854,109.689,168.562,110.982,166.971,110.982
		 M166.971,106.278c-1.003,0-1.819,0.816-1.819,1.82c0,1.006,0.816,1.822,1.819,1.822c1.006,0,1.821-0.816,1.821-1.822
		C168.792,107.095,167.977,106.278,166.971,106.278"/>
	<path clip-path="url(#SVGID_2_)" fill="#62BE24" d="M153.907,139.835L153.907,139.835c-0.427,0-0.825-0.166-1.126-0.467
		l-2.151-2.152c-0.621-0.621-0.621-1.632,0-2.253l2.151-2.151c0.301-0.302,0.699-0.468,1.125-0.468h0.001
		c0.427,0,0.825,0.166,1.126,0.468l2.152,2.151c0.621,0.621,0.621,1.632,0,2.253l-2.152,2.152
		C154.732,139.669,154.334,139.835,153.907,139.835 M153.907,133.406L153.907,133.406c-0.142,0-0.273,0.055-0.375,0.156
		l-2.152,2.151c-0.207,0.207-0.207,0.544,0,0.752l2.152,2.151c0.102,0.101,0.233,0.156,0.374,0.156h0.001
		c0.144,0,0.275-0.056,0.376-0.156l2.151-2.151c0.208-0.208,0.208-0.545,0-0.752l-2.151-2.151
		C154.183,133.461,154.051,133.406,153.907,133.406"/>
	<path clip-path="url(#SVGID_2_)" fill="#62BE24" d="M162.945,139.834c-0.406,0-0.813-0.155-1.126-0.466l-2.151-2.152
		c-0.62-0.621-0.62-1.632,0-2.253l2.151-2.151c0.622-0.623,1.631-0.621,2.253,0l2.152,2.151c0.621,0.621,0.621,1.632,0,2.253
		l-2.152,2.152C163.762,139.679,163.354,139.834,162.945,139.834 M162.946,133.406c-0.137,0-0.271,0.052-0.376,0.156l-2.151,2.151
		c-0.207,0.207-0.207,0.544,0,0.752l2.151,2.151c0.206,0.207,0.543,0.209,0.751,0l2.152-2.151c0.208-0.208,0.208-0.545,0-0.752
		l-2.152-2.151C163.218,133.458,163.083,133.406,162.946,133.406"/>
	<path clip-path="url(#SVGID_2_)" fill="#FF687D" d="M171.984,139.846c-0.406,0-0.814-0.156-1.126-0.467l-2.152-2.152
		c-0.62-0.621-0.62-1.631,0-2.251l2.152-2.154c0.62-0.62,1.632-0.62,2.252,0l2.153,2.154c0.621,0.62,0.621,1.63,0,2.251
		l-2.153,2.152C172.8,139.689,172.392,139.846,171.984,139.846 M171.984,133.416c-0.136,0-0.271,0.053-0.375,0.156l-2.152,2.153
		c-0.206,0.206-0.206,0.544,0,0.751l2.152,2.152c0.207,0.207,0.543,0.207,0.75,0l2.153-2.152c0.207-0.208,0.207-0.544,0-0.751
		l-2.153-2.153C172.256,133.469,172.121,133.416,171.984,133.416"/>
	<path clip-path="url(#SVGID_2_)" fill="#181B22" d="M37.55,150c-0.105,0-0.212-0.031-0.304-0.095l-3.291-2.299
		c-0.241-0.168-0.3-0.498-0.132-0.738c0.169-0.241,0.5-0.296,0.74-0.132l3.291,2.298c0.24,0.168,0.3,0.499,0.132,0.738
		C37.882,149.921,37.717,150,37.55,150"/>
	<path clip-path="url(#SVGID_2_)" fill="#181B22" d="M32.23,144.985c-0.293,0-0.53-0.236-0.53-0.53v-3.537
		c0-0.293,0.237-0.531,0.53-0.531c0.294,0,0.531,0.238,0.531,0.531v3.537C32.761,144.749,32.524,144.985,32.23,144.985"/>
	<path clip-path="url(#SVGID_2_)" fill="#181B22" d="M26.91,150c-0.167,0-0.332-0.079-0.436-0.228
		c-0.168-0.239-0.108-0.57,0.132-0.738l3.291-2.298c0.24-0.164,0.57-0.109,0.74,0.132c0.168,0.24,0.109,0.57-0.131,0.738
		l-3.292,2.299C27.122,149.969,27.015,150,26.91,150"/>
	<path clip-path="url(#SVGID_2_)" fill="#FF687D" d="M13.377,68.335c-1.589,0-2.883-1.293-2.883-2.883
		c0-1.589,1.294-2.883,2.883-2.883c1.59,0,2.884,1.294,2.884,2.883C16.261,67.042,14.967,68.335,13.377,68.335 M13.377,63.631
		c-1.004,0-1.821,0.817-1.821,1.821s0.817,1.821,1.821,1.821c1.005,0,1.821-0.817,1.821-1.821S14.382,63.631,13.377,63.631"/>
	<path clip-path="url(#SVGID_2_)" fill="#181B22" d="M114.144,129.168h-5.307c-0.293,0-0.53-0.236-0.53-0.53
		c0-0.293,0.237-0.531,0.53-0.531h5.307c0.294,0,0.532,0.238,0.532,0.531C114.676,128.932,114.438,129.168,114.144,129.168
		 M103.528,129.168h-5.307c-0.294,0-0.532-0.236-0.532-0.53c0-0.293,0.238-0.531,0.532-0.531h5.307c0.293,0,0.53,0.238,0.53,0.531
		C104.059,128.932,103.821,129.168,103.528,129.168 M92.913,129.168h-5.308c-0.293,0-0.53-0.236-0.53-0.53
		c0-0.293,0.237-0.531,0.53-0.531h5.308c0.294,0,0.531,0.238,0.531,0.531C93.443,128.932,93.207,129.168,92.913,129.168"/>
	<path clip-path="url(#SVGID_2_)" fill="#62BE24" d="M179.701,50.669c-1.589,0-2.883-1.293-2.883-2.883
		c0-1.589,1.294-2.883,2.883-2.883c1.59,0,2.884,1.294,2.884,2.883C182.585,49.376,181.291,50.669,179.701,50.669 M179.701,45.965
		c-1.004,0-1.82,0.817-1.82,1.821s0.816,1.821,1.82,1.821c1.005,0,1.821-0.817,1.821-1.821S180.706,45.965,179.701,45.965"/>
	<path clip-path="url(#SVGID_2_)" fill="#181B22" d="M113.771,133.16c-0.163,0-0.325-0.075-0.43-0.22
		c-0.172-0.237-0.118-0.569,0.119-0.741l4.736-3.427l-4.751-3.709c-0.232-0.18-0.273-0.514-0.094-0.745
		c0.183-0.23,0.516-0.272,0.746-0.092l5.309,4.142c0.132,0.104,0.207,0.263,0.204,0.43c-0.004,0.167-0.084,0.321-0.221,0.421
		l-5.307,3.841C113.988,133.128,113.879,133.16,113.771,133.16"/>
	<path clip-path="url(#SVGID_2_)" fill="#181B22" d="M58.366,72.706c0.952,0,1.724,0.772,1.724,1.724
		c0,0.953-0.772,1.724-1.724,1.724c-0.952,0-1.724-0.771-1.724-1.724C56.642,73.478,57.414,72.706,58.366,72.706"/>
	<path clip-path="url(#SVGID_2_)" fill="#181B22" d="M153.267,45.538c0.952,0,1.725,0.771,1.725,1.724
		c0,0.952-0.772,1.723-1.725,1.723c-0.951,0-1.724-0.771-1.724-1.723C151.543,46.309,152.315,45.538,153.267,45.538"/>
	<path clip-path="url(#SVGID_2_)" fill="#181B22" d="M85.881,135.808c0.952,0,1.724,0.771,1.724,1.725
		c0,0.952-0.772,1.723-1.724,1.723c-0.952,0-1.724-0.771-1.724-1.723C84.157,136.579,84.929,135.808,85.881,135.808"/>
	<path clip-path="url(#SVGID_2_)" fill="#181B22" d="M175.214,63.081c0.951,0,1.725,0.772,1.725,1.724
		c0,0.952-0.773,1.724-1.725,1.724c-0.952,0-1.725-0.772-1.725-1.724C173.489,63.853,174.262,63.081,175.214,63.081"/>
	<path clip-path="url(#SVGID_2_)" fill="#181B22" d="M24.151,72.706c0.952,0,1.724,0.772,1.724,1.724
		c0,0.953-0.772,1.724-1.724,1.724c-0.952,0-1.724-0.771-1.724-1.724C22.427,73.478,23.199,72.706,24.151,72.706"/>
	<path clip-path="url(#SVGID_2_)" fill="#181B22" d="M75.396,21.485c0.951,0,1.724,0.771,1.724,1.724
		c0,0.952-0.773,1.723-1.724,1.723c-0.952,0-1.725-0.771-1.725-1.723C73.671,22.256,74.444,21.485,75.396,21.485"/>
	<path clip-path="url(#SVGID_2_)" fill="#181B22" d="M136.998,144.175c0.952,0,1.725,0.771,1.725,1.724
		c0,0.952-0.772,1.724-1.725,1.724c-0.951,0-1.724-0.771-1.724-1.724C135.274,144.945,136.047,144.175,136.998,144.175"/>
	<path clip-path="url(#SVGID_2_)" fill="#181B22" d="M107.572,148.353c-0.104,0-0.211-0.031-0.304-0.096l-3.291-2.298
		c-0.241-0.168-0.3-0.499-0.132-0.738c0.169-0.243,0.5-0.298,0.74-0.132l3.291,2.298c0.239,0.168,0.3,0.498,0.132,0.738
		C107.904,148.273,107.739,148.353,107.572,148.353"/>
	<path clip-path="url(#SVGID_2_)" fill="#181B22" d="M102.252,143.338c-0.293,0-0.529-0.237-0.529-0.531v-3.537
		c0-0.293,0.236-0.531,0.529-0.531c0.294,0,0.531,0.238,0.531,0.531v3.537C102.783,143.101,102.546,143.338,102.252,143.338"/>
	<path clip-path="url(#SVGID_2_)" fill="#181B22" d="M96.932,148.353c-0.167,0-0.332-0.079-0.436-0.228
		c-0.168-0.24-0.108-0.57,0.132-0.738l3.292-2.298c0.239-0.166,0.57-0.111,0.739,0.132c0.168,0.239,0.108,0.57-0.131,0.738
		l-3.292,2.298C97.144,148.321,97.037,148.353,96.932,148.353"/>
	<path clip-path="url(#SVGID_2_)" fill="#181B22" d="M90.463,28.245c-0.294,0-0.531-0.237-0.531-0.53v-5.309
		c0-0.293,0.237-0.53,0.531-0.53c0.293,0,0.53,0.237,0.53,0.53v5.309C90.993,28.008,90.756,28.245,90.463,28.245 M46.438,21.413
		c-0.293,0-0.531-0.237-0.531-0.531v-5.307c0-0.294,0.238-0.531,0.531-0.531s0.531,0.237,0.531,0.531v5.307
		C46.969,21.176,46.731,21.413,46.438,21.413 M46.438,31.413c-0.293,0-0.531-0.237-0.531-0.531v-5.307
		c0-0.294,0.238-0.531,0.531-0.531s0.531,0.237,0.531,0.531v5.307C46.969,31.176,46.731,31.413,46.438,31.413 M90.463,17.63
		c-0.294,0-0.531-0.238-0.531-0.531v-5.192c-0.006-0.031-0.009-0.065-0.009-0.098c0-0.293,0.227-0.531,0.521-0.531h0.019
		c0.293,0,0.53,0.238,0.53,0.531v5.29C90.993,17.392,90.756,17.63,90.463,17.63 M85.136,12.34h-5.308
		c-0.293,0-0.53-0.237-0.53-0.531c0-0.293,0.237-0.531,0.53-0.531h5.308c0.294,0,0.531,0.238,0.531,0.531
		C85.667,12.103,85.43,12.34,85.136,12.34 M74.521,12.34h-5.307c-0.294,0-0.531-0.237-0.531-0.531c0-0.293,0.237-0.531,0.531-0.531
		h5.307c0.293,0,0.531,0.238,0.531,0.531C75.051,12.103,74.813,12.34,74.521,12.34 M63.904,12.34h-5.307
		c-0.293,0-0.531-0.237-0.531-0.531c0-0.293,0.238-0.531,0.531-0.531h5.307c0.294,0,0.531,0.238,0.531,0.531
		C64.436,12.103,64.198,12.34,63.904,12.34 M53.29,12.34h-5.308c-0.294,0-0.531-0.237-0.531-0.531c0-0.293,0.237-0.531,0.531-0.531
		h5.308c0.293,0,0.53,0.238,0.53,0.531C53.819,12.103,53.583,12.34,53.29,12.34"/>
	<path clip-path="url(#SVGID_2_)" fill="#181B22" d="M169.326,81.342h-5.308c-0.293,0-0.531-0.236-0.531-0.53
		c0-0.293,0.238-0.531,0.531-0.531h5.308c0.293,0,0.53,0.238,0.53,0.531C169.856,81.105,169.619,81.342,169.326,81.342
		 M159.607,81.342h-5.307c-0.294,0-0.531-0.236-0.531-0.53c0-0.293,0.237-0.531,0.531-0.531h5.307c0.294,0,0.532,0.238,0.532,0.531
		C160.14,81.105,159.901,81.342,159.607,81.342 M149.734,81.342h-5.307c-0.293,0-0.531-0.236-0.531-0.53
		c0-0.293,0.238-0.531,0.531-0.531h5.307c0.294,0,0.532,0.238,0.532,0.531C150.267,81.105,150.028,81.342,149.734,81.342
		 M171.082,77.79c-0.293,0-0.53-0.237-0.53-0.531v-5.307c0-0.294,0.237-0.531,0.53-0.531s0.531,0.237,0.531,0.531v5.307
		C171.613,77.553,171.375,77.79,171.082,77.79 M171.082,67.174c-0.293,0-0.53-0.237-0.53-0.53v-5.308
		c0-0.293,0.237-0.531,0.53-0.531s0.531,0.238,0.531,0.531v5.308C171.613,66.937,171.375,67.174,171.082,67.174 M171.082,56.559
		c-0.293,0-0.53-0.238-0.53-0.531V50.72c0-0.293,0.237-0.53,0.53-0.53s0.531,0.237,0.531,0.53v5.308
		C171.613,56.321,171.375,56.559,171.082,56.559 M171.082,45.943c-0.293,0-0.53-0.237-0.53-0.531v-1.225
		c0-0.293,0.237-0.531,0.53-0.531s0.531,0.238,0.531,0.531v1.225C171.613,45.706,171.375,45.943,171.082,45.943"/>
	<path clip-path="url(#SVGID_2_)" fill="#181B22" d="M32.412,99.054c-0.294,0-0.531-0.237-0.531-0.531v-1.907
		c0-0.293,0.237-0.531,0.531-0.531c0.293,0,0.53,0.238,0.53,0.531v1.907C32.941,98.816,32.705,99.054,32.412,99.054 M32.412,91.839
		c-0.294,0-0.531-0.238-0.531-0.531v-1.719c0-0.294,0.237-0.531,0.531-0.531H36c0.293,0,0.531,0.237,0.531,0.531
		s-0.238,0.53-0.531,0.53h-3.059v1.188C32.941,91.601,32.705,91.839,32.412,91.839 M57.231,90.119h-5.307
		c-0.294,0-0.532-0.236-0.532-0.53s0.238-0.531,0.532-0.531h5.307c0.293,0,0.531,0.237,0.531,0.531S57.524,90.119,57.231,90.119
		 M68.002,90.119h-5.308c-0.294,0-0.531-0.236-0.531-0.53s0.237-0.531,0.531-0.531h5.308c0.293,0,0.53,0.237,0.53,0.531
		S68.295,90.119,68.002,90.119 M46.617,90.119h-5.309c-0.293,0-0.53-0.236-0.53-0.53s0.237-0.531,0.53-0.531h5.309
		c0.293,0,0.53,0.237,0.53,0.531S46.91,90.119,46.617,90.119"/>
</g>
</svg>
