<?xml version="1.0" encoding="utf-8"?>
<!-- Generator: Adobe Illustrator 16.0.0, SVG Export Plug-In . SVG Version: 6.00 Build 0)  -->
<!DOCTYPE svg PUBLIC "-//W3C//DTD SVG 1.1//EN" "http://www.w3.org/Graphics/SVG/1.1/DTD/svg11.dtd">
<svg version="1.1" id="Layer_1" xmlns="http://www.w3.org/2000/svg" xmlns:xlink="http://www.w3.org/1999/xlink" x="0px" y="0px"
	viewBox="0 0 190 150" enable-background="new 0 0 190 150" xml:space="preserve">
<g>
	<defs>
		<rect id="SVGID_1_" width="190" height="150"/>
	</defs>
	<clipPath id="SVGID_2_">
		<use xlink:href="#SVGID_1_"  overflow="visible"/>
	</clipPath>
	<path clip-path="url(#SVGID_2_)" fill="#181B22" d="M86.602,43.287c-0.146,0-0.292-0.059-0.399-0.175
		c-0.203-0.221-0.188-0.563,0.032-0.766c7.246-6.664,16.212-10.87,25.929-12.161c0.301-0.038,0.569,0.169,0.609,0.466
		s-0.169,0.57-0.466,0.609c-9.495,1.261-18.257,5.371-25.338,11.884C86.865,43.24,86.733,43.287,86.602,43.287"/>
	<path clip-path="url(#SVGID_2_)" fill="#181B22" d="M71.856,71.192c-0.025,0-0.052-0.001-0.078-0.006
		c-0.296-0.042-0.502-0.317-0.459-0.613c1.183-8.196,4.518-15.984,9.644-22.523c0.185-0.234,0.524-0.277,0.761-0.091
		c0.236,0.184,0.277,0.525,0.092,0.76c-5.009,6.39-8.268,14-9.424,22.008C72.354,70.997,72.122,71.192,71.856,71.192"/>
	<path clip-path="url(#SVGID_2_)" fill="#181B22" d="M80.746,106.2c-0.166,0-0.328-0.075-0.435-0.217
		c-4.774-6.382-7.889-13.911-9.007-21.777c-0.041-0.297,0.165-0.571,0.461-0.613c0.296-0.043,0.57,0.164,0.613,0.461
		c1.091,7.688,4.135,15.044,8.801,21.279c0.18,0.24,0.13,0.579-0.109,0.759C80.973,106.165,80.858,106.2,80.746,106.2"/>
	<path clip-path="url(#SVGID_2_)" fill="#181B22" d="M112.951,124.793c-0.021,0-0.043-0.001-0.063-0.003
		c-10.39-1.22-20.244-5.939-27.746-13.291c-0.214-0.209-0.217-0.553-0.007-0.767c0.209-0.214,0.551-0.217,0.766-0.007
		c7.332,7.183,16.96,11.796,27.112,12.987c0.298,0.035,0.51,0.305,0.476,0.602C113.456,124.59,113.222,124.793,112.951,124.793"/>
	<path clip-path="url(#SVGID_2_)" fill="#181B22" d="M118.683,47.575c-9.792,0-19.2-2.946-27.207-8.521
		c-0.245-0.17-0.306-0.508-0.134-0.754c0.171-0.246,0.508-0.308,0.754-0.135c7.823,5.447,17.017,8.326,26.587,8.326
		c0.299,0,0.542,0.242,0.542,0.542C119.225,47.332,118.981,47.575,118.683,47.575"/>
	<path clip-path="url(#SVGID_2_)" fill="#181B22" d="M93.55,117.028c-0.183,0-0.361-0.093-0.463-0.261
		c-0.156-0.256-0.075-0.589,0.181-0.744c7.431-4.515,15.978-6.9,24.718-6.9c0.3,0,0.542,0.242,0.542,0.542s-0.242,0.542-0.542,0.542
		c-8.541,0-16.894,2.332-24.155,6.742C93.743,117.004,93.646,117.028,93.55,117.028"/>
	<path clip-path="url(#SVGID_2_)" fill="#181B22" d="M94.887,74.069c-0.008,0-0.016,0-0.024,0c-0.299-0.014-0.531-0.267-0.518-0.565
		c0.882-20.187,8.224-37.051,18.268-41.963c0.27-0.131,0.593-0.019,0.725,0.249c0.133,0.269,0.021,0.593-0.248,0.725
		c-9.698,4.743-16.797,21.234-17.661,41.036C95.415,73.841,95.177,74.069,94.887,74.069"/>
	<path clip-path="url(#SVGID_2_)" fill="#181B22" d="M113.103,123.86c-0.077,0-0.155-0.018-0.229-0.051
		c-10.292-4.799-17.746-21.895-18.547-42.541c-0.012-0.3,0.221-0.552,0.521-0.563c0.302-0.021,0.551,0.221,0.562,0.521
		c0.773,19.936,8.144,37.042,17.923,41.601c0.271,0.127,0.389,0.449,0.263,0.721C113.502,123.744,113.307,123.86,113.103,123.86"/>
	<path clip-path="url(#SVGID_2_)" fill="#181B22" d="M115.032,63.508h-0.018c-15.595-0.455-29.614-3.975-37.501-9.415
		c-0.247-0.17-0.309-0.508-0.139-0.754c0.17-0.247,0.507-0.309,0.754-0.139c7.722,5.328,21.523,8.775,36.918,9.224
		c0.299,0.009,0.535,0.259,0.526,0.558C115.563,63.275,115.324,63.508,115.032,63.508"/>
	<path clip-path="url(#SVGID_2_)" fill="#181B22" d="M77.822,101.063c-0.172,0-0.341-0.082-0.447-0.233
		c-0.17-0.246-0.108-0.584,0.139-0.754c7.882-5.438,21.892-8.956,37.476-9.413c0.289,0.01,0.549,0.226,0.558,0.525
		c0.009,0.298-0.228,0.548-0.526,0.558c-15.383,0.451-29.175,3.898-36.892,9.222C78.035,101.032,77.928,101.063,77.822,101.063"/>
	<path clip-path="url(#SVGID_2_)" fill="#181B22" d="M118.503,118.687c-0.299,0-0.542-0.243-0.542-0.542v-23.41
		c0-0.299,0.243-0.541,0.542-0.541c0.3,0,0.542,0.242,0.542,0.541v23.41C119.045,118.443,118.803,118.687,118.503,118.687"/>
	<path clip-path="url(#SVGID_2_)" fill="#181B22" d="M118.503,88.244c-0.299,0-0.542-0.242-0.542-0.542V66.427
		c0-0.3,0.243-0.542,0.542-0.542c0.3,0,0.542,0.242,0.542,0.542v21.275C119.045,88.002,118.803,88.244,118.503,88.244"/>
	<path clip-path="url(#SVGID_2_)" fill="#181B22" d="M118.503,60.01c-0.299,0-0.542-0.243-0.542-0.542V36.739
		c0-0.299,0.243-0.541,0.542-0.541c0.3,0,0.542,0.242,0.542,0.541v22.729C119.045,59.767,118.803,60.01,118.503,60.01"/>
	<path clip-path="url(#SVGID_2_)" fill="#181B22" d="M118.413,77.984h-20.21c-0.301,0-0.542-0.242-0.542-0.542
		c0-0.299,0.241-0.542,0.542-0.542h20.21c0.299,0,0.542,0.243,0.542,0.542C118.955,77.742,118.712,77.984,118.413,77.984"/>
	<path clip-path="url(#SVGID_2_)" fill="#181B22" d="M91.539,77.984H78.276c-0.3,0-0.542-0.242-0.542-0.542
		c0-0.299,0.242-0.542,0.542-0.542h13.263c0.3,0,0.542,0.243,0.542,0.542C92.081,77.742,91.839,77.984,91.539,77.984"/>
	<path clip-path="url(#SVGID_2_)" fill="#181B22" d="M71.37,83.907c-3.564,0-6.465-2.9-6.465-6.465c0-3.565,2.901-6.465,6.465-6.465
		s6.465,2.9,6.465,6.465C77.835,81.007,74.934,83.907,71.37,83.907 M71.37,72.061c-2.967,0-5.381,2.414-5.381,5.381
		c0,2.968,2.414,5.382,5.381,5.382c2.967,0,5.381-2.414,5.381-5.382C76.751,74.475,74.337,72.061,71.37,72.061"/>
	<path clip-path="url(#SVGID_2_)" fill="#181B22" d="M118.166,36.295c-3.42,0-6.202-2.782-6.202-6.201
		c0-3.42,2.782-6.202,6.202-6.202c3.419,0,6.202,2.782,6.202,6.202C124.368,33.513,121.585,36.295,118.166,36.295 M118.166,24.976
		c-2.822,0-5.118,2.296-5.118,5.118c0,2.821,2.296,5.117,5.118,5.117s5.118-2.296,5.118-5.117
		C123.284,27.272,120.988,24.976,118.166,24.976"/>
	<path clip-path="url(#SVGID_2_)" fill="#181B22" d="M118.766,130.853c-3.421,0-6.202-2.782-6.202-6.201
		c0-3.42,2.781-6.202,6.202-6.202c3.419,0,6.2,2.782,6.2,6.202C124.966,128.07,122.185,130.853,118.766,130.853 M118.766,119.533
		c-2.822,0-5.118,2.296-5.118,5.118c0,2.821,2.296,5.117,5.118,5.117c2.82,0,5.116-2.296,5.116-5.117
		C123.882,121.829,121.586,119.533,118.766,119.533"/>
	<path clip-path="url(#SVGID_2_)" fill="#181B22" d="M94.798,81.243c-2.096,0-3.802-1.705-3.802-3.801s1.706-3.802,3.802-3.802
		c2.096,0,3.801,1.706,3.801,3.802S96.895,81.243,94.798,81.243 M94.798,74.725c-1.499,0-2.718,1.22-2.718,2.718
		s1.219,2.717,2.718,2.717c1.5,0,2.717-1.219,2.717-2.717S96.298,74.725,94.798,74.725"/>
	<path clip-path="url(#SVGID_2_)" fill="#181B22" d="M118.634,94.953c-2.096,0-3.801-1.705-3.801-3.801
		c0-2.097,1.705-3.802,3.801-3.802s3.802,1.705,3.802,3.802C122.436,93.248,120.729,94.953,118.634,94.953 M118.634,88.435
		c-1.499,0-2.717,1.22-2.717,2.718c0,1.497,1.218,2.717,2.717,2.717c1.498,0,2.718-1.22,2.718-2.717
		C121.352,89.654,120.132,88.435,118.634,88.435"/>
	<path clip-path="url(#SVGID_2_)" fill="#181B22" d="M118.503,66.817c-2.096,0-3.802-1.706-3.802-3.801
		c0-2.097,1.706-3.802,3.802-3.802s3.801,1.705,3.801,3.802C122.304,65.112,120.599,66.817,118.503,66.817 M118.503,60.299
		c-1.499,0-2.718,1.219-2.718,2.718c0,1.498,1.219,2.717,2.718,2.717s2.717-1.219,2.717-2.717
		C121.22,61.518,120.002,60.299,118.503,60.299"/>
	<path clip-path="url(#SVGID_2_)" fill="#181B22" d="M84.012,49.42c-2.096,0-3.801-1.706-3.801-3.801
		c0-2.097,1.705-3.802,3.801-3.802c2.096,0,3.801,1.705,3.801,3.802C87.813,47.714,86.108,49.42,84.012,49.42 M84.012,42.901
		c-1.498,0-2.717,1.219-2.717,2.718c0,1.498,1.219,2.717,2.717,2.717c1.499,0,2.718-1.219,2.718-2.717
		C86.73,44.12,85.511,42.901,84.012,42.901"/>
	<path clip-path="url(#SVGID_2_)" fill="#181B22" d="M83.224,112.47c-2.096,0-3.801-1.706-3.801-3.802s1.705-3.802,3.801-3.802
		c2.096,0,3.801,1.706,3.801,3.802S85.32,112.47,83.224,112.47 M83.224,105.95c-1.499,0-2.718,1.22-2.718,2.718
		s1.219,2.718,2.718,2.718c1.498,0,2.717-1.22,2.717-2.718S84.722,105.95,83.224,105.95"/>
	<path clip-path="url(#SVGID_2_)" fill="#181B22" d="M150.846,43.287c-0.132,0-0.264-0.047-0.367-0.143
		c-7.081-6.513-15.843-10.623-25.338-11.884c-0.297-0.039-0.506-0.312-0.467-0.609s0.312-0.504,0.609-0.466
		c9.717,1.291,18.683,5.497,25.929,12.161c0.221,0.203,0.235,0.545,0.032,0.766C151.138,43.228,150.991,43.287,150.846,43.287"/>
	<path clip-path="url(#SVGID_2_)" fill="#181B22" d="M165.591,71.192c-0.265,0-0.497-0.195-0.536-0.465
		c-1.155-8.007-4.414-15.617-9.424-22.008c-0.185-0.235-0.144-0.576,0.092-0.76c0.237-0.186,0.577-0.143,0.762,0.091
		c5.127,6.54,8.461,14.328,9.644,22.523c0.043,0.296-0.163,0.571-0.459,0.613C165.643,71.191,165.616,71.192,165.591,71.192"/>
	<path clip-path="url(#SVGID_2_)" fill="#181B22" d="M156.702,106.2c-0.113,0-0.228-0.035-0.325-0.108
		c-0.239-0.18-0.288-0.519-0.109-0.759c4.667-6.235,7.71-13.592,8.803-21.279c0.042-0.296,0.316-0.5,0.612-0.461
		c0.297,0.042,0.503,0.316,0.461,0.613c-1.118,7.867-4.232,15.396-9.008,21.777C157.029,106.125,156.867,106.2,156.702,106.2"/>
	<path clip-path="url(#SVGID_2_)" fill="#181B22" d="M124.498,124.793c-0.271,0-0.507-0.203-0.538-0.479
		c-0.035-0.297,0.178-0.566,0.476-0.602c10.15-1.191,19.779-5.805,27.111-12.987c0.215-0.21,0.557-0.204,0.767,0.007
		c0.209,0.214,0.206,0.558-0.007,0.767c-7.503,7.352-17.357,12.071-27.746,13.291C124.54,124.792,124.519,124.793,124.498,124.793"
		/>
	<path clip-path="url(#SVGID_2_)" fill="#181B22" d="M118.766,47.575c-0.301,0-0.542-0.243-0.542-0.542
		c0-0.3,0.241-0.542,0.542-0.542c9.568,0,18.763-2.879,26.587-8.326c0.246-0.172,0.584-0.111,0.754,0.135
		c0.172,0.246,0.11,0.584-0.134,0.754C137.965,44.628,128.557,47.575,118.766,47.575"/>
	<path clip-path="url(#SVGID_2_)" fill="#181B22" d="M143.897,117.028c-0.097,0-0.193-0.024-0.281-0.079
		c-7.261-4.41-15.613-6.742-24.155-6.742c-0.299,0-0.542-0.242-0.542-0.542s0.243-0.542,0.542-0.542c8.74,0,17.287,2.386,24.718,6.9
		c0.256,0.155,0.337,0.488,0.183,0.744C144.258,116.936,144.08,117.028,143.897,117.028"/>
	<path clip-path="url(#SVGID_2_)" fill="#181B22" d="M142.561,74.069c-0.289,0-0.528-0.228-0.541-0.518
		c-0.865-19.802-7.963-36.293-17.662-41.036c-0.269-0.132-0.38-0.456-0.248-0.725c0.133-0.268,0.458-0.379,0.725-0.249
		c10.045,4.913,17.386,21.776,18.269,41.963c0.013,0.298-0.22,0.551-0.519,0.565C142.576,74.069,142.568,74.069,142.561,74.069"/>
	<path clip-path="url(#SVGID_2_)" fill="#181B22" d="M124.346,123.86c-0.205,0-0.4-0.116-0.492-0.313
		c-0.126-0.271-0.009-0.594,0.262-0.721c9.779-4.559,17.149-21.665,17.922-41.601c0.012-0.3,0.28-0.541,0.563-0.521
		c0.299,0.011,0.531,0.263,0.52,0.563c-0.8,20.646-8.254,37.742-18.546,42.541C124.499,123.843,124.422,123.86,124.346,123.86"/>
	<path clip-path="url(#SVGID_2_)" fill="#181B22" d="M122.416,63.508c-0.292,0-0.533-0.232-0.542-0.526
		c-0.008-0.299,0.229-0.549,0.526-0.558c15.396-0.449,29.196-3.896,36.919-9.224c0.246-0.17,0.584-0.108,0.754,0.139
		c0.17,0.246,0.107,0.584-0.139,0.754c-7.888,5.44-21.907,8.96-37.503,9.415H122.416z"/>
	<path clip-path="url(#SVGID_2_)" fill="#181B22" d="M159.626,101.063c-0.106,0-0.213-0.03-0.307-0.096
		c-7.718-5.323-21.509-8.771-36.894-9.222c-0.299-0.01-0.534-0.26-0.525-0.558c0.01-0.3,0.301-0.516,0.558-0.525
		c15.585,0.457,29.594,3.976,37.476,9.413c0.247,0.17,0.31,0.508,0.14,0.754C159.967,100.98,159.798,101.063,159.626,101.063"/>
	<path clip-path="url(#SVGID_2_)" fill="#181B22" d="M139.245,77.984h-20.21c-0.3,0-0.542-0.242-0.542-0.542
		c0-0.299,0.242-0.542,0.542-0.542h20.21c0.3,0,0.542,0.243,0.542,0.542C139.787,77.742,139.545,77.984,139.245,77.984"/>
	<path clip-path="url(#SVGID_2_)" fill="#181B22" d="M159.172,77.984h-13.264c-0.299,0-0.542-0.242-0.542-0.542
		c0-0.299,0.243-0.542,0.542-0.542h13.264c0.3,0,0.542,0.243,0.542,0.542C159.714,77.742,159.472,77.984,159.172,77.984"/>
	<path clip-path="url(#SVGID_2_)" fill="#181B22" d="M166.077,83.907c-3.563,0-6.465-2.9-6.465-6.465
		c0-3.565,2.901-6.465,6.465-6.465c3.565,0,6.465,2.9,6.465,6.465C172.542,81.007,169.643,83.907,166.077,83.907 M166.077,72.061
		c-2.967,0-5.381,2.414-5.381,5.381c0,2.968,2.414,5.382,5.381,5.382s5.381-2.414,5.381-5.382
		C171.458,74.475,169.044,72.061,166.077,72.061"/>
	<path clip-path="url(#SVGID_2_)" fill="#181B22" d="M142.649,81.243c-2.096,0-3.802-1.705-3.802-3.801s1.706-3.802,3.802-3.802
		s3.801,1.706,3.801,3.802S144.745,81.243,142.649,81.243 M142.649,74.725c-1.498,0-2.718,1.22-2.718,2.718s1.22,2.717,2.718,2.717
		c1.499,0,2.717-1.219,2.717-2.717S144.148,74.725,142.649,74.725"/>
	<path clip-path="url(#SVGID_2_)" fill="#181B22" d="M153.437,49.42c-2.098,0-3.803-1.706-3.803-3.801
		c0-2.097,1.705-3.802,3.803-3.802c2.096,0,3.801,1.705,3.801,3.802C157.237,47.714,155.532,49.42,153.437,49.42 M153.437,42.901
		c-1.499,0-2.719,1.219-2.719,2.718c0,1.498,1.22,2.717,2.719,2.717c1.497,0,2.717-1.219,2.717-2.717
		C156.153,44.12,154.934,42.901,153.437,42.901"/>
	<path clip-path="url(#SVGID_2_)" fill="#181B22" d="M154.225,112.47c-2.097,0-3.802-1.706-3.802-3.802s1.705-3.802,3.802-3.802
		c2.096,0,3.801,1.706,3.801,3.802S156.32,112.47,154.225,112.47 M154.225,105.95c-1.499,0-2.718,1.22-2.718,2.718
		s1.219,2.718,2.718,2.718c1.498,0,2.717-1.22,2.717-2.718S155.723,105.95,154.225,105.95"/>
	<path clip-path="url(#SVGID_2_)" fill="#181B22" d="M180.228,47.064c-0.107,0-0.215-0.032-0.31-0.098l-4.866-3.396
		c-0.245-0.171-0.305-0.509-0.135-0.755c0.17-0.245,0.509-0.305,0.755-0.134l4.867,3.396c0.244,0.172,0.305,0.509,0.134,0.755
		C180.567,46.983,180.398,47.064,180.228,47.064"/>
	<path clip-path="url(#SVGID_2_)" fill="#181B22" d="M172.362,39.651c-0.3,0-0.542-0.242-0.542-0.542v-5.23
		c0-0.299,0.242-0.542,0.542-0.542s0.542,0.243,0.542,0.542v5.23C172.904,39.409,172.662,39.651,172.362,39.651"/>
	<path clip-path="url(#SVGID_2_)" fill="#181B22" d="M164.498,47.064c-0.172,0-0.341-0.081-0.445-0.232
		c-0.171-0.246-0.111-0.583,0.134-0.755l4.866-3.396c0.246-0.17,0.584-0.11,0.755,0.134c0.171,0.246,0.111,0.584-0.135,0.755
		l-4.865,3.396C164.713,47.032,164.604,47.064,164.498,47.064"/>
	<path clip-path="url(#SVGID_2_)" fill="#181B22" d="M35.645,84.854H5.171c-0.299,0-0.542-0.243-0.542-0.542
		c0-0.3,0.243-0.542,0.542-0.542h30.474c0.299,0,0.542,0.242,0.542,0.542C36.187,84.611,35.944,84.854,35.645,84.854"/>
	<path clip-path="url(#SVGID_2_)" fill="#181B22" d="M47.151,91.745h-5.42c-0.3,0-0.542-0.242-0.542-0.542
		c0-0.299,0.242-0.541,0.542-0.541h5.42c0.3,0,0.542,0.242,0.542,0.541C47.693,91.503,47.451,91.745,47.151,91.745 M36.311,91.745
		h-5.419c-0.3,0-0.542-0.242-0.542-0.542c0-0.299,0.242-0.541,0.542-0.541h5.419c0.3,0,0.542,0.242,0.542,0.541
		C36.853,91.503,36.611,91.745,36.311,91.745 M25.472,91.745h-5.419c-0.3,0-0.542-0.242-0.542-0.542
		c0-0.299,0.242-0.541,0.542-0.541h5.419c0.3,0,0.542,0.242,0.542,0.541C26.014,91.503,25.771,91.745,25.472,91.745"/>
	<path clip-path="url(#SVGID_2_)" fill="#181B22" d="M158.57,9.014h-30.474c-0.299,0-0.542-0.243-0.542-0.542
		c0-0.3,0.243-0.542,0.542-0.542h30.474c0.299,0,0.542,0.242,0.542,0.542C159.112,8.771,158.869,9.014,158.57,9.014"/>
	<path clip-path="url(#SVGID_2_)" fill="#181B22" d="M165.379,15.265h-13.617c-0.3,0-0.542-0.242-0.542-0.542
		c0-0.299,0.242-0.541,0.542-0.541h13.617c0.3,0,0.542,0.242,0.542,0.541C165.921,15.023,165.679,15.265,165.379,15.265"/>
	<path clip-path="url(#SVGID_2_)" fill="#181B22" d="M67.202,49.189h-43.77c-1.494,0-2.71-1.215-2.71-2.709V2.71
		c0-1.494,1.216-2.71,2.71-2.71h43.77c1.494,0,2.71,1.216,2.71,2.71v43.77C69.912,47.974,68.696,49.189,67.202,49.189 M23.432,1.084
		c-0.896,0-1.626,0.729-1.626,1.626v43.77c0,0.896,0.73,1.625,1.626,1.625h43.77c0.897,0,1.626-0.729,1.626-1.625V2.71
		c0-0.897-0.729-1.626-1.626-1.626H23.432z"/>
	<path clip-path="url(#SVGID_2_)" fill="#181B22" d="M58.724,40.711H31.909c-1.494,0-2.71-1.215-2.71-2.709V11.187
		c0-1.494,1.216-2.709,2.71-2.709h26.815c1.495,0,2.71,1.215,2.71,2.709v26.816C61.434,39.496,60.219,40.711,58.724,40.711
		 M31.909,9.562c-0.896,0-1.626,0.729-1.626,1.625v26.816c0,0.896,0.73,1.626,1.626,1.626h26.815c0.897,0,1.626-0.73,1.626-1.626
		V11.187c0-0.896-0.729-1.625-1.626-1.625H31.909z"/>
	<path clip-path="url(#SVGID_2_)" fill="#181B22" d="M50.248,37.395h-9.862c-0.752,0-1.363-0.612-1.363-1.364v-3.013
		c0-0.154-0.126-0.28-0.28-0.28h-4.178c-0.752,0-1.364-0.611-1.364-1.363V13.158c0-0.752,0.612-1.364,1.364-1.364h21.504
		c0.752,0,1.364,0.612,1.364,1.364v18.217c0,0.752-0.612,1.363-1.364,1.363h-4.177c-0.155,0-0.281,0.126-0.281,0.28v3.013
		C51.61,36.783,51,37.395,50.248,37.395 M34.564,12.878c-0.154,0-0.28,0.125-0.28,0.28v18.217c0,0.154,0.126,0.279,0.28,0.279h4.178
		c0.752,0,1.364,0.612,1.364,1.364v3.013c0,0.155,0.125,0.28,0.279,0.28h9.862c0.154,0,0.279-0.125,0.279-0.28v-3.013
		c0-0.752,0.613-1.364,1.365-1.364h4.177c0.155,0,0.28-0.125,0.28-0.279V13.158c0-0.155-0.125-0.28-0.28-0.28H34.564z"/>
	<path clip-path="url(#SVGID_2_)" fill="#181B22" d="M65.701,6.552c-1.217,0-2.208-0.991-2.208-2.209
		c0-1.217,0.991-2.208,2.208-2.208c1.218,0,2.208,0.991,2.208,2.208C67.909,5.561,66.918,6.552,65.701,6.552 M65.701,3.219
		c-0.62,0-1.124,0.504-1.124,1.124c0,0.62,0.504,1.125,1.124,1.125s1.125-0.505,1.125-1.125C66.826,3.723,66.321,3.219,65.701,3.219
		"/>
	<path clip-path="url(#SVGID_2_)" fill="#181B22" d="M25.74,6.552c-1.217,0-2.208-0.991-2.208-2.209
		c0-1.217,0.991-2.208,2.208-2.208c1.217,0,2.208,0.991,2.208,2.208C27.948,5.561,26.958,6.552,25.74,6.552 M25.74,3.219
		c-0.62,0-1.124,0.504-1.124,1.124c0,0.62,0.504,1.125,1.124,1.125s1.124-0.505,1.124-1.125C26.864,3.723,26.36,3.219,25.74,3.219"
		/>
	<path clip-path="url(#SVGID_2_)" fill="#181B22" d="M65.297,47.563c-1.217,0-2.208-0.991-2.208-2.208
		c0-1.218,0.991-2.208,2.208-2.208s2.208,0.99,2.208,2.208C67.505,46.572,66.514,47.563,65.297,47.563 M65.297,44.23
		c-0.62,0-1.125,0.504-1.125,1.125c0,0.62,0.505,1.124,1.125,1.124s1.124-0.504,1.124-1.124
		C66.421,44.734,65.917,44.23,65.297,44.23"/>
	<path clip-path="url(#SVGID_2_)" fill="#181B22" d="M25.336,47.563c-1.218,0-2.208-0.991-2.208-2.208
		c0-1.218,0.99-2.208,2.208-2.208c1.217,0,2.208,0.99,2.208,2.208C27.544,46.572,26.554,47.563,25.336,47.563 M25.336,44.23
		c-0.621,0-1.125,0.504-1.125,1.125c0,0.62,0.504,1.124,1.125,1.124c0.62,0,1.124-0.504,1.124-1.124
		C26.46,44.734,25.957,44.23,25.336,44.23"/>
	<path clip-path="url(#SVGID_2_)" fill="#181B22" d="M36.166,16.57c-0.299,0-0.542-0.242-0.542-0.542V12.57
		c0-0.3,0.243-0.542,0.542-0.542c0.3,0,0.542,0.242,0.542,0.542v3.458C36.708,16.328,36.466,16.57,36.166,16.57"/>
	<path clip-path="url(#SVGID_2_)" fill="#181B22" d="M40.797,16.57c-0.3,0-0.542-0.242-0.542-0.542V12.57
		c0-0.3,0.242-0.542,0.542-0.542c0.299,0,0.542,0.242,0.542,0.542v3.458C41.339,16.328,41.096,16.57,40.797,16.57"/>
	<path clip-path="url(#SVGID_2_)" fill="#181B22" d="M45.429,16.57c-0.299,0-0.542-0.242-0.542-0.542V12.57
		c0-0.3,0.243-0.542,0.542-0.542c0.3,0,0.542,0.242,0.542,0.542v3.458C45.971,16.328,45.729,16.57,45.429,16.57"/>
	<path clip-path="url(#SVGID_2_)" fill="#181B22" d="M50.06,16.57c-0.3,0-0.542-0.242-0.542-0.542V12.57
		c0-0.3,0.242-0.542,0.542-0.542c0.299,0,0.542,0.242,0.542,0.542v3.458C50.602,16.328,50.359,16.57,50.06,16.57"/>
	<path clip-path="url(#SVGID_2_)" fill="#181B22" d="M54.691,16.57c-0.3,0-0.542-0.242-0.542-0.542V12.57
		c0-0.3,0.242-0.542,0.542-0.542c0.299,0,0.542,0.242,0.542,0.542v3.458C55.233,16.328,54.99,16.57,54.691,16.57"/>
	<path clip-path="url(#SVGID_2_)" fill="#181B22" d="M160.777,139.039c-0.076,0-0.153-0.017-0.226-0.05
		c-3.809-1.753-6.269-5.594-6.269-9.783c0-5.937,4.829-10.766,10.766-10.766c5.936,0,10.765,4.829,10.765,10.766
		c0,0.3-0.243,0.542-0.542,0.542c-0.3,0-0.542-0.242-0.542-0.542c0-5.338-4.343-9.682-9.681-9.682c-5.339,0-9.682,4.344-9.682,9.682
		c0,3.769,2.213,7.222,5.637,8.799c0.272,0.125,0.392,0.447,0.267,0.719C161.18,138.922,160.983,139.039,160.777,139.039"/>
	<path clip-path="url(#SVGID_2_)" fill="#181B22" d="M175.373,129.964c-0.11,0-0.222-0.033-0.316-0.103l-2.357-1.692
		c-0.243-0.174-0.299-0.514-0.124-0.756c0.174-0.243,0.513-0.301,0.757-0.124l1.965,1.41l1.632-1.79
		c0.201-0.223,0.546-0.238,0.765-0.036c0.223,0.2,0.238,0.544,0.036,0.765l-1.956,2.149
		C175.667,129.903,175.521,129.964,175.373,129.964"/>
	<path clip-path="url(#SVGID_2_)" fill="#181B22" d="M165.119,128.996c-0.299,0-0.542-0.243-0.542-0.542v-5.274
		c0-0.299,0.243-0.542,0.542-0.542c0.3,0,0.542,0.243,0.542,0.542v5.274C165.661,128.753,165.419,128.996,165.119,128.996"/>
	<path clip-path="url(#SVGID_2_)" fill="#181B22" d="M171.094,131.054h-4.223c-0.299,0-0.542-0.242-0.542-0.542
		s0.243-0.542,0.542-0.542h4.223c0.299,0,0.542,0.242,0.542,0.542S171.393,131.054,171.094,131.054"/>
	<path clip-path="url(#SVGID_2_)" fill="#181B22" d="M165.119,132.805c-1.264,0-2.293-1.027-2.293-2.293
		c0-1.265,1.029-2.294,2.293-2.294c1.265,0,2.294,1.029,2.294,2.294C167.413,131.777,166.384,132.805,165.119,132.805
		 M165.119,129.302c-0.667,0-1.209,0.543-1.209,1.21s0.542,1.209,1.209,1.209s1.21-0.542,1.21-1.209
		S165.786,129.302,165.119,129.302"/>
	<path clip-path="url(#SVGID_2_)" fill="#181B22" d="M78.934,135.17H64.412c-0.299,0-0.541-0.243-0.541-0.542
		c0-0.3,0.242-0.542,0.541-0.542h14.522c0.3,0,0.542,0.242,0.542,0.542C79.476,134.927,79.234,135.17,78.934,135.17"/>
	<path clip-path="url(#SVGID_2_)" fill="#181B22" d="M56.212,135.17H41.685c-0.3,0-0.542-0.243-0.542-0.542
		c0-0.3,0.242-0.542,0.542-0.542h14.528c0.3,0,0.542,0.242,0.542,0.542C56.754,134.927,56.512,135.17,56.212,135.17"/>
	<path clip-path="url(#SVGID_2_)" fill="#181B22" d="M60.142,131.513c-0.299,0-0.542-0.243-0.542-0.542v-19.643
		c0-0.299,0.243-0.542,0.542-0.542c0.3,0,0.542,0.243,0.542,0.542v19.643C60.684,131.27,60.442,131.513,60.142,131.513"/>
	<path clip-path="url(#SVGID_2_)" fill="#181B22" d="M57.813,132.28c-0.145,0-0.289-0.058-0.396-0.171l-8.752-9.339
		c-0.205-0.218-0.193-0.561,0.025-0.765c0.219-0.204,0.562-0.194,0.766,0.024l8.753,9.338c0.204,0.219,0.193,0.562-0.025,0.767
		C58.079,132.232,57.945,132.28,57.813,132.28"/>
	<path clip-path="url(#SVGID_2_)" fill="#181B22" d="M48.702,118.267c-0.123,0-0.248-0.042-0.349-0.128
		c-0.229-0.192-0.257-0.535-0.064-0.764l7.071-8.371c0.193-0.229,0.534-0.259,0.764-0.064c0.228,0.193,0.257,0.535,0.064,0.765
		l-7.071,8.371C49.01,118.202,48.857,118.267,48.702,118.267"/>
	<path clip-path="url(#SVGID_2_)" fill="#181B22" d="M37.681,131.313c-0.123,0-0.248-0.042-0.349-0.128
		c-0.229-0.192-0.257-0.535-0.064-0.764l7.077-8.378c0.192-0.229,0.534-0.258,0.764-0.064c0.228,0.193,0.257,0.535,0.064,0.765
		l-7.077,8.378C37.989,131.249,37.836,131.313,37.681,131.313"/>
	<path clip-path="url(#SVGID_2_)" fill="#181B22" d="M37.411,139.191c-2.471,0-4.481-2.01-4.481-4.48s2.01-4.481,4.481-4.481
		c2.471,0,4.481,2.011,4.481,4.481S39.882,139.191,37.411,139.191 M37.411,131.313c-1.873,0-3.397,1.524-3.397,3.397
		c0,1.874,1.524,3.396,3.397,3.396s3.397-1.522,3.397-3.396C40.808,132.838,39.284,131.313,37.411,131.313"/>
	<path clip-path="url(#SVGID_2_)" fill="#181B22" d="M72.154,118.45c-0.156,0-0.31-0.065-0.417-0.193l-7.349-8.82
		c-0.192-0.23-0.16-0.572,0.07-0.763c0.23-0.191,0.571-0.161,0.763,0.068l7.349,8.819c0.192,0.229,0.161,0.572-0.069,0.764
		C72.399,118.409,72.277,118.45,72.154,118.45"/>
	<path clip-path="url(#SVGID_2_)" fill="#181B22" d="M82.874,131.313c-0.156,0-0.31-0.065-0.417-0.194l-7.108-8.531
		c-0.192-0.23-0.161-0.571,0.069-0.763s0.571-0.16,0.764,0.068l7.108,8.531c0.191,0.23,0.16,0.572-0.069,0.764
		C83.119,131.272,82.996,131.313,82.874,131.313"/>
	<path clip-path="url(#SVGID_2_)" fill="#181B22" d="M62.479,132.28c-0.139,0-0.278-0.053-0.384-0.16
		c-0.212-0.212-0.21-0.555,0.002-0.766l9.399-9.345c0.211-0.212,0.554-0.211,0.766,0.002c0.211,0.212,0.21,0.555-0.002,0.766
		l-9.399,9.346C62.754,132.229,62.617,132.28,62.479,132.28"/>
	<path clip-path="url(#SVGID_2_)" fill="#181B22" d="M46.94,123.589c-1.803,0-3.27-1.467-3.27-3.27c0-1.804,1.467-3.271,3.27-3.271
		c1.803,0,3.27,1.467,3.27,3.271C50.21,122.122,48.743,123.589,46.94,123.589 M46.94,118.133c-1.206,0-2.186,0.981-2.186,2.187
		s0.98,2.186,2.186,2.186c1.205,0,2.186-0.98,2.186-2.186S48.145,118.133,46.94,118.133"/>
	<path clip-path="url(#SVGID_2_)" fill="#181B22" d="M74.044,123.396c-1.803,0-3.27-1.467-3.27-3.27c0-1.804,1.467-3.27,3.27-3.27
		c1.803,0,3.27,1.466,3.27,3.27C77.314,121.93,75.848,123.396,74.044,123.396 M74.044,117.94c-1.205,0-2.186,0.981-2.186,2.187
		s0.981,2.186,2.186,2.186s2.186-0.98,2.186-2.186S75.25,117.94,74.044,117.94"/>
	<path clip-path="url(#SVGID_2_)" fill="#181B22" d="M60.142,111.5c-4.023,0-7.296-3.273-7.296-7.296
		c0-4.023,3.273-7.296,7.296-7.296s7.296,3.272,7.296,7.296C67.438,108.227,64.165,111.5,60.142,111.5 M60.142,97.992
		c-3.425,0-6.212,2.787-6.212,6.212c0,3.426,2.787,6.212,6.212,6.212c3.426,0,6.212-2.786,6.212-6.212
		C66.354,100.779,63.568,97.992,60.142,97.992"/>
	<path clip-path="url(#SVGID_2_)" fill="#181B22" d="M82.873,139.191c-2.471,0-4.481-2.01-4.481-4.48s2.01-4.481,4.481-4.481
		c2.471,0,4.48,2.011,4.48,4.481S85.344,139.191,82.873,139.191 M82.873,131.313c-1.873,0-3.397,1.524-3.397,3.397
		c0,1.874,1.524,3.396,3.397,3.396s3.397-1.522,3.397-3.396C86.27,132.838,84.746,131.313,82.873,131.313"/>
	<path clip-path="url(#SVGID_2_)" fill="#181B22" d="M60.142,139.39c-2.471,0-4.48-2.01-4.48-4.48c0-2.47,2.009-4.48,4.48-4.48
		s4.481,2.011,4.481,4.48C64.623,137.38,62.613,139.39,60.142,139.39 M60.142,131.513c-1.873,0-3.396,1.523-3.396,3.396
		c0,1.874,1.523,3.396,3.396,3.396s3.397-1.522,3.397-3.396C63.539,133.036,62.015,131.513,60.142,131.513"/>
	<path clip-path="url(#SVGID_2_)" fill="#FFDA68" d="M12.144,62.7c-1.624,0-2.944-1.321-2.944-2.943c0-1.624,1.32-2.944,2.944-2.944
		c1.623,0,2.944,1.32,2.944,2.944C15.088,61.379,13.767,62.7,12.144,62.7 M12.144,57.897c-1.026,0-1.86,0.834-1.86,1.86
		c0,1.025,0.834,1.859,1.86,1.859s1.86-0.834,1.86-1.859C14.004,58.731,13.17,57.897,12.144,57.897"/>
	<path clip-path="url(#SVGID_2_)" fill="#62BE24" d="M186.467,90.646c-1.623,0-2.943-1.321-2.943-2.943
		c0-1.623,1.32-2.943,2.943-2.943s2.942,1.32,2.942,2.943C189.409,89.324,188.09,90.646,186.467,90.646 M186.467,85.842
		c-1.025,0-1.859,0.834-1.859,1.86c0,1.025,0.834,1.859,1.859,1.859c1.024,0,1.858-0.834,1.858-1.859
		C188.325,86.676,187.491,85.842,186.467,85.842"/>
	<path clip-path="url(#SVGID_2_)" fill="#FF687D" d="M166.451,11.415c-1.624,0-2.944-1.321-2.944-2.944
		c0-1.622,1.32-2.943,2.944-2.943c1.622,0,2.942,1.321,2.942,2.943C169.394,10.094,168.073,11.415,166.451,11.415 M166.451,6.612
		c-1.026,0-1.86,0.834-1.86,1.859c0,1.026,0.834,1.86,1.86,1.86c1.024,0,1.858-0.834,1.858-1.86
		C168.31,7.446,167.476,6.612,166.451,6.612"/>
	<path clip-path="url(#SVGID_2_)" fill="#62BE24" d="M142.006,149.236c-0.724,0-1.405-0.282-1.916-0.794l-2.587-2.588
		c-1.057-1.056-1.057-2.774,0-3.832l2.587-2.587c1.057-1.056,2.775-1.056,3.833,0l2.586,2.587c0.512,0.512,0.794,1.192,0.794,1.916
		c0,0.725-0.282,1.404-0.794,1.916l-2.586,2.588C143.411,148.954,142.729,149.236,142.006,149.236 M142.006,139.727
		c-0.417,0-0.833,0.158-1.149,0.477l-2.587,2.587c-0.635,0.633-0.635,1.665,0,2.299l2.587,2.587c0.614,0.614,1.687,0.613,2.3,0
		l2.587-2.587c0.306-0.307,0.476-0.716,0.476-1.15s-0.17-0.842-0.476-1.148l-2.587-2.587
		C142.839,139.885,142.423,139.727,142.006,139.727"/>
	<path clip-path="url(#SVGID_2_)" fill="#FF687D" d="M21.264,121.607c-0.724,0-1.405-0.282-1.916-0.794l-2.587-2.587
		c-1.056-1.057-1.056-2.775,0-3.833l2.587-2.586c1.022-1.022,2.81-1.022,3.832,0l2.587,2.586c1.057,1.058,1.057,2.776,0,3.833
		l-2.587,2.587C22.668,121.325,21.988,121.607,21.264,121.607 M21.264,112.098c-0.435,0-0.843,0.169-1.149,0.478l-2.588,2.586
		c-0.633,0.634-0.633,1.666,0,2.299l2.588,2.587c0.613,0.614,1.685,0.614,2.298,0L25,117.46c0.635-0.633,0.635-1.665,0-2.299
		l-2.587-2.586C22.107,112.267,21.699,112.098,21.264,112.098"/>
	<path clip-path="url(#SVGID_2_)" fill="#FFDA68" d="M184.705,109.24c-0.725,0-1.405-0.282-1.916-0.794l-2.588-2.586
		c-1.056-1.057-1.056-2.776,0-3.833l2.588-2.586c1.022-1.024,2.81-1.024,3.831,0l2.588,2.586c1.057,1.057,1.057,2.776,0,3.833
		l-2.588,2.586C186.109,108.958,185.429,109.24,184.705,109.24 M184.705,99.731c-0.436,0-0.843,0.169-1.149,0.476l-2.587,2.587
		c-0.634,0.635-0.634,1.666,0,2.3l2.587,2.587c0.613,0.613,1.685,0.613,2.299,0l2.587-2.587c0.634-0.634,0.634-1.665,0-2.3
		l-2.587-2.587C185.548,99.9,185.14,99.731,184.705,99.731"/>
	<path clip-path="url(#SVGID_2_)" fill="#181B22" d="M5.961,88.932c-0.116,0-0.234-0.038-0.333-0.115l-5.419-4.229
		C0.074,84.482-0.003,84.32,0,84.15c0.003-0.171,0.086-0.33,0.224-0.429l5.42-3.924c0.243-0.178,0.582-0.122,0.756,0.12
		c0.176,0.242,0.122,0.581-0.12,0.757l-4.836,3.502l4.851,3.786c0.236,0.184,0.278,0.524,0.094,0.761
		C6.282,88.86,6.123,88.932,5.961,88.932"/>
	<path clip-path="url(#SVGID_2_)" fill="#181B22" d="M177.329,55.572c0.972,0,1.76,0.788,1.76,1.76s-0.788,1.76-1.76,1.76
		s-1.76-0.788-1.76-1.76S176.357,55.572,177.329,55.572"/>
	<path clip-path="url(#SVGID_2_)" fill="#181B22" d="M3.252,45.272c0.972,0,1.76,0.788,1.76,1.76c0,0.972-0.788,1.76-1.76,1.76
		s-1.76-0.788-1.76-1.76C1.492,46.061,2.28,45.272,3.252,45.272"/>
	<path clip-path="url(#SVGID_2_)" fill="#181B22" d="M112.852,1.766c0.972,0,1.76,0.788,1.76,1.76s-0.788,1.761-1.76,1.761
		s-1.76-0.789-1.76-1.761S111.88,1.766,112.852,1.766"/>
	<path clip-path="url(#SVGID_2_)" fill="#181B22" d="M51.237,68.89c0.972,0,1.76,0.788,1.76,1.76c0,0.972-0.788,1.76-1.76,1.76
		c-0.972,0-1.76-0.788-1.76-1.76C49.478,69.678,50.266,68.89,51.237,68.89"/>
	<path clip-path="url(#SVGID_2_)" fill="#181B22" d="M31.501,145.252c0.972,0,1.76,0.788,1.76,1.76s-0.788,1.76-1.76,1.76
		s-1.76-0.788-1.76-1.76S30.529,145.252,31.501,145.252"/>
	<path clip-path="url(#SVGID_2_)" fill="#181B22" d="M37.867,75.559c-0.107,0-0.215-0.032-0.31-0.099l-3.36-2.345
		c-0.246-0.172-0.306-0.51-0.135-0.755c0.17-0.245,0.509-0.306,0.755-0.135l3.361,2.346c0.245,0.172,0.305,0.509,0.134,0.755
		C38.207,75.478,38.038,75.559,37.867,75.559"/>
	<path clip-path="url(#SVGID_2_)" fill="#181B22" d="M32.435,70.438c-0.299,0-0.542-0.242-0.542-0.542v-3.612
		c0-0.3,0.243-0.542,0.542-0.542c0.3,0,0.542,0.242,0.542,0.542v3.612C32.977,70.196,32.734,70.438,32.435,70.438"/>
	<path clip-path="url(#SVGID_2_)" fill="#181B22" d="M27.003,75.559c-0.171,0-0.34-0.081-0.445-0.232
		c-0.171-0.246-0.111-0.583,0.134-0.755l3.361-2.346c0.246-0.17,0.584-0.109,0.755,0.135c0.171,0.245,0.111,0.583-0.135,0.755
		l-3.36,2.345C27.218,75.526,27.11,75.559,27.003,75.559"/>
	<path clip-path="url(#SVGID_2_)" fill="#181B22" d="M118.378,150h-1.51c-0.3,0-0.542-0.243-0.542-0.542
		c0-0.3,0.242-0.542,0.542-0.542h0.968v-3.369c0-0.299,0.242-0.542,0.542-0.542s0.542,0.243,0.542,0.542v3.911
		C118.92,149.757,118.678,150,118.378,150 M111.448,150h-5.42c-0.299,0-0.542-0.243-0.542-0.542c0-0.3,0.243-0.542,0.542-0.542h5.42
		c0.3,0,0.542,0.242,0.542,0.542C111.99,149.757,111.748,150,111.448,150 M100.608,150h-5.419c-0.299,0-0.542-0.243-0.542-0.542
		c0-0.3,0.243-0.542,0.542-0.542h5.419c0.3,0,0.542,0.242,0.542,0.542C101.15,149.757,100.908,150,100.608,150 M89.771,150h-5.42
		c-0.3,0-0.542-0.243-0.542-0.542c0-0.3,0.242-0.542,0.542-0.542h5.42c0.299,0,0.541,0.242,0.541,0.542
		C90.312,149.757,90.069,150,89.771,150 M78.931,150h-5.42c-0.299,0-0.542-0.243-0.542-0.542c0-0.3,0.243-0.542,0.542-0.542h5.42
		c0.3,0,0.542,0.242,0.542,0.542C79.473,149.757,79.23,150,78.931,150 M68.091,150h-5.42c-0.299,0-0.542-0.243-0.542-0.542
		c0-0.3,0.243-0.542,0.542-0.542h5.42c0.299,0,0.542,0.242,0.542,0.542C68.633,149.757,68.391,150,68.091,150 M59.059,148.193
		c-0.3,0-0.542-0.242-0.542-0.542v-5.419c0-0.3,0.242-0.542,0.542-0.542c0.299,0,0.542,0.242,0.542,0.542v5.419
		C59.601,147.951,59.357,148.193,59.059,148.193 M118.378,140.67c-0.3,0-0.542-0.243-0.542-0.542v-5.419
		c0-0.3,0.242-0.542,0.542-0.542s0.542,0.242,0.542,0.542v5.419C118.92,140.427,118.678,140.67,118.378,140.67"/>
	<path clip-path="url(#SVGID_2_)" fill="#181B22" d="M118.766,21.981c-0.301,0-0.542-0.242-0.542-0.542v-4.675
		c-0.163-0.094-0.273-0.269-0.273-0.471c0-0.299,0.242-0.542,0.542-0.542h0.273c0.299,0,0.541,0.243,0.541,0.542v5.146
		C119.307,21.739,119.064,21.981,118.766,21.981 M113.072,16.835h-5.42c-0.299,0-0.541-0.242-0.541-0.542
		c0-0.299,0.242-0.542,0.541-0.542h5.42c0.299,0,0.542,0.243,0.542,0.542C113.614,16.593,113.371,16.835,113.072,16.835
		 M102.233,16.835h-5.42c-0.3,0-0.542-0.242-0.542-0.542c0-0.299,0.242-0.542,0.542-0.542h5.42c0.299,0,0.542,0.243,0.542,0.542
		C102.775,16.593,102.532,16.835,102.233,16.835 M91.393,16.835h-5.419c-0.3,0-0.542-0.242-0.542-0.542
		c0-0.299,0.242-0.542,0.542-0.542h5.419c0.3,0,0.542,0.243,0.542,0.542C91.935,16.593,91.693,16.835,91.393,16.835 M80.554,16.835
		h-5.419c-0.3,0-0.542-0.242-0.542-0.542c0-0.299,0.242-0.542,0.542-0.542h5.419c0.3,0,0.542,0.243,0.542,0.542
		C81.096,16.593,80.854,16.835,80.554,16.835"/>
</g>
</svg>
