<?xml version="1.0" encoding="utf-8"?>
<!-- Generator: Adobe Illustrator 16.0.0, SVG Export Plug-In . SVG Version: 6.00 Build 0)  -->
<!DOCTYPE svg PUBLIC "-//W3C//DTD SVG 1.1//EN" "http://www.w3.org/Graphics/SVG/1.1/DTD/svg11.dtd">
<svg version="1.1" id="Layer_1" xmlns="http://www.w3.org/2000/svg" xmlns:xlink="http://www.w3.org/1999/xlink" x="0px" y="0px"
	  viewBox="0 0 190 150" enable-background="new 0 0 190 150" xml:space="preserve">
<g>
	<defs>
		<rect id="SVGID_1_" width="190" height="150"/>
	</defs>
	<clipPath id="SVGID_2_">
		<use xlink:href="#SVGID_1_"  overflow="visible"/>
	</clipPath>
	<path clip-path="url(#SVGID_2_)" fill="#181B22" d="M112.5,138.525H82.026c-0.299,0-0.542-0.242-0.542-0.542
		s0.243-0.542,0.542-0.542H112.5c0.299,0,0.542,0.242,0.542,0.542S112.799,138.525,112.5,138.525"/>
	<path clip-path="url(#SVGID_2_)" fill="#181B22" d="M119.309,144.777h-13.617c-0.3,0-0.542-0.242-0.542-0.542
		s0.242-0.542,0.542-0.542h13.617c0.3,0,0.542,0.242,0.542,0.542S119.608,144.777,119.309,144.777"/>
	<path clip-path="url(#SVGID_2_)" fill="#FF687D" d="M120.38,140.927c-1.623,0-2.943-1.32-2.943-2.943s1.32-2.943,2.943-2.943
		s2.943,1.32,2.943,2.943S122.003,140.927,120.38,140.927 M120.38,136.124c-1.024,0-1.858,0.834-1.858,1.859s0.834,1.86,1.858,1.86
		c1.025,0,1.859-0.835,1.859-1.86S121.405,136.124,120.38,136.124"/>
	<path clip-path="url(#SVGID_2_)" fill="#181B22" d="M61.711,148.893h-2.3c-0.29,0-0.525-0.234-0.525-0.524s0.235-0.525,0.525-0.525
		h2.3c1.052,0,1.907-0.855,1.907-1.907v-26.042c0-1.051-0.855-1.906-1.907-1.906H47.009c-0.662,0-1.263,0.329-1.607,0.881
		l-3.384,5.12c-0.16,0.241-0.486,0.308-0.727,0.148c-0.242-0.16-0.309-0.485-0.149-0.728l3.377-5.107
		c0.528-0.85,1.462-1.364,2.49-1.364h14.702c1.63,0,2.957,1.326,2.957,2.956v26.042C64.668,147.566,63.341,148.893,61.711,148.893"
		/>
	<path clip-path="url(#SVGID_2_)" fill="#181B22" d="M19.122,122.279H1.45c-0.8,0-1.45-0.65-1.45-1.449v-13.627
		c0-0.799,0.65-1.449,1.45-1.449h10.042c0.497,0,0.969,0.263,1.23,0.685l1.781,2.862c0.073,0.117,0.2,0.188,0.339,0.188h6.249
		c0.8,0,1.45,0.65,1.45,1.449v7.633c0,0.29-0.235,0.525-0.525,0.525s-0.525-0.235-0.525-0.525v-7.633c0-0.22-0.18-0.399-0.4-0.399
		h-6.249c-0.503,0-0.963-0.255-1.23-0.684l-1.782-2.862c-0.072-0.117-0.202-0.188-0.338-0.188H1.45c-0.221,0-0.4,0.18-0.4,0.399
		v13.627c0,0.221,0.179,0.399,0.4,0.399h17.672c0.29,0,0.525,0.235,0.525,0.525S19.412,122.279,19.122,122.279"/>
	<path clip-path="url(#SVGID_2_)" fill="#181B22" d="M11.271,136.069c-0.29,0-0.525-0.234-0.525-0.524v-13.474
		c0-0.29,0.235-0.523,0.525-0.523s0.525,0.233,0.525,0.523v13.474C11.796,135.835,11.561,136.069,11.271,136.069"/>
	<path clip-path="url(#SVGID_2_)" fill="#181B22" d="M19.684,139.035h-5.447c-0.29,0-0.525-0.234-0.525-0.524
		c0-0.289,0.235-0.525,0.525-0.525h5.447c0.29,0,0.525,0.236,0.525,0.525C20.208,138.801,19.974,139.035,19.684,139.035"/>
	<path clip-path="url(#SVGID_2_)" fill="#181B22" d="M11.271,142.001c-1.925,0-3.491-1.566-3.491-3.49
		c0-1.925,1.566-3.491,3.491-3.491c1.925,0,3.491,1.566,3.491,3.491C14.762,140.435,13.196,142.001,11.271,142.001 M11.271,136.069
		c-1.346,0-2.441,1.095-2.441,2.441c0,1.346,1.095,2.44,2.441,2.44c1.346,0,2.441-1.095,2.441-2.44
		C13.712,137.164,12.617,136.069,11.271,136.069"/>
	<path clip-path="url(#SVGID_2_)" fill="#181B22" d="M57.374,150H22.115c-1.63,0-2.956-1.326-2.956-2.956v-26.042
		c0-1.63,1.326-2.956,2.956-2.956h14.703c1.029,0,1.968,0.521,2.511,1.395l3.344,5.058c0.051,0.082,0.131,0.166,0.263,0.166h14.438
		c1.631,0,2.957,1.326,2.957,2.957v19.423C60.331,148.674,59.005,150,57.374,150 M22.115,119.096c-1.051,0-1.906,0.854-1.906,1.906
		v26.042c0,1.051,0.855,1.905,1.906,1.905h35.259c1.052,0,1.908-0.854,1.908-1.905v-19.423c0-1.052-0.856-1.907-1.908-1.907H42.936
		c-0.465,0-0.893-0.242-1.147-0.649l-3.344-5.058c-0.358-0.575-0.963-0.911-1.627-0.911H22.115z"/>
	<path clip-path="url(#SVGID_2_)" fill="#181B22" d="M54.467,137.693h-9.828c-0.29,0-0.525-0.234-0.525-0.524
		c0-0.291,0.235-0.525,0.525-0.525h9.828c0.291,0,0.525,0.234,0.525,0.525C54.992,137.459,54.758,137.693,54.467,137.693"/>
	<path clip-path="url(#SVGID_2_)" fill="#181B22" d="M54.467,140.986h-9.828c-0.29,0-0.525-0.235-0.525-0.525
		c0-0.289,0.235-0.524,0.525-0.524h9.828c0.291,0,0.525,0.235,0.525,0.524C54.992,140.751,54.758,140.986,54.467,140.986"/>
	<path clip-path="url(#SVGID_2_)" fill="#181B22" d="M47.982,144.279H44.64c-0.29,0-0.525-0.235-0.525-0.525
		s0.235-0.524,0.525-0.524h3.343c0.291,0,0.525,0.234,0.525,0.524S48.273,144.279,47.982,144.279"/>
	<path clip-path="url(#SVGID_2_)" fill="#181B22" d="M39.995,139.413c-1.239,0-2.246-1.007-2.246-2.244
		c0-1.238,1.007-2.245,2.246-2.245c1.237,0,2.244,1.007,2.244,2.245C42.239,138.406,41.232,139.413,39.995,139.413 M39.995,135.974
		c-0.659,0-1.196,0.536-1.196,1.195s0.537,1.194,1.196,1.194c0.658,0,1.194-0.535,1.194-1.194S40.653,135.974,39.995,135.974"/>
	<path clip-path="url(#SVGID_2_)" fill="#181B22" d="M54.476,51.372h-28.12c-4.501,0-8.162-3.662-8.162-8.162
		c0-3.267,1.974-6.234,4.952-7.511c-0.076-0.672-0.115-1.343-0.115-2c0-9.74,7.927-17.664,17.672-17.664
		c5.989,0,11.481,2.967,14.761,7.957c0.714-0.121,1.444-0.182,2.175-0.182c5.721,0,10.786,3.721,12.519,9.118
		c1.04-0.388,2.14-0.584,3.277-0.584c2.673,0,5.238,1.135,7.04,3.114l-0.778,0.706c-1.601-1.761-3.885-2.771-6.262-2.771
		c-1.191,0-2.335,0.243-3.401,0.719l-0.559,0.252l-0.162-0.593c-1.427-5.247-6.227-8.911-11.674-8.911
		c-0.785,0-1.566,0.076-2.323,0.226l-0.355,0.07l-0.192-0.305c-3.062-4.863-8.321-7.766-14.066-7.766
		c-9.166,0-16.623,7.453-16.623,16.614c0,0.742,0.054,1.505,0.158,2.265l0.058,0.419L23.9,36.528
		c-2.785,1.028-4.656,3.712-4.656,6.682c0,3.921,3.191,7.112,7.112,7.112h28.12V51.372z"/>
	<rect x="87.289" y="88.364" clip-path="url(#SVGID_2_)" fill="#181B22" width="1.05" height="9.96"/>
	<path clip-path="url(#SVGID_2_)" fill="#181B22" d="M130.805,104.256h-5.249c-0.29,0-0.525-0.234-0.525-0.524
		c0-0.289,0.235-0.525,0.525-0.525h5.249c0.29,0,0.525,0.236,0.525,0.525C131.33,104.021,131.095,104.256,130.805,104.256
		 M120.307,104.256h-5.25c-0.29,0-0.525-0.234-0.525-0.524c0-0.289,0.235-0.525,0.525-0.525h5.25c0.29,0,0.524,0.236,0.524,0.525
		C120.831,104.021,120.597,104.256,120.307,104.256 M109.808,104.256h-5.249c-0.291,0-0.524-0.234-0.524-0.524
		c0-0.289,0.233-0.525,0.524-0.525h5.249c0.29,0,0.525,0.236,0.525,0.525C110.333,104.021,110.098,104.256,109.808,104.256
		 M99.309,104.256H94.06c-0.29,0-0.525-0.234-0.525-0.524c0-0.289,0.235-0.525,0.525-0.525h5.249c0.291,0,0.525,0.236,0.525,0.525
		C99.834,104.021,99.6,104.256,99.309,104.256"/>
	<path clip-path="url(#SVGID_2_)" fill="#181B22" d="M43.821,114.593c-0.291,0-0.525-0.233-0.525-0.523v-5.251
		c0-0.29,0.234-0.524,0.525-0.524c0.29,0,0.525,0.234,0.525,0.524v5.251C44.346,114.359,44.111,114.593,43.821,114.593
		 M80.728,104.256h-5.249c-0.291,0-0.525-0.234-0.525-0.524c0-0.289,0.234-0.525,0.525-0.525h5.249c0.29,0,0.525,0.236,0.525,0.525
		C81.252,104.021,81.018,104.256,80.728,104.256 M70.229,104.256h-5.249c-0.29,0-0.525-0.234-0.525-0.524
		c0-0.289,0.235-0.525,0.525-0.525h5.249c0.29,0,0.525,0.236,0.525,0.525C70.753,104.021,70.519,104.256,70.229,104.256
		 M59.73,104.256h-5.249c-0.291,0-0.525-0.234-0.525-0.524c0-0.289,0.234-0.525,0.525-0.525h5.249c0.29,0,0.524,0.236,0.524,0.525
		C60.254,104.021,60.021,104.256,59.73,104.256 M49.231,104.256h-5.25c-0.29,0-0.524-0.234-0.524-0.524
		c0-0.289,0.234-0.525,0.524-0.525h5.25c0.29,0,0.525,0.236,0.525,0.525C49.757,104.021,49.521,104.256,49.231,104.256"/>
	<path clip-path="url(#SVGID_2_)" fill="#181B22" d="M87.813,111.136c-3.734,0-6.771-3.038-6.771-6.772s3.037-6.772,6.771-6.772
		c3.734,0,6.772,3.038,6.772,6.772S91.547,111.136,87.813,111.136 M87.813,98.641c-3.154,0-5.722,2.567-5.722,5.723
		s2.568,5.722,5.722,5.722c3.155,0,5.722-2.566,5.722-5.722S90.968,98.641,87.813,98.641"/>
	<path clip-path="url(#SVGID_2_)" fill="#181B22" d="M128.253,88.889H49.63c-10.451,0-18.952-8.502-18.952-18.953
		c0-10.45,8.501-18.952,18.952-18.952c1.223,0,2.441,0.117,3.626,0.348c4.068-8.882,12.952-14.597,22.753-14.597
		c0.726,0,1.459,0.032,2.185,0.096c6.112-8.197,15.846-13.082,26.1-13.082c17.962,0,32.576,14.607,32.576,32.562
		c0,0.514-0.014,1.034-0.039,1.556c5.015,3.019,8.115,8.479,8.115,14.327C144.946,81.399,137.457,88.889,128.253,88.889
		 M49.63,52.034c-9.871,0-17.902,8.031-17.902,17.902c0,9.872,8.031,17.902,17.902,17.902h78.623
		c8.626,0,15.645-7.018,15.645-15.644c0-5.583-3.016-10.787-7.87-13.583l-0.281-0.162l0.02-0.323
		c0.036-0.609,0.055-1.217,0.055-1.815c0-17.376-14.143-31.512-31.526-31.512c-10.02,0-19.526,4.819-25.43,12.891l-0.177,0.243
		l-0.299-0.03c-0.787-0.078-1.588-0.118-2.379-0.118c-9.526,0-18.148,5.635-21.965,14.357l-0.173,0.394l-0.42-0.092
		C52.208,52.173,50.922,52.034,49.63,52.034"/>
	<path clip-path="url(#SVGID_2_)" fill="#181B22" d="M91.146,76.793h-6.667c-0.761,0-1.379-0.618-1.379-1.379V63.915h-6.037
		c-0.535,0-1.027-0.314-1.251-0.802c-0.226-0.488-0.145-1.066,0.206-1.474l10.747-12.573c0.526-0.616,1.573-0.614,2.095,0.001
		l10.748,12.574c0.348,0.406,0.429,0.983,0.206,1.471c-0.226,0.489-0.718,0.803-1.254,0.803h-6.036v11.499
		C92.525,76.175,91.907,76.793,91.146,76.793 M87.813,49.632c-0.096,0-0.187,0.042-0.25,0.115L76.814,62.322
		c-0.084,0.098-0.102,0.236-0.049,0.352c0.053,0.115,0.171,0.191,0.298,0.191h6.562c0.29,0,0.525,0.235,0.525,0.525v12.024
		c0,0.182,0.148,0.329,0.329,0.329h6.667c0.181,0,0.329-0.147,0.329-0.329V63.39c0-0.29,0.234-0.525,0.524-0.525h6.561
		c0.128,0,0.246-0.076,0.299-0.191c0.055-0.115,0.034-0.254-0.049-0.351L88.063,49.747C88,49.674,87.91,49.632,87.813,49.632"/>
	<path clip-path="url(#SVGID_2_)" fill="#181B22" d="M142.471,112.18h-5.249c-0.29,0-0.524-0.234-0.524-0.524
		s0.234-0.525,0.524-0.525h5.249c0.291,0,0.525,0.235,0.525,0.525S142.762,112.18,142.471,112.18 M131.973,112.18h-5.249
		c-0.291,0-0.524-0.234-0.524-0.524s0.233-0.525,0.524-0.525h5.249c0.29,0,0.524,0.235,0.524,0.525S132.263,112.18,131.973,112.18
		 M121.474,112.18h-5.249c-0.29,0-0.524-0.234-0.524-0.524s0.234-0.525,0.524-0.525h5.249c0.291,0,0.525,0.235,0.525,0.525
		S121.765,112.18,121.474,112.18"/>
	<path clip-path="url(#SVGID_2_)" fill="#181B22" d="M41.562,96.93h-5.249c-0.29,0-0.525-0.234-0.525-0.524
		c0-0.291,0.235-0.525,0.525-0.525h5.249c0.29,0,0.525,0.234,0.525,0.525C42.086,96.695,41.852,96.93,41.562,96.93 M31.063,96.93
		h-5.25c-0.29,0-0.525-0.234-0.525-0.524c0-0.291,0.235-0.525,0.525-0.525h5.25c0.29,0,0.524,0.234,0.524,0.525
		C31.587,96.695,31.354,96.93,31.063,96.93 M20.564,96.93h-5.25c-0.29,0-0.524-0.234-0.524-0.524c0-0.291,0.234-0.525,0.524-0.525
		h5.25c0.29,0,0.525,0.234,0.525,0.525C21.09,96.695,20.854,96.93,20.564,96.93"/>
	<path clip-path="url(#SVGID_2_)" fill="#181B22" d="M168.512,31.173H146.61c-3.12,0-5.658-2.539-5.658-5.659
		c0-3.12,2.538-5.658,5.658-5.658c0.267,0,0.53,0.018,0.792,0.055c1.312-2.585,4.063-4.194,6.988-4.012
		c1.78-2.279,4.541-3.631,7.447-3.631c5.212,0,9.454,4.24,9.454,9.45c0,0.077-0.001,0.154-0.003,0.23
		c1.396,0.93,2.253,2.509,2.253,4.195C173.542,28.917,171.286,31.173,168.512,31.173 M146.61,20.906
		c-2.542,0-4.608,2.067-4.608,4.608s2.066,4.609,4.608,4.609h21.901c2.196,0,3.98-1.785,3.98-3.98c0-1.42-0.768-2.744-2.003-3.456
		c-0.172-0.099-0.274-0.288-0.262-0.486c0.01-0.161,0.015-0.323,0.015-0.483c0-4.631-3.771-8.4-8.404-8.4
		c-2.671,0-5.205,1.285-6.779,3.437c-0.109,0.15-0.287,0.232-0.476,0.213c-2.696-0.271-5.31,1.258-6.397,3.741
		c-0.1,0.228-0.343,0.358-0.594,0.301C147.273,20.941,146.943,20.906,146.61,20.906"/>
	<path clip-path="url(#SVGID_2_)" fill="#181B22" d="M176.205,36.265h-30.363c-0.29,0-0.525-0.234-0.525-0.525
		c0-0.29,0.235-0.525,0.525-0.525h30.363c0.291,0,0.524,0.235,0.524,0.525C176.729,36.031,176.496,36.265,176.205,36.265"/>
	<path clip-path="url(#SVGID_2_)" fill="#181B22" d="M167.066,93.105c-0.105,0-0.209-0.03-0.302-0.094l-4.736-3.308
		c-0.238-0.166-0.296-0.493-0.13-0.73c0.167-0.239,0.495-0.295,0.73-0.131l4.737,3.308c0.238,0.166,0.296,0.493,0.13,0.73
		C167.395,93.027,167.231,93.105,167.066,93.105"/>
	<path clip-path="url(#SVGID_2_)" fill="#181B22" d="M159.407,85.889c-0.291,0-0.524-0.235-0.524-0.525v-5.093
		c0-0.29,0.233-0.524,0.524-0.524c0.29,0,0.525,0.234,0.525,0.524v5.093C159.933,85.653,159.697,85.889,159.407,85.889"/>
	<path clip-path="url(#SVGID_2_)" fill="#181B22" d="M151.75,93.105c-0.165,0-0.328-0.078-0.432-0.225
		c-0.166-0.237-0.106-0.564,0.131-0.73l4.737-3.308c0.236-0.164,0.564-0.108,0.731,0.131c0.166,0.237,0.107,0.564-0.13,0.73
		l-4.738,3.308C151.959,93.075,151.854,93.105,151.75,93.105"/>
	<path clip-path="url(#SVGID_2_)" fill="#62BE24" d="M159.407,105.303c-1.579,0-2.863-1.285-2.863-2.864
		c0-1.578,1.284-2.862,2.863-2.862s2.863,1.284,2.863,2.862C162.271,104.018,160.986,105.303,159.407,105.303 M159.407,100.626
		c-1,0-1.813,0.813-1.813,1.813c0,1.001,0.813,1.814,1.813,1.814s1.813-0.813,1.813-1.814
		C161.221,101.439,160.407,100.626,159.407,100.626"/>
	<path clip-path="url(#SVGID_2_)" fill="#FF687D" d="M136.887,131.017c-0.701,0-1.36-0.272-1.855-0.77l-2.506-2.504
		c-1.023-1.024-1.023-2.689,0-3.713l2.506-2.505c0.99-0.99,2.718-0.991,3.711,0l2.506,2.505c1.022,1.023,1.022,2.688,0,3.713
		l-2.506,2.504C138.246,130.744,137.586,131.017,136.887,131.017 M136.887,121.806c-0.421,0-0.816,0.164-1.113,0.462l-2.506,2.505
		c-0.614,0.614-0.614,1.613,0,2.228l2.506,2.505c0.593,0.596,1.631,0.596,2.227,0l2.506-2.505c0.612-0.614,0.612-1.613,0-2.228
		L138,122.268C137.702,121.97,137.307,121.806,136.887,121.806"/>
	<path clip-path="url(#SVGID_2_)" fill="#FF687D" d="M150.248,131.016c-0.672,0-1.345-0.257-1.856-0.769l-2.504-2.504
		c-1.024-1.024-1.024-2.689,0-3.713l2.504-2.505c1.023-1.022,2.689-1.025,3.712,0l2.505,2.505c1.024,1.023,1.024,2.688,0,3.713
		l-2.505,2.504C151.593,130.759,150.92,131.016,150.248,131.016 M150.249,121.807c-0.404,0-0.808,0.153-1.115,0.461l-2.504,2.505
		c-0.614,0.614-0.614,1.613,0,2.228l2.504,2.505c0.616,0.615,1.614,0.614,2.228,0l2.506-2.505c0.613-0.614,0.613-1.613,0-2.228
		l-2.506-2.505C151.055,121.96,150.651,121.807,150.249,121.807"/>
	<path clip-path="url(#SVGID_2_)" fill="#181B22" d="M31.162,90.8H1.493c-0.29,0-0.525-0.234-0.525-0.524s0.235-0.525,0.525-0.525
		h29.669c0.29,0,0.525,0.235,0.525,0.525S31.452,90.8,31.162,90.8"/>
	<path clip-path="url(#SVGID_2_)" fill="#FFDA68" d="M41.445,5.84c-1.579,0-2.864-1.283-2.864-2.863
		c0-1.579,1.285-2.864,2.864-2.864c1.579,0,2.862,1.285,2.862,2.864C44.307,4.557,43.024,5.84,41.445,5.84 M41.445,1.164
		c-1,0-1.814,0.813-1.814,1.813s0.814,1.813,1.814,1.813s1.812-0.813,1.812-1.813S42.445,1.164,41.445,1.164"/>
	<path clip-path="url(#SVGID_2_)" fill="#181B22" d="M184.172,40.514h-19.999c-0.29,0-0.523-0.234-0.523-0.524
		c0-0.291,0.233-0.526,0.523-0.526h19.999c0.291,0,0.525,0.235,0.525,0.526C184.697,40.28,184.463,40.514,184.172,40.514"/>
	<path clip-path="url(#SVGID_2_)" fill="#181B22" d="M182.927,127.152h-1.549c-0.289,0-0.524-0.235-0.524-0.525
		s0.235-0.524,0.524-0.524h1.549c0.695,0,1.262-0.566,1.262-1.263v-20.968c0-0.696-0.566-1.262-1.262-1.262h-13.027
		c-0.696,0-1.262,0.565-1.262,1.262v1.708c0,0.29-0.234,0.525-0.525,0.525c-0.29,0-0.524-0.235-0.524-0.525v-1.708
		c0-1.274,1.037-2.312,2.312-2.312h13.027c1.273,0,2.312,1.037,2.312,2.312v20.968C185.238,126.114,184.2,127.152,182.927,127.152"
		/>
	<path clip-path="url(#SVGID_2_)" fill="#181B22" d="M179.083,130.011l-13.334-0.046c-0.684-0.003-1.324-0.271-1.808-0.757
		c-0.481-0.485-0.745-1.129-0.743-1.812l0.054-17.004c0.001-0.29,0.235-0.523,0.524-0.523h0.002
		c0.289,0.001,0.524,0.236,0.523,0.526l-0.053,17.004c-0.003,0.833,0.671,1.512,1.504,1.516l13.332,0.046
		c0.828,0,1.505-0.675,1.508-1.504l0.07-20.287c0.003-0.833-0.671-1.513-1.505-1.515l-9.941-0.027
		c-0.29-0.001-0.525-0.236-0.524-0.527c0.001-0.289,0.236-0.522,0.525-0.522h0.001l9.943,0.026c1.411,0.005,2.556,1.157,2.551,2.569
		l-0.07,20.287C181.638,128.867,180.489,130.011,179.083,130.011"/>
	<path clip-path="url(#SVGID_2_)" fill="#181B22" d="M168.666,111.427h-0.006l-4.889-0.018c-0.197,0-0.38-0.112-0.468-0.291
		c-0.047-0.093-0.063-0.195-0.051-0.296c0.001-0.039,0.002-0.132-0.002-0.349c-0.011-0.618,0.234-1.201,0.69-1.639l3.794-3.634
		c0.427-0.407,0.978-0.596,1.554-0.623c0.315,0.003,0.397,0.001,0.42,0.002c0.136-0.008,0.282,0.051,0.384,0.148
		c0.102,0.1,0.161,0.236,0.161,0.378l-0.017,4.755C170.234,110.726,169.53,111.427,168.666,111.427 M164.303,110.361l4.361,0.016
		h0.002c0.286,0,0.52-0.232,0.521-0.52l0.015-4.228c-0.207,0.011-0.483,0.084-0.741,0.33l-3.792,3.632
		C164.396,109.853,164.315,110.141,164.303,110.361"/>
	<path clip-path="url(#SVGID_2_)" fill="#181B22" d="M183.047,50.948c-0.162,0-0.323-0.075-0.427-0.217
		c-0.17-0.235-0.115-0.563,0.118-0.733l4.684-3.392l-4.698-3.667c-0.229-0.179-0.271-0.508-0.092-0.736
		c0.18-0.231,0.509-0.27,0.737-0.091l5.249,4.097c0.13,0.101,0.205,0.259,0.202,0.423c-0.003,0.165-0.083,0.319-0.217,0.416
		l-5.249,3.8C183.262,50.917,183.152,50.948,183.047,50.948"/>
	<path clip-path="url(#SVGID_2_)" fill="#181B22" d="M20.094,74.491c0.941,0,1.705,0.764,1.705,1.705s-0.764,1.705-1.705,1.705
		s-1.705-0.764-1.705-1.705S19.153,74.491,20.094,74.491"/>
	<path clip-path="url(#SVGID_2_)" fill="#181B22" d="M188.295,83.315c0.942,0,1.705,0.764,1.705,1.705s-0.763,1.705-1.705,1.705
		c-0.94,0-1.705-0.764-1.705-1.705S187.354,83.315,188.295,83.315"/>
	<path clip-path="url(#SVGID_2_)" fill="#181B22" d="M99.415,125.281c0.94,0,1.705,0.764,1.705,1.705s-0.765,1.705-1.705,1.705
		c-0.942,0-1.705-0.764-1.705-1.705S98.473,125.281,99.415,125.281"/>
	<path clip-path="url(#SVGID_2_)" fill="#181B22" d="M140.056,7.653c0.941,0,1.705,0.763,1.705,1.705
		c0,0.941-0.764,1.704-1.705,1.704c-0.94,0-1.705-0.763-1.705-1.704C138.351,8.417,139.115,7.653,140.056,7.653"/>
	<path clip-path="url(#SVGID_2_)" fill="#181B22" d="M56.749,12.755c0.941,0,1.705,0.764,1.705,1.705s-0.764,1.705-1.705,1.705
		c-0.941,0-1.705-0.764-1.705-1.705S55.808,12.755,56.749,12.755"/>
	<path clip-path="url(#SVGID_2_)" fill="#181B22" d="M175.927,95.118c-0.29,0-0.525-0.235-0.525-0.525v-5.249
		c0-0.29,0.235-0.524,0.525-0.524c0.291,0,0.524,0.234,0.524,0.524v5.249C176.451,94.883,176.218,95.118,175.927,95.118
		 M175.927,84.619c-0.29,0-0.525-0.234-0.525-0.524v-5.249c0-0.29,0.235-0.525,0.525-0.525c0.291,0,0.524,0.235,0.524,0.525v5.249
		C176.451,84.385,176.218,84.619,175.927,84.619 M175.927,74.121c-0.29,0-0.525-0.235-0.525-0.526v-5.249
		c0-0.29,0.235-0.524,0.525-0.524c0.291,0,0.524,0.234,0.524,0.524v5.249C176.451,73.886,176.218,74.121,175.927,74.121
		 M173.478,66.071h-5.249c-0.29,0-0.525-0.234-0.525-0.524s0.235-0.526,0.525-0.526h5.249c0.29,0,0.525,0.236,0.525,0.526
		S173.768,66.071,173.478,66.071 M162.979,66.071h-5.249c-0.291,0-0.525-0.234-0.525-0.524s0.234-0.526,0.525-0.526h5.249
		c0.29,0,0.524,0.236,0.524,0.526S163.27,66.071,162.979,66.071 M152.48,66.071h-5.25c-0.29,0-0.523-0.234-0.523-0.524
		s0.233-0.526,0.523-0.526h5.25c0.29,0,0.525,0.236,0.525,0.526S152.771,66.071,152.48,66.071"/>
	<path clip-path="url(#SVGID_2_)" fill="#181B22" d="M78.896,14.948H65.24c-0.809,0-1.468-0.658-1.468-1.467V5.958
		c0-0.809,0.659-1.467,1.468-1.467h5.479l1.244-1.884c0.261-0.421,0.727-0.679,1.238-0.679h5.695c0.809,0,1.466,0.658,1.466,1.467
		v10.086C80.362,14.29,79.705,14.948,78.896,14.948 M65.24,5.541c-0.23,0-0.418,0.187-0.418,0.417v7.523
		c0,0.23,0.188,0.417,0.418,0.417h13.656c0.23,0,0.416-0.187,0.416-0.417V3.395c0-0.23-0.186-0.418-0.416-0.418h-5.695
		c-0.147,0-0.276,0.073-0.354,0.198L71.542,5.15c-0.15,0.241-0.419,0.391-0.71,0.391H65.24z M70.662,4.576
		c-0.001,0.002-0.003,0.005-0.004,0.007L70.662,4.576z"/>
	<path clip-path="url(#SVGID_2_)" fill="#181B22" d="M113.773,15.984c0.941,0,1.705,0.763,1.705,1.705
		c0,0.941-0.764,1.704-1.705,1.704c-0.94,0-1.705-0.763-1.705-1.704C112.068,16.748,112.833,15.984,113.773,15.984"/>
	<path clip-path="url(#SVGID_2_)" fill="#181B22" d="M119.479,9.507c-0.104,0-0.209-0.03-0.3-0.094l-3.255-2.272
		c-0.238-0.166-0.297-0.493-0.131-0.731c0.168-0.239,0.496-0.295,0.73-0.131l3.255,2.273c0.239,0.166,0.297,0.493,0.131,0.73
		C119.808,9.429,119.645,9.507,119.479,9.507"/>
	<path clip-path="url(#SVGID_2_)" fill="#181B22" d="M114.219,4.549c-0.291,0-0.525-0.235-0.525-0.525V0.525
		c0-0.29,0.234-0.525,0.525-0.525c0.29,0,0.524,0.235,0.524,0.525v3.499C114.743,4.314,114.509,4.549,114.219,4.549"/>
	<path clip-path="url(#SVGID_2_)" fill="#181B22" d="M108.957,9.507c-0.165,0-0.328-0.078-0.432-0.225
		c-0.166-0.237-0.106-0.564,0.131-0.73l3.256-2.273c0.234-0.164,0.563-0.108,0.73,0.131c0.166,0.238,0.107,0.565-0.13,0.731
		l-3.256,2.272C109.166,9.477,109.061,9.507,108.957,9.507"/>
	<path clip-path="url(#SVGID_2_)" fill="#181B22" d="M99.414,19.654c-0.29,0-0.524-0.234-0.524-0.525v-5.25
		c0-0.29,0.234-0.524,0.524-0.524s0.525,0.234,0.525,0.524v5.25C99.939,19.42,99.704,19.654,99.414,19.654 M99.414,9.156
		c-0.29,0-0.524-0.236-0.524-0.526V8.233h-3.801c-0.292,0-0.525-0.235-0.525-0.525s0.234-0.525,0.525-0.525h4.325
		c0.29,0,0.525,0.235,0.525,0.525V8.63C99.939,8.92,99.704,9.156,99.414,9.156 M89.838,8.233h-5.249
		c-0.29,0-0.525-0.235-0.525-0.525s0.235-0.525,0.525-0.525h5.249c0.291,0,0.525,0.235,0.525,0.525S90.129,8.233,89.838,8.233"/>
</g>
</svg>
