<?xml version="1.0" encoding="utf-8"?>
<!-- Generator: Adobe Illustrator 16.0.0, SVG Export Plug-In . SVG Version: 6.00 Build 0)  -->
<!DOCTYPE svg PUBLIC "-//W3C//DTD SVG 1.1//EN" "http://www.w3.org/Graphics/SVG/1.1/DTD/svg11.dtd">
<svg version="1.1" id="Layer_1" xmlns="http://www.w3.org/2000/svg" xmlns:xlink="http://www.w3.org/1999/xlink" x="0px" y="0px"
	viewBox="0 0 63.464 62" enable-background="new 0 0 63.464 62" xml:space="preserve">
<g>
	<defs>
		<rect id="SVGID_1_" width="63.463" height="62"/>
	</defs>
	<clipPath id="SVGID_2_">
		<use xlink:href="#SVGID_1_"  overflow="visible"/>
	</clipPath>
	
		<circle clip-path="url(#SVGID_2_)" fill="none" stroke="#FFDA68" stroke-width="2" stroke-linecap="round" stroke-linejoin="round" cx="15.634" cy="17.098" r="14.634"/>
	
		<circle clip-path="url(#SVGID_2_)" fill="none" stroke="#FFDA68" stroke-width="2" stroke-linecap="round" stroke-linejoin="round" cx="41.244" cy="7.585" r="6.585"/>
	
		<path clip-path="url(#SVGID_2_)" fill="none" stroke="#FFDA68" stroke-width="2" stroke-linecap="round" stroke-linejoin="round" d="
		M11.244,22.951h5.854c1.463,0,2.926-1.052,2.926-2.927c0-1.738-1.463-2.927-2.926-2.927h-2.927c-1.464,0-2.927-1.028-2.927-2.926
		c0-1.784,1.463-2.927,2.927-2.927h5.853"/>
	
		<line clip-path="url(#SVGID_2_)" fill="none" stroke="#FFDA68" stroke-width="2" stroke-linecap="round" stroke-linejoin="round" x1="15.634" y1="11.244" x2="15.634" y2="8.317"/>
	
		<line clip-path="url(#SVGID_2_)" fill="none" stroke="#FFDA68" stroke-width="2" stroke-linecap="round" stroke-linejoin="round" x1="15.634" y1="25.878" x2="15.634" y2="22.951"/>
	
		<path clip-path="url(#SVGID_2_)" fill="none" stroke="#FFDA68" stroke-width="2" stroke-linecap="round" stroke-linejoin="round" d="
		M11.244,36.122c-0.228,1.102-0.505,2.626-0.505,3.796c0,8.191,4.091,10.034,7.822,13.765c1.463,1.464,1.463,5.854,1.463,5.854
		C20.024,61,20.68,61,21.488,61h5.854c0.808,0,1.463-0.705,1.463-1.463v-1.464c1.463,0.383,3.829,0.398,5.854,0.398
		c2.023,0,2.926-0.016,5.853-0.398v1.464c0,0.758,0.656,1.463,1.464,1.463h5.854c0.809,0,1.464-0.705,1.464-1.463
		c0,0,0-4.391,1.463-5.854c2.135-2.135,5.854-4.391,7.317-8.78H61c0.956,0,1.464-0.221,1.464-1.463v-7.317
		c0-1.263-0.508-1.463-1.464-1.463h-2.927c0-2.927-4.391-7.318-5.854-8.781c-1.455-1.455,1.463-7.317,1.463-7.317
		c-5.854-1.463-10.294,4.852-11.707,4.39c-2.152-0.704-4.894-1.284-7.316-1.463"/>
	
		<path clip-path="url(#SVGID_2_)" fill="none" stroke="#FFDA68" stroke-width="2" stroke-linecap="round" stroke-linejoin="round" d="
		M5.391,36.122c-1.01,6.059,2.854,5.151,5.341,4.01"/>
	
		<line clip-path="url(#SVGID_2_)" fill="none" stroke="#FFDA68" stroke-width="2" stroke-linecap="round" stroke-linejoin="round" x1="44.902" y1="34.659" x2="49.293" y2="34.659"/>
</g>
</svg>
