<?xml version="1.0" encoding="utf-8"?>
<!-- Generator: Adobe Illustrator 16.0.0, SVG Export Plug-In . SVG Version: 6.00 Build 0)  -->
<!DOCTYPE svg PUBLIC "-//W3C//DTD SVG 1.1//EN" "http://www.w3.org/Graphics/SVG/1.1/DTD/svg11.dtd">
<svg version="1.1" id="Layer_1" xmlns="http://www.w3.org/2000/svg" xmlns:xlink="http://www.w3.org/1999/xlink" x="0px" y="0px"
	viewBox="0 0 51.655 62" enable-background="new 0 0 51.655 62" xml:space="preserve">
<path fill="none" stroke="#FFDA68" stroke-width="2" stroke-linecap="round" stroke-linejoin="round" d="M1,61
	c6.896-4.138,13.793-1.379,16.552-1.379h16.551c4.19,0,7.181-4.05,13.788-9.655c2.438-2.068,3.728-3.973,1.909-5.943
	c-1.814-1.969-4.648-0.154-5.696,0.555L35.2,50.276"/>
<path fill="none" stroke="#FFDA68" stroke-width="2" stroke-linecap="round" stroke-linejoin="round" d="M25.117,52.748h6.896
	c4.435,0,4.435-6.884,0-6.896c-8.945-0.024-11.703-1.403-17.221-1.403c-4.137,0-5.517,4.138-12.413,5.518"/>
<line fill="none" stroke="#FFDA68" stroke-width="2" stroke-linecap="round" stroke-linejoin="round" x1="27.207" y1="23.069" x2="27.207" y2="10.655"/>
<line fill="none" stroke="#FFDA68" stroke-width="2" stroke-linecap="round" stroke-linejoin="round" x1="35.482" y1="31.345" x2="27.207" y2="23.07"/>
<line fill="none" stroke="#FFDA68" stroke-width="2" stroke-linecap="round" stroke-linejoin="round" x1="46.517" y1="23.069" x2="49.276" y2="23.069"/>
<line fill="none" stroke="#FFDA68" stroke-width="2" stroke-linecap="round" stroke-linejoin="round" x1="27.207" y1="1" x2="27.207" y2="3.759"/>
<path fill="none" stroke="#FFDA68" stroke-width="2" stroke-linecap="round" stroke-linejoin="round" d="M12.699,39.699
	c-4.633-4.046-7.561-9.996-7.561-16.63C5.138,10.881,15.019,1,27.207,1c12.188,0,22.068,9.881,22.068,22.069
	c0,6.607-2.902,12.535-7.504,16.58"/>
<line fill="none" stroke="#FFDA68" stroke-width="2" stroke-linecap="round" stroke-linejoin="round" x1="5.138" y1="23.069" x2="7.896" y2="23.069"/>
<rect fill="none" width="51.655" height="62"/>
</svg>
