<?xml version="1.0" encoding="utf-8"?>
<!-- Generator: Adobe Illustrator 16.0.0, SVG Export Plug-In . SVG Version: 6.00 Build 0)  -->
<!DOCTYPE svg PUBLIC "-//W3C//DTD SVG 1.1//EN" "http://www.w3.org/Graphics/SVG/1.1/DTD/svg11.dtd">
<svg version="1.1" id="Layer_1" xmlns="http://www.w3.org/2000/svg" xmlns:xlink="http://www.w3.org/1999/xlink" x="0px" y="0px"
	viewBox="0 0 64.728 62" enable-background="new 0 0 64.728 62" xml:space="preserve">
<g>
	<defs>
		<rect id="SVGID_1_" width="64.727" height="62"/>
	</defs>
	<clipPath id="SVGID_2_">
		<use xlink:href="#SVGID_1_"  overflow="visible"/>
	</clipPath>
	
		<path clip-path="url(#SVGID_2_)" fill="none" stroke="#FFDA68" stroke-width="2" stroke-linecap="round" stroke-linejoin="round" d="
		M17.432,22.391C18.346,10.425,28.345,1,40.545,1c12.803,0,23.182,10.379,23.182,23.182S53.348,47.363,40.545,47.363
		c-2.16,0-4.251-0.295-6.235-0.848"/>
	
		<path clip-path="url(#SVGID_2_)" fill="none" stroke="#FFDA68" stroke-width="2" stroke-linecap="round" stroke-linejoin="round" d="
		M9.182,61c1.929-1.929,3.991-0.363,5.919-2.292l9.643-9.643c3.857-3.856-3.857-11.571-3.857-11.571l6.268-6.267
		c1.331-1.331,1.446-3.375,0-4.821c-1.448-1.446-3.491-1.332-4.822,0L10.28,38.459l-2.769-5.752
		c-1.376-2.856-5.698-1.449-5.131,1.671c1.173,6.448,2.312,12.021,1.347,12.985L1,50.091"/>
	
		<polyline clip-path="url(#SVGID_2_)" fill="none" stroke="#FFDA68" stroke-width="2" stroke-linecap="round" stroke-linejoin="round" points="
		32.364,24.182 37.817,29.637 50.772,16.682 	"/>
</g>
</svg>
