<?xml version="1.0" encoding="utf-8"?>
<!-- Generator: Adobe Illustrator 16.0.0, SVG Export Plug-In . SVG Version: 6.00 Build 0)  -->
<!DOCTYPE svg PUBLIC "-//W3C//DTD SVG 1.1//EN" "http://www.w3.org/Graphics/SVG/1.1/DTD/svg11.dtd">
<svg version="1.1" id="Layer_1" xmlns="http://www.w3.org/2000/svg" xmlns:xlink="http://www.w3.org/1999/xlink" x="0px" y="0px"
 viewBox="0 0 51.999 62" enable-background="new 0 0 51.999 62" xml:space="preserve">
<path fill="none" stroke="#FFDA68" stroke-width="2" stroke-linecap="round" stroke-linejoin="round" d="M3.608,1h44.782
	c1.44,0,2.608,1.168,2.608,2.608v54.784c0,1.44-1.168,2.608-2.608,2.608H3.608C2.168,61,1,59.832,1,58.392V3.608
	C1,2.168,2.168,1,3.608,1z"/>
<line fill="none" stroke="#FFDA68" stroke-width="2" stroke-linecap="round" stroke-linejoin="round" x1="9.478" y1="9" x2="42.521" y2="9"/>
<line fill="none" stroke="#FFDA68" stroke-width="2" stroke-linecap="round" stroke-linejoin="round" x1="13.391" y1="14.521" x2="38.608" y2="14.521"/>
<circle fill="none" stroke="#FFDA68" stroke-width="2" stroke-linecap="round" stroke-linejoin="round" cx="26" cy="31.435" r="10.435"/>
<polyline fill="none" stroke="#FFDA68" stroke-width="2" stroke-linecap="round" stroke-linejoin="round" points="31.963,40.379 
	34.943,53 25.999,48.528 17.056,53 20.037,40.379 "/>
<polyline fill="none" stroke="#FFDA68" stroke-width="2" stroke-linecap="round" stroke-linejoin="round" points="30.472,28.453 
	24.509,34.416 21.528,31.435 "/>
<rect fill="none" width="51.999" height="62"/>
</svg>
