<?xml version="1.0" encoding="utf-8"?>
<!-- Generator: Adobe Illustrator 16.0.0, SVG Export Plug-In . SVG Version: 6.00 Build 0)  -->
<!DOCTYPE svg PUBLIC "-//W3C//DTD SVG 1.1//EN" "http://www.w3.org/Graphics/SVG/1.1/DTD/svg11.dtd">
<svg version="1.1" id="Layer_1" xmlns="http://www.w3.org/2000/svg" xmlns:xlink="http://www.w3.org/1999/xlink" x="0px" y="0px"
	 viewBox="0 0 23 23.085" enable-background="new 0 0 23 23.085" xml:space="preserve">
<g>
	<defs>
		<rect id="SVGID_1_" y="0" width="23" height="23.085"/>
	</defs>
	<clipPath id="SVGID_2_">
		<use xlink:href="#SVGID_1_"  overflow="visible"/>
	</clipPath>
	<path clip-path="url(#SVGID_2_)" fill="#FF687D" d="M11.5,1.043c5.79,0,10.5,4.71,10.5,10.5c0,5.79-4.71,10.5-10.5,10.5
		S1,17.333,1,11.543C1,5.753,5.71,1.043,11.5,1.043 M11.5,0.043C5.148,0.043,0,5.192,0,11.543s5.148,11.5,11.5,11.5
		c6.352,0,11.5-5.148,11.5-11.5S17.852,0.043,11.5,0.043"/>
	<line clip-path="url(#SVGID_2_)" fill="none" stroke="#FF687D" stroke-miterlimit="10" x1="0" y1="11.543" x2="23" y2="11.543"/>
	<path clip-path="url(#SVGID_2_)" fill="none" stroke="#FF687D" stroke-miterlimit="10" d="M11.5,0.354
		c-5.111,5.111-5.111,17.267,0,22.378"/>
	<path clip-path="url(#SVGID_2_)" fill="none" stroke="#FF687D" stroke-miterlimit="10" d="M11.5,0.354
		c5.111,5.111,5.111,17.267,0,22.378"/>
</g>
</svg>
