<?xml version="1.0" encoding="utf-8"?>
<!-- Generator: Adobe Illustrator 16.0.0, SVG Export Plug-In . SVG Version: 6.00 Build 0)  -->
<!DOCTYPE svg PUBLIC "-//W3C//DTD SVG 1.1//EN" "http://www.w3.org/Graphics/SVG/1.1/DTD/svg11.dtd">
<svg version="1.1" id="Layer_1" xmlns="http://www.w3.org/2000/svg" xmlns:xlink="http://www.w3.org/1999/xlink" x="0px" y="0px"
	viewBox="0 0 450 490.75" enable-background="new 0 0 450 490.75" xml:space="preserve">
<path fill="#231F20" d="M151.5,241.857h147.001V489.25H151.5V241.857z M150,490.75h149.999V240.357H150V490.75z"/>
<rect x="170" y="260.389" fill="none" stroke="#231F20" stroke-width="1.5" stroke-miterlimit="10" width="110" height="30.047"/>
<line fill="none" stroke="#231F20" stroke-width="1.5" stroke-miterlimit="10" x1="265" y1="275.412" x2="225" y2="275.412"/>
<g>
	<defs>
		<rect id="SVGID_1_" width="450" height="490.75"/>
	</defs>
	<clipPath id="SVGID_2_">
		<use xlink:href="#SVGID_1_"  overflow="visible"/>
	</clipPath>
	
		<ellipse clip-path="url(#SVGID_2_)" fill="none" stroke="#231F20" stroke-width="1.5" stroke-miterlimit="10" cx="190" cy="275.412" rx="5" ry="5.008"/>
	
		<ellipse clip-path="url(#SVGID_2_)" fill="none" stroke="#FFDA68" stroke-width="1.5" stroke-linecap="round" stroke-linejoin="round" stroke-miterlimit="10" cx="210" cy="275.412" rx="5" ry="5.008"/>
	
		<rect x="170" y="300.451" clip-path="url(#SVGID_2_)" fill="none" stroke="#231F20" stroke-width="1.5" stroke-miterlimit="10" width="110" height="30.047"/>
	
		<line clip-path="url(#SVGID_2_)" fill="none" stroke="#FF687D" stroke-width="1.5" stroke-linecap="round" stroke-linejoin="round" stroke-miterlimit="10" x1="265" y1="315.475" x2="225" y2="315.475"/>
	
		<ellipse clip-path="url(#SVGID_2_)" fill="none" stroke="#FFDA68" stroke-width="1.5" stroke-linecap="round" stroke-linejoin="round" stroke-miterlimit="10" cx="190" cy="315.475" rx="5" ry="5.008"/>
	
		<ellipse clip-path="url(#SVGID_2_)" fill="none" stroke="#FF687D" stroke-width="1.5" stroke-linecap="round" stroke-linejoin="round" stroke-miterlimit="10" cx="210" cy="315.475" rx="5" ry="5.008"/>
	
		<rect x="170" y="340.515" clip-path="url(#SVGID_2_)" fill="none" stroke="#231F20" stroke-width="1.5" stroke-miterlimit="10" width="110" height="30.047"/>
	
		<line clip-path="url(#SVGID_2_)" fill="none" stroke="#231F20" stroke-width="1.5" stroke-miterlimit="10" x1="265" y1="355.538" x2="225" y2="355.538"/>
	
		<line clip-path="url(#SVGID_2_)" fill="none" stroke="#FF687D" stroke-width="1.5" stroke-linecap="round" stroke-linejoin="round" stroke-miterlimit="10" x1="265" y1="395.601" x2="225" y2="395.601"/>
	
		<ellipse clip-path="url(#SVGID_2_)" fill="none" stroke="#231F20" stroke-width="1.5" stroke-miterlimit="10" cx="190" cy="355.538" rx="5" ry="5.008"/>
	
		<ellipse clip-path="url(#SVGID_2_)" fill="none" stroke="#FFDA68" stroke-width="1.5" stroke-linecap="round" stroke-linejoin="round" stroke-miterlimit="10" cx="210" cy="355.538" rx="5" ry="5.008"/>
	
		<rect x="170" y="380.577" clip-path="url(#SVGID_2_)" fill="none" stroke="#231F20" stroke-width="1.5" stroke-miterlimit="10" width="110" height="30.047"/>
	
		<ellipse clip-path="url(#SVGID_2_)" fill="none" stroke="#FF687D" stroke-width="1.5" stroke-linecap="round" stroke-linejoin="round" stroke-miterlimit="10" cx="190" cy="395.601" rx="5" ry="5.008"/>
	
		<ellipse clip-path="url(#SVGID_2_)" fill="none" stroke="#231F20" stroke-width="1.5" stroke-miterlimit="10" cx="200" cy="465.711" rx="5" ry="5.008"/>
	
		<ellipse clip-path="url(#SVGID_2_)" fill="none" stroke="#231F20" stroke-width="1.5" stroke-miterlimit="10" cx="230" cy="465.711" rx="10" ry="10.017"/>
	
		<ellipse clip-path="url(#SVGID_2_)" fill="none" stroke="#231F20" stroke-width="1.5" stroke-miterlimit="10" cx="260" cy="465.711" rx="5" ry="5.008"/>
	
		<ellipse clip-path="url(#SVGID_2_)" fill="none" stroke="#FFDA68" stroke-width="1.5" stroke-linecap="round" stroke-linejoin="round" stroke-miterlimit="10" cx="210" cy="395.601" rx="5" ry="5.008"/>
	
		<line clip-path="url(#SVGID_2_)" fill="none" stroke="#231F20" stroke-width="1.5" stroke-miterlimit="10" x1="151" y1="430.655" x2="299" y2="430.655"/>
	
		<line clip-path="url(#SVGID_2_)" fill="none" stroke="#231F20" stroke-width="1.5" stroke-miterlimit="10" x1="151" y1="440.671" x2="299" y2="440.671"/>
	<path clip-path="url(#SVGID_2_)" fill="#231F20" d="M138.5,469.219H1.5V261.888h137V469.219z M140,260.388H0v210.331h140V260.388z"
		/>
	
		<rect x="20" y="280.42" clip-path="url(#SVGID_2_)" fill="none" stroke="#231F20" stroke-width="1.5" stroke-miterlimit="10" width="100" height="30.047"/>
	
		<line clip-path="url(#SVGID_2_)" fill="none" stroke="#231F20" stroke-width="1.5" stroke-miterlimit="10" x1="110" y1="295.443" x2="70" y2="295.443"/>
	
		<ellipse clip-path="url(#SVGID_2_)" fill="none" stroke="#231F20" stroke-width="1.5" stroke-miterlimit="10" cx="35" cy="295.443" rx="5" ry="5.008"/>
	
		<ellipse clip-path="url(#SVGID_2_)" fill="none" stroke="#FFDA68" stroke-width="1.5" stroke-linecap="round" stroke-linejoin="round" stroke-miterlimit="10" cx="53" cy="295.443" rx="5" ry="5.008"/>
	
		<rect x="20" y="320.483" clip-path="url(#SVGID_2_)" fill="none" stroke="#231F20" stroke-width="1.5" stroke-miterlimit="10" width="100" height="30.047"/>
	
		<line clip-path="url(#SVGID_2_)" fill="none" stroke="#FF687D" stroke-width="1.5" stroke-linecap="round" stroke-linejoin="round" stroke-miterlimit="10" x1="110" y1="335.507" x2="70" y2="335.507"/>
	
		<ellipse clip-path="url(#SVGID_2_)" fill="none" stroke="#FFDA68" stroke-width="1.5" stroke-linecap="round" stroke-linejoin="round" stroke-miterlimit="10" cx="35" cy="335.507" rx="5" ry="5.008"/>
	
		<ellipse clip-path="url(#SVGID_2_)" fill="none" stroke="#FF687D" stroke-width="1.5" stroke-linecap="round" stroke-linejoin="round" stroke-miterlimit="10" cx="53" cy="335.507" rx="5" ry="5.008"/>
	
		<rect x="20" y="360.546" clip-path="url(#SVGID_2_)" fill="none" stroke="#231F20" stroke-width="1.5" stroke-miterlimit="10" width="100" height="30.047"/>
	
		<line clip-path="url(#SVGID_2_)" fill="none" stroke="#231F20" stroke-width="1.5" stroke-miterlimit="10" x1="110" y1="375.569" x2="70" y2="375.569"/>
	
		<ellipse clip-path="url(#SVGID_2_)" fill="none" stroke="#231F20" stroke-width="1.5" stroke-miterlimit="10" cx="35" cy="375.569" rx="5" ry="5.008"/>
	
		<ellipse clip-path="url(#SVGID_2_)" fill="none" stroke="#FFDA68" stroke-width="1.5" stroke-linecap="round" stroke-linejoin="round" stroke-miterlimit="10" cx="53" cy="375.569" rx="5" ry="5.008"/>
	
		<ellipse clip-path="url(#SVGID_2_)" fill="none" stroke="#231F20" stroke-width="1.5" stroke-miterlimit="10" cx="50" cy="445.679" rx="5" ry="5.008"/>
	
		<ellipse clip-path="url(#SVGID_2_)" fill="none" stroke="#231F20" stroke-width="1.5" stroke-miterlimit="10" cx="80" cy="445.679" rx="10" ry="10.016"/>
	
		<ellipse clip-path="url(#SVGID_2_)" fill="none" stroke="#231F20" stroke-width="1.5" stroke-miterlimit="10" cx="110" cy="445.679" rx="5" ry="5.008"/>
	
		<line clip-path="url(#SVGID_2_)" fill="none" stroke="#231F20" stroke-width="1.5" stroke-miterlimit="10" x1="1" y1="410.624" x2="139" y2="410.624"/>
	
		<line clip-path="url(#SVGID_2_)" fill="none" stroke="#231F20" stroke-width="1.5" stroke-miterlimit="10" x1="1" y1="420.64" x2="139" y2="420.64"/>
	<path clip-path="url(#SVGID_2_)" fill="#231F20" d="M448.5,469.219h-137V261.888h137V469.219z M450,260.388H310v210.331h140
		V260.388z"/>
	
		<rect x="330" y="280.42" clip-path="url(#SVGID_2_)" fill="none" stroke="#231F20" stroke-width="1.5" stroke-miterlimit="10" width="100" height="30.047"/>
	
		<line clip-path="url(#SVGID_2_)" fill="none" stroke="#231F20" stroke-width="1.5" stroke-miterlimit="10" x1="420" y1="295.443" x2="380" y2="295.443"/>
	
		<ellipse clip-path="url(#SVGID_2_)" fill="none" stroke="#231F20" stroke-width="1.5" stroke-miterlimit="10" cx="345" cy="295.443" rx="5" ry="5.008"/>
	
		<ellipse clip-path="url(#SVGID_2_)" fill="none" stroke="#FFDA68" stroke-width="1.5" stroke-linecap="round" stroke-linejoin="round" stroke-miterlimit="10" cx="363" cy="295.443" rx="5" ry="5.008"/>
	
		<rect x="330" y="320.483" clip-path="url(#SVGID_2_)" fill="none" stroke="#231F20" stroke-width="1.5" stroke-miterlimit="10" width="100" height="30.047"/>
	
		<line clip-path="url(#SVGID_2_)" fill="none" stroke="#FF687D" stroke-width="1.5" stroke-linecap="round" stroke-linejoin="round" stroke-miterlimit="10" x1="420" y1="335.507" x2="380" y2="335.507"/>
	
		<ellipse clip-path="url(#SVGID_2_)" fill="none" stroke="#FFDA68" stroke-width="1.5" stroke-linecap="round" stroke-linejoin="round" stroke-miterlimit="10" cx="345" cy="335.507" rx="5" ry="5.008"/>
	
		<ellipse clip-path="url(#SVGID_2_)" fill="none" stroke="#FF687D" stroke-width="1.5" stroke-linecap="round" stroke-linejoin="round" stroke-miterlimit="10" cx="363" cy="335.507" rx="5" ry="5.008"/>
	
		<rect x="330" y="360.546" clip-path="url(#SVGID_2_)" fill="none" stroke="#231F20" stroke-width="1.5" stroke-miterlimit="10" width="100" height="30.047"/>
	
		<line clip-path="url(#SVGID_2_)" fill="none" stroke="#231F20" stroke-width="1.5" stroke-miterlimit="10" x1="420" y1="375.569" x2="380" y2="375.569"/>
	
		<ellipse clip-path="url(#SVGID_2_)" fill="none" stroke="#231F20" stroke-width="1.5" stroke-miterlimit="10" cx="345" cy="375.569" rx="5" ry="5.008"/>
	
		<ellipse clip-path="url(#SVGID_2_)" fill="none" stroke="#FFDA68" stroke-width="1.5" stroke-linecap="round" stroke-linejoin="round" stroke-miterlimit="10" cx="363" cy="375.569" rx="5" ry="5.008"/>
	
		<ellipse clip-path="url(#SVGID_2_)" fill="none" stroke="#231F20" stroke-width="1.5" stroke-miterlimit="10" cx="350" cy="445.679" rx="5" ry="5.008"/>
	
		<ellipse clip-path="url(#SVGID_2_)" fill="none" stroke="#231F20" stroke-width="1.5" stroke-miterlimit="10" cx="380" cy="445.679" rx="10" ry="10.016"/>
	
		<ellipse clip-path="url(#SVGID_2_)" fill="none" stroke="#231F20" stroke-width="1.5" stroke-miterlimit="10" cx="410" cy="445.679" rx="5" ry="5.008"/>
	
		<line clip-path="url(#SVGID_2_)" fill="none" stroke="#231F20" stroke-width="1.5" stroke-miterlimit="10" x1="311" y1="410.624" x2="449" y2="410.624"/>
	
		<line clip-path="url(#SVGID_2_)" fill="none" stroke="#231F20" stroke-width="1.5" stroke-miterlimit="10" x1="311" y1="420.64" x2="449" y2="420.64"/>
	
		<line clip-path="url(#SVGID_2_)" fill="none" stroke="#231F20" stroke-width="1.5" stroke-miterlimit="10" x1="225" y1="170.247" x2="225" y2="210.31"/>
	
		<ellipse clip-path="url(#SVGID_2_)" fill="none" stroke="#231F20" stroke-width="1.5" stroke-miterlimit="10" cx="225" cy="220.325" rx="10" ry="10.016"/>
	<polyline clip-path="url(#SVGID_2_)" fill="none" stroke="#231F20" stroke-width="1.5" stroke-miterlimit="10" points="70,226.335 
		70,193.283 380,193.283 380,226.335 	"/>
	
		<ellipse clip-path="url(#SVGID_2_)" fill="none" stroke="#231F20" stroke-width="1.5" stroke-miterlimit="10" cx="70" cy="236.351" rx="10" ry="10.017"/>
	
		<ellipse clip-path="url(#SVGID_2_)" fill="none" stroke="#231F20" stroke-width="1.5" stroke-miterlimit="10" cx="380" cy="236.351" rx="10" ry="10.017"/>
	<path clip-path="url(#SVGID_2_)" fill="#FF687D" d="M25.803,44.945c2.391,0,4.708,0.857,6.525,2.415l10.021,8.587
		c2.36,2.023,5.371,3.137,8.477,3.137h42.473c2.868,0,5.201,2.338,5.201,5.211v56.545c0,2.874-2.333,5.211-5.201,5.211H6.7
		c-2.867,0-5.2-2.337-5.2-5.211V50.156c0-2.874,2.333-5.211,5.2-5.211H25.803 M25.803,43.445H6.7c-3.7,0-6.7,3.004-6.7,6.711v70.684
		c0,3.707,3,6.711,6.7,6.711h86.599c3.701,0,6.701-3.004,6.701-6.711V64.295c0-3.706-3-6.711-6.701-6.711H50.826
		c-2.751,0-5.411-0.985-7.501-2.776L33.304,46.22C31.215,44.429,28.554,43.445,25.803,43.445"/>
	
		<line clip-path="url(#SVGID_2_)" fill="none" stroke="#FF687D" stroke-width="1.5" stroke-linecap="round" stroke-linejoin="round" stroke-miterlimit="10" x1="0.833" y1="115.995" x2="99.166" y2="115.995"/>
	<path clip-path="url(#SVGID_2_)" fill="#FF687D" d="M375.804,44.945c2.392,0,4.708,0.857,6.525,2.415l10.02,8.587
		c2.36,2.023,5.371,3.137,8.479,3.137h42.472c2.868,0,5.201,2.338,5.201,5.211v56.545c0,2.874-2.333,5.211-5.201,5.211h-86.598
		c-2.868,0-5.201-2.337-5.201-5.211V50.156c0-2.874,2.333-5.211,5.201-5.211H375.804 M375.804,43.445h-19.103
		c-3.701,0-6.701,3.004-6.701,6.711v70.684c0,3.707,3,6.711,6.701,6.711h86.598c3.701,0,6.701-3.004,6.701-6.711V64.295
		c0-3.706-3-6.711-6.701-6.711h-42.472c-2.751,0-5.412-0.985-7.502-2.776l-10.021-8.588
		C381.215,44.429,378.554,43.445,375.804,43.445"/>
	
		<line clip-path="url(#SVGID_2_)" fill="none" stroke="#FF687D" stroke-width="1.5" stroke-linecap="round" stroke-linejoin="round" stroke-miterlimit="10" x1="350.833" y1="115.995" x2="449.167" y2="115.995"/>
	<path clip-path="url(#SVGID_2_)" fill="none" stroke="#231F20" stroke-width="1.5" stroke-miterlimit="10" d="M211.65,23.477
		L191.609,6.302c-4.18-3.583-9.501-5.552-15.003-5.552h-38.205C131,0.75,125,6.76,125,14.173v142.651
		c0,7.414,6,13.423,13.401,13.423h173.196c7.402,0,13.402-6.009,13.402-13.423V42.451c0-7.413-6-13.423-13.402-13.423h-84.944
		C221.151,29.028,215.832,27.06,211.65,23.477z"/>
	
		<line clip-path="url(#SVGID_2_)" fill="none" stroke="#231F20" stroke-width="1.5" stroke-miterlimit="10" x1="125" y1="147.133" x2="325" y2="147.133"/>
	
		<path clip-path="url(#SVGID_2_)" fill="none" stroke="#FF687D" stroke-width="1.5" stroke-linecap="round" stroke-linejoin="round" d="
		M248.998,69.244c-5.628-7.285-14.436-11.981-24.344-11.981c-14.863,0-27.264,10.556-30.139,24.591"/>
	<polygon clip-path="url(#SVGID_2_)" fill="#FF687D" points="189.832,75.594 191.142,74.86 194.75,81.316 200.926,77.245 
		201.751,78.499 194.229,83.456 	"/>
	
		<path clip-path="url(#SVGID_2_)" fill="none" stroke="#FF687D" stroke-width="1.5" stroke-linecap="round" stroke-linejoin="round" d="
		M201.002,106.917c5.627,7.285,14.436,11.981,24.344,11.981c14.863,0,27.264-10.556,30.14-24.591"/>
	<polygon clip-path="url(#SVGID_2_)" fill="#FF687D" points="260.168,100.567 258.858,101.302 255.249,94.846 249.073,98.917 
		248.248,97.664 255.771,92.707 	"/>
</g>
</svg>
