<?xml version="1.0" encoding="utf-8"?>
<!-- Generator: Adobe Illustrator 16.0.0, SVG Export Plug-In . SVG Version: 6.00 Build 0)  -->
<!DOCTYPE svg PUBLIC "-//W3C//DTD SVG 1.1//EN" "http://www.w3.org/Graphics/SVG/1.1/DTD/svg11.dtd">
<svg version="1.1" id="Layer_1" xmlns="http://www.w3.org/2000/svg" xmlns:xlink="http://www.w3.org/1999/xlink" x="0px" y="0px"
	viewBox="0 0 19.892 23" enable-background="new 0 0 19.892 23" xml:space="preserve">
<path fill="#CB6686" d="M1,1h17.892v21H1V1z M0,23h19.892V0H0V23z"/>
<path fill="#CB6686" d="M9.946,5.973c2.876,0,5.216,2.34,5.216,5.216c0,2.876-2.34,5.216-5.216,5.216
	c-2.876,0-5.216-2.34-5.216-5.216C4.73,8.313,7.07,5.973,9.946,5.973 M9.946,4.973c-3.433,0-6.216,2.783-6.216,6.216
	s2.783,6.216,6.216,6.216c3.433,0,6.216-2.783,6.216-6.216S13.379,4.973,9.946,4.973"/>
<path fill="#CB6686" d="M9.946,9.081c1.163,0,2.107,0.946,2.107,2.108c0,1.164-0.944,2.108-2.107,2.108s-2.108-0.944-2.108-2.108
	C7.838,10.027,8.783,9.081,9.946,9.081 M9.946,8.081c-1.717,0-3.108,1.392-3.108,3.108c0,1.717,1.391,3.108,3.108,3.108
	c1.717,0,3.107-1.391,3.107-3.108C13.054,9.473,11.663,8.081,9.946,8.081"/>
<line fill="none" stroke="#CB6686" stroke-miterlimit="10" x1="14.025" y1="15.269" x2="16.162" y2="17.405"/>
<rect fill="none" width="19.892" height="23"/>
</svg>
