<?xml version="1.0" encoding="utf-8"?>
<!-- Generator: Adobe Illustrator 16.0.0, SVG Export Plug-In . SVG Version: 6.00 Build 0)  -->
<!DOCTYPE svg PUBLIC "-//W3C//DTD SVG 1.1//EN" "http://www.w3.org/Graphics/SVG/1.1/DTD/svg11.dtd">
<svg version="1.1" id="Layer_1" xmlns="http://www.w3.org/2000/svg" xmlns:xlink="http://www.w3.org/1999/xlink" x="0px" y="0px"
	viewBox="0 0 23 23.085" enable-background="new 0 0 23 23.085" xml:space="preserve">
<path fill="#CB6686" d="M11.5,1.043c5.79,0,10.5,4.71,10.5,10.5c0,5.79-4.71,10.5-10.5,10.5S1,17.333,1,11.543
	C1,5.753,5.71,1.043,11.5,1.043 M11.5,0.043C5.148,0.043,0,5.192,0,11.543s5.148,11.5,11.5,11.5c6.352,0,11.5-5.148,11.5-11.5
	S17.852,0.043,11.5,0.043"/>
<line fill="none" stroke="#CB6686" stroke-miterlimit="10" x1="0" y1="11.543" x2="23" y2="11.543"/>
<path fill="none" stroke="#CB6686" stroke-miterlimit="10" d="M11.5,0.354c-5.111,5.111-5.111,17.267,0,22.378"/>
<path fill="none" stroke="#CB6686" stroke-miterlimit="10" d="M11.5,0.354c5.111,5.111,5.111,17.267,0,22.378"/>
<rect y="0" fill="none" width="23" height="23.085"/>
</svg>
