<?xml version="1.0" encoding="utf-8"?>
<!-- Generator: Adobe Illustrator 16.0.0, SVG Export Plug-In . SVG Version: 6.00 Build 0)  -->
<!DOCTYPE svg PUBLIC "-//W3C//DTD SVG 1.1//EN" "http://www.w3.org/Graphics/SVG/1.1/DTD/svg11.dtd">
<svg version="1.1" id="Layer_1" xmlns="http://www.w3.org/2000/svg" xmlns:xlink="http://www.w3.org/1999/xlink" x="0px" y="0px"
viewBox="0 0 630 401" enable-background="new 0 0 630 401" xml:space="preserve">
<rect x="112.436" y="106.736" fill="none" stroke="#FFFFFF" stroke-width="2" stroke-miterlimit="10" width="152.55" height="262.14"/>
<rect x="125.588" y="119.886" fill="none" stroke="#FFFFFF" stroke-miterlimit="10" width="126.248" height="49.097"/>
<rect x="181.698" y="126.9" fill="none" stroke="#FFFFFF" stroke-miterlimit="10" width="49.096" height="21.042"/>
<rect x="237.808" y="140.928" fill="none" stroke="#FFFFFF" stroke-miterlimit="10" width="7.014" height="7.014"/>
<rect x="160.656" y="140.928" fill="none" stroke="#FFFFFF" stroke-miterlimit="10" width="7.014" height="7.014"/>
<rect x="146.629" y="140.928" fill="none" stroke="#FFFFFF" stroke-miterlimit="10" width="7.014" height="7.014"/>
<rect x="132.601" y="140.928" fill="none" stroke="#FFFFFF" stroke-miterlimit="10" width="7.014" height="7.014"/>
<rect x="223.78" y="154.956" fill="none" stroke="#FFFFFF" stroke-miterlimit="10" width="7.014" height="7.014"/>
<rect x="237.808" y="154.956" fill="none" stroke="#FFFFFF" stroke-miterlimit="10" width="7.014" height="7.014"/>
<rect x="209.753" y="154.956" fill="none" stroke="#FFFFFF" stroke-miterlimit="10" width="7.014" height="7.014"/>
<rect x="195.725" y="154.956" fill="none" stroke="#FFFFFF" stroke-miterlimit="10" width="7.014" height="7.014"/>
<rect x="181.698" y="154.956" fill="none" stroke="#FFFFFF" stroke-miterlimit="10" width="7.014" height="7.014"/>
<rect x="160.656" y="154.956" fill="none" stroke="#FFFFFF" stroke-miterlimit="10" width="7.014" height="7.014"/>
<rect x="146.629" y="154.956" fill="none" stroke="#FFDA68" stroke-miterlimit="10" width="7.014" height="7.014"/>
<rect x="132.601" y="154.956" fill="none" stroke="#FFFFFF" stroke-miterlimit="10" width="7.014" height="7.014"/>
<rect x="160.656" y="126.9" fill="none" stroke="#FFFFFF" stroke-miterlimit="10" width="7.014" height="7.014"/>
<rect x="237.808" y="126.9" fill="none" stroke="#FFFFFF" stroke-miterlimit="10" width="7.014" height="7.014"/>
<rect x="220.273" y="130.407" fill="none" stroke="#FFFFFF" stroke-miterlimit="10" width="5.261" height="5.261"/>
<rect x="220.273" y="139.175" fill="none" stroke="#FF687D" stroke-miterlimit="10" width="5.261" height="5.26"/>
<rect x="211.507" y="130.407" fill="none" stroke="#FFFFFF" stroke-miterlimit="10" width="5.26" height="5.261"/>
<rect x="211.507" y="139.175" fill="none" stroke="#FFFFFF" stroke-miterlimit="10" width="5.26" height="5.26"/>
<rect x="186.958" y="130.407" fill="none" stroke="#FFFFFF" stroke-miterlimit="10" width="21.042" height="5.261"/>
<rect x="186.958" y="139.175" fill="none" stroke="#FFFFFF" stroke-miterlimit="10" width="21.042" height="5.26"/>
<rect x="146.629" y="126.9" fill="none" stroke="#FFFFFF" stroke-miterlimit="10" width="7.014" height="7.014"/>
<rect x="132.601" y="126.9" fill="none" stroke="#FFDA68" stroke-miterlimit="10" width="7.014" height="7.014"/>
<rect x="125.588" y="182.134" fill="none" stroke="#FFFFFF" stroke-miterlimit="10" width="126.248" height="49.098"/>
<rect x="181.698" y="189.147" fill="none" stroke="#FFFFFF" stroke-miterlimit="10" width="49.096" height="21.042"/>
<rect x="237.808" y="203.175" fill="none" stroke="#FFFFFF" stroke-miterlimit="10" width="7.014" height="7.015"/>
<rect x="160.656" y="203.175" fill="none" stroke="#FFFFFF" stroke-miterlimit="10" width="7.014" height="7.015"/>
<rect x="146.629" y="203.175" fill="none" stroke="#FFFFFF" stroke-miterlimit="10" width="7.014" height="7.015"/>
<rect x="132.601" y="203.175" fill="none" stroke="#FFFFFF" stroke-miterlimit="10" width="7.014" height="7.015"/>
<rect x="223.78" y="217.203" fill="none" stroke="#FFFFFF" stroke-miterlimit="10" width="7.014" height="7.014"/>
<rect x="237.808" y="217.203" fill="none" stroke="#FFFFFF" stroke-miterlimit="10" width="7.014" height="7.014"/>
<rect x="209.753" y="217.203" fill="none" stroke="#FFFFFF" stroke-miterlimit="10" width="7.014" height="7.014"/>
<rect x="195.725" y="217.203" fill="none" stroke="#FFFFFF" stroke-miterlimit="10" width="7.014" height="7.014"/>
<rect x="181.698" y="217.203" fill="none" stroke="#FFFFFF" stroke-miterlimit="10" width="7.014" height="7.014"/>
<rect x="160.656" y="217.203" fill="none" stroke="#FFFFFF" stroke-miterlimit="10" width="7.014" height="7.014"/>
<rect x="146.629" y="217.203" fill="none" stroke="#FFDA68" stroke-miterlimit="10" width="7.014" height="7.014"/>
<rect x="132.601" y="217.203" fill="none" stroke="#FFFFFF" stroke-miterlimit="10" width="7.014" height="7.014"/>
<rect x="160.656" y="189.147" fill="none" stroke="#FFFFFF" stroke-miterlimit="10" width="7.014" height="7.014"/>
<rect x="237.808" y="189.147" fill="none" stroke="#FFFFFF" stroke-miterlimit="10" width="7.014" height="7.014"/>
<rect x="220.273" y="192.655" fill="none" stroke="#FFFFFF" stroke-miterlimit="10" width="5.261" height="5.26"/>
<rect x="220.273" y="201.421" fill="none" stroke="#FF687D" stroke-miterlimit="10" width="5.261" height="5.261"/>
<rect x="211.507" y="192.655" fill="none" stroke="#FFFFFF" stroke-miterlimit="10" width="5.26" height="5.26"/>
<rect x="211.507" y="201.421" fill="none" stroke="#FFFFFF" stroke-miterlimit="10" width="5.26" height="5.261"/>
<rect x="186.958" y="192.655" fill="none" stroke="#FFFFFF" stroke-miterlimit="10" width="21.042" height="5.26"/>
<rect x="186.958" y="201.421" fill="none" stroke="#FFFFFF" stroke-miterlimit="10" width="21.042" height="5.261"/>
<rect x="146.629" y="189.147" fill="none" stroke="#FFFFFF" stroke-miterlimit="10" width="7.014" height="7.014"/>
<rect x="132.601" y="189.147" fill="none" stroke="#FFDA68" stroke-miterlimit="10" width="7.014" height="7.014"/>
<rect x="125.588" y="244.381" fill="none" stroke="#FFFFFF" stroke-miterlimit="10" width="126.248" height="49.097"/>
<rect x="181.698" y="251.395" fill="none" stroke="#FFFFFF" stroke-miterlimit="10" width="49.096" height="21.041"/>
<rect x="237.808" y="265.422" fill="none" stroke="#FFFFFF" stroke-miterlimit="10" width="7.014" height="7.014"/>
<rect x="160.656" y="265.422" fill="none" stroke="#FFFFFF" stroke-miterlimit="10" width="7.014" height="7.014"/>
<rect x="146.629" y="265.422" fill="none" stroke="#FFFFFF" stroke-miterlimit="10" width="7.014" height="7.014"/>
<rect x="132.601" y="265.422" fill="none" stroke="#FFFFFF" stroke-miterlimit="10" width="7.014" height="7.014"/>
<rect x="223.78" y="279.45" fill="none" stroke="#FFFFFF" stroke-miterlimit="10" width="7.014" height="7.014"/>
<rect x="237.808" y="279.45" fill="none" stroke="#FFFFFF" stroke-miterlimit="10" width="7.014" height="7.014"/>
<rect x="209.753" y="279.45" fill="none" stroke="#FFFFFF" stroke-miterlimit="10" width="7.014" height="7.014"/>
<rect x="195.725" y="279.45" fill="none" stroke="#FFFFFF" stroke-miterlimit="10" width="7.014" height="7.014"/>
<rect x="181.698" y="279.45" fill="none" stroke="#FFFFFF" stroke-miterlimit="10" width="7.014" height="7.014"/>
<rect x="160.656" y="279.45" fill="none" stroke="#FFFFFF" stroke-miterlimit="10" width="7.014" height="7.014"/>
<rect x="146.629" y="279.45" fill="none" stroke="#FFDA68" stroke-miterlimit="10" width="7.014" height="7.014"/>
<rect x="132.601" y="279.45" fill="none" stroke="#FFFFFF" stroke-miterlimit="10" width="7.014" height="7.014"/>
<rect x="160.656" y="251.395" fill="none" stroke="#FFFFFF" stroke-miterlimit="10" width="7.014" height="7.015"/>
<rect x="237.808" y="251.395" fill="none" stroke="#FFFFFF" stroke-miterlimit="10" width="7.014" height="7.015"/>
<rect x="220.273" y="254.902" fill="none" stroke="#FFFFFF" stroke-miterlimit="10" width="5.261" height="5.26"/>
<rect x="220.273" y="263.67" fill="none" stroke="#FF687D" stroke-miterlimit="10" width="5.261" height="5.26"/>
<rect x="211.507" y="254.902" fill="none" stroke="#FFFFFF" stroke-miterlimit="10" width="5.26" height="5.26"/>
<rect x="211.507" y="263.67" fill="none" stroke="#FFFFFF" stroke-miterlimit="10" width="5.26" height="5.26"/>
<rect x="186.958" y="254.902" fill="none" stroke="#FFFFFF" stroke-miterlimit="10" width="21.042" height="5.26"/>
<rect x="186.958" y="263.67" fill="none" stroke="#FFFFFF" stroke-miterlimit="10" width="21.042" height="5.26"/>
<rect x="146.629" y="251.395" fill="none" stroke="#FFFFFF" stroke-miterlimit="10" width="7.014" height="7.015"/>
<rect x="132.601" y="251.395" fill="none" stroke="#FF687D" stroke-miterlimit="10" width="7.014" height="7.015"/>
<rect x="125.588" y="306.628" fill="none" stroke="#FFFFFF" stroke-miterlimit="10" width="126.248" height="49.097"/>
<rect x="181.698" y="313.642" fill="none" stroke="#FFFFFF" stroke-miterlimit="10" width="49.096" height="21.042"/>
<rect x="237.808" y="327.669" fill="none" stroke="#FFFFFF" stroke-miterlimit="10" width="7.014" height="7.015"/>
<rect x="160.656" y="327.669" fill="none" stroke="#FFFFFF" stroke-miterlimit="10" width="7.014" height="7.015"/>
<rect x="146.629" y="327.669" fill="none" stroke="#FFFFFF" stroke-miterlimit="10" width="7.014" height="7.015"/>
<rect x="132.601" y="327.669" fill="none" stroke="#FFFFFF" stroke-miterlimit="10" width="7.014" height="7.015"/>
<rect x="223.78" y="341.698" fill="none" stroke="#FFFFFF" stroke-miterlimit="10" width="7.014" height="7.014"/>
<rect x="237.808" y="341.698" fill="none" stroke="#FFFFFF" stroke-miterlimit="10" width="7.014" height="7.014"/>
<rect x="209.753" y="341.698" fill="none" stroke="#FFFFFF" stroke-miterlimit="10" width="7.014" height="7.014"/>
<rect x="195.725" y="341.698" fill="none" stroke="#FFFFFF" stroke-miterlimit="10" width="7.014" height="7.014"/>
<rect x="181.698" y="341.698" fill="none" stroke="#FFFFFF" stroke-miterlimit="10" width="7.014" height="7.014"/>
<rect x="160.656" y="341.698" fill="none" stroke="#FFFFFF" stroke-miterlimit="10" width="7.014" height="7.014"/>
<rect x="146.629" y="341.698" fill="none" stroke="#FFDA68" stroke-miterlimit="10" width="7.014" height="7.014"/>
<rect x="132.601" y="341.698" fill="none" stroke="#FFFFFF" stroke-miterlimit="10" width="7.014" height="7.014"/>
<rect x="160.656" y="313.643" fill="none" stroke="#FFFFFF" stroke-miterlimit="10" width="7.014" height="7.015"/>
<rect x="237.808" y="313.643" fill="none" stroke="#FFFFFF" stroke-miterlimit="10" width="7.014" height="7.015"/>
<rect x="220.273" y="317.15" fill="none" stroke="#FFFFFF" stroke-miterlimit="10" width="5.261" height="5.26"/>
<rect x="220.273" y="325.917" fill="none" stroke="#FFDA68" stroke-miterlimit="10" width="5.261" height="5.261"/>
<rect x="211.507" y="317.15" fill="none" stroke="#FFFFFF" stroke-miterlimit="10" width="5.26" height="5.26"/>
<rect x="211.507" y="325.917" fill="none" stroke="#FFFFFF" stroke-miterlimit="10" width="5.26" height="5.261"/>
<rect x="186.958" y="317.15" fill="none" stroke="#FFFFFF" stroke-miterlimit="10" width="21.042" height="5.26"/>
<rect x="186.958" y="325.917" fill="none" stroke="#FFFFFF" stroke-miterlimit="10" width="21.042" height="5.261"/>
<rect x="146.629" y="313.643" fill="none" stroke="#FFFFFF" stroke-miterlimit="10" width="7.014" height="7.015"/>
<rect x="132.601" y="313.643" fill="none" stroke="#FFDA68" stroke-miterlimit="10" width="7.014" height="7.015"/>
<rect x="319.343" y="106.736" fill="none" stroke="#FFFFFF" stroke-width="2" stroke-miterlimit="10" width="152.55" height="262.14"/>
<rect x="332.494" y="119.886" fill="none" stroke="#FFFFFF" stroke-miterlimit="10" width="126.249" height="49.097"/>
<rect x="388.604" y="126.9" fill="none" stroke="#FFFFFF" stroke-miterlimit="10" width="49.098" height="21.042"/>
<rect x="444.714" y="140.928" fill="none" stroke="#FFFFFF" stroke-miterlimit="10" width="7.014" height="7.014"/>
<rect x="367.563" y="140.928" fill="none" stroke="#FFFFFF" stroke-miterlimit="10" width="7.015" height="7.014"/>
<rect x="353.536" y="140.928" fill="none" stroke="#FFFFFF" stroke-miterlimit="10" width="7.014" height="7.014"/>
<rect x="339.507" y="140.928" fill="none" stroke="#FFFFFF" stroke-miterlimit="10" width="7.016" height="7.014"/>
<rect x="430.687" y="154.956" fill="none" stroke="#FFFFFF" stroke-miterlimit="10" width="7.015" height="7.014"/>
<rect x="444.714" y="154.956" fill="none" stroke="#FFFFFF" stroke-miterlimit="10" width="7.014" height="7.014"/>
<rect x="416.66" y="154.956" fill="none" stroke="#FFFFFF" stroke-miterlimit="10" width="7.014" height="7.014"/>
<rect x="402.632" y="154.956" fill="none" stroke="#FFFFFF" stroke-miterlimit="10" width="7.015" height="7.014"/>
<rect x="388.604" y="154.956" fill="none" stroke="#FFFFFF" stroke-miterlimit="10" width="7.015" height="7.014"/>
<rect x="367.563" y="154.956" fill="none" stroke="#FFFFFF" stroke-miterlimit="10" width="7.015" height="7.014"/>
<rect x="353.536" y="154.956" fill="none" stroke="#FF687D" stroke-miterlimit="10" width="7.014" height="7.014"/>
<rect x="339.507" y="154.956" fill="none" stroke="#FFFFFF" stroke-miterlimit="10" width="7.016" height="7.014"/>
<rect x="367.563" y="126.9" fill="none" stroke="#FFFFFF" stroke-miterlimit="10" width="7.015" height="7.014"/>
<rect x="444.714" y="126.9" fill="none" stroke="#FFFFFF" stroke-miterlimit="10" width="7.014" height="7.014"/>
<rect x="427.18" y="130.407" fill="none" stroke="#FFFFFF" stroke-miterlimit="10" width="5.262" height="5.261"/>
<rect x="427.18" y="139.175" fill="none" stroke="#FFDA68" stroke-miterlimit="10" width="5.262" height="5.26"/>
<rect x="418.413" y="130.407" fill="none" stroke="#FFFFFF" stroke-miterlimit="10" width="5.261" height="5.261"/>
<rect x="418.413" y="139.175" fill="none" stroke="#FFFFFF" stroke-miterlimit="10" width="5.261" height="5.26"/>
<rect x="393.865" y="130.407" fill="none" stroke="#FFFFFF" stroke-miterlimit="10" width="21.041" height="5.261"/>
<rect x="393.865" y="139.175" fill="none" stroke="#FFFFFF" stroke-miterlimit="10" width="21.041" height="5.26"/>
<rect x="353.536" y="126.9" fill="none" stroke="#FFFFFF" stroke-miterlimit="10" width="7.014" height="7.014"/>
<rect x="339.507" y="126.9" fill="none" stroke="#FF687D" stroke-miterlimit="10" width="7.016" height="7.014"/>
<rect x="332.494" y="182.134" fill="none" stroke="#FFFFFF" stroke-miterlimit="10" width="126.249" height="49.098"/>
<rect x="388.604" y="189.147" fill="none" stroke="#FFFFFF" stroke-miterlimit="10" width="49.098" height="21.042"/>
<rect x="444.714" y="203.175" fill="none" stroke="#FFFFFF" stroke-miterlimit="10" width="7.014" height="7.015"/>
<rect x="367.563" y="203.175" fill="none" stroke="#FFFFFF" stroke-miterlimit="10" width="7.015" height="7.015"/>
<rect x="353.536" y="203.175" fill="none" stroke="#FFFFFF" stroke-miterlimit="10" width="7.014" height="7.015"/>
<rect x="339.507" y="203.175" fill="none" stroke="#FFFFFF" stroke-miterlimit="10" width="7.016" height="7.015"/>
<rect x="430.687" y="217.203" fill="none" stroke="#FFFFFF" stroke-miterlimit="10" width="7.015" height="7.014"/>
<rect x="444.714" y="217.203" fill="none" stroke="#FFFFFF" stroke-miterlimit="10" width="7.014" height="7.014"/>
<rect x="416.66" y="217.203" fill="none" stroke="#FFFFFF" stroke-miterlimit="10" width="7.014" height="7.014"/>
<rect x="402.632" y="217.203" fill="none" stroke="#FFFFFF" stroke-miterlimit="10" width="7.015" height="7.014"/>
<rect x="388.604" y="217.203" fill="none" stroke="#FFFFFF" stroke-miterlimit="10" width="7.015" height="7.014"/>
<rect x="367.563" y="217.203" fill="none" stroke="#FFFFFF" stroke-miterlimit="10" width="7.015" height="7.014"/>
<rect x="353.536" y="217.203" fill="none" stroke="#FF687D" stroke-miterlimit="10" width="7.014" height="7.014"/>
<rect x="339.507" y="217.203" fill="none" stroke="#FFFFFF" stroke-miterlimit="10" width="7.016" height="7.014"/>
<rect x="367.563" y="189.147" fill="none" stroke="#FFFFFF" stroke-miterlimit="10" width="7.015" height="7.014"/>
<rect x="444.714" y="189.147" fill="none" stroke="#FFFFFF" stroke-miterlimit="10" width="7.014" height="7.014"/>
<rect x="427.18" y="192.655" fill="none" stroke="#FFFFFF" stroke-miterlimit="10" width="5.262" height="5.26"/>
<rect x="427.18" y="201.421" fill="none" stroke="#FFDA68" stroke-miterlimit="10" width="5.262" height="5.261"/>
<rect x="418.413" y="192.655" fill="none" stroke="#FFFFFF" stroke-miterlimit="10" width="5.261" height="5.26"/>
<rect x="418.413" y="201.421" fill="none" stroke="#FFFFFF" stroke-miterlimit="10" width="5.261" height="5.261"/>
<rect x="393.865" y="192.655" fill="none" stroke="#FFFFFF" stroke-miterlimit="10" width="21.041" height="5.26"/>
<rect x="393.865" y="201.421" fill="none" stroke="#FFFFFF" stroke-miterlimit="10" width="21.041" height="5.261"/>
<rect x="353.536" y="189.147" fill="none" stroke="#FFFFFF" stroke-miterlimit="10" width="7.014" height="7.014"/>
<rect x="339.507" y="189.147" fill="none" stroke="#FF687D" stroke-miterlimit="10" width="7.016" height="7.014"/>
<rect x="332.494" y="244.381" fill="none" stroke="#FFFFFF" stroke-miterlimit="10" width="126.249" height="49.097"/>
<rect x="388.604" y="251.395" fill="none" stroke="#FFFFFF" stroke-miterlimit="10" width="49.098" height="21.041"/>
<rect x="444.714" y="265.422" fill="none" stroke="#FFFFFF" stroke-miterlimit="10" width="7.014" height="7.014"/>
<rect x="367.563" y="265.422" fill="none" stroke="#FFFFFF" stroke-miterlimit="10" width="7.015" height="7.014"/>
<rect x="353.536" y="265.422" fill="none" stroke="#FFFFFF" stroke-miterlimit="10" width="7.014" height="7.014"/>
<rect x="339.507" y="265.422" fill="none" stroke="#FFFFFF" stroke-miterlimit="10" width="7.016" height="7.014"/>
<rect x="430.687" y="279.45" fill="none" stroke="#FFFFFF" stroke-miterlimit="10" width="7.015" height="7.014"/>
<rect x="444.714" y="279.45" fill="none" stroke="#FFFFFF" stroke-miterlimit="10" width="7.014" height="7.014"/>
<rect x="416.66" y="279.45" fill="none" stroke="#FFFFFF" stroke-miterlimit="10" width="7.014" height="7.014"/>
<rect x="402.632" y="279.45" fill="none" stroke="#FFFFFF" stroke-miterlimit="10" width="7.015" height="7.014"/>
<rect x="388.604" y="279.45" fill="none" stroke="#FFFFFF" stroke-miterlimit="10" width="7.015" height="7.014"/>
<rect x="367.563" y="279.45" fill="none" stroke="#FFFFFF" stroke-miterlimit="10" width="7.015" height="7.014"/>
<rect x="353.536" y="279.45" fill="none" stroke="#FF687D" stroke-miterlimit="10" width="7.014" height="7.014"/>
<rect x="339.507" y="279.45" fill="none" stroke="#FFFFFF" stroke-miterlimit="10" width="7.016" height="7.014"/>
<rect x="367.563" y="251.395" fill="none" stroke="#FFFFFF" stroke-miterlimit="10" width="7.015" height="7.015"/>
<rect x="444.714" y="251.395" fill="none" stroke="#FFFFFF" stroke-miterlimit="10" width="7.014" height="7.015"/>
<rect x="427.18" y="254.902" fill="none" stroke="#FFFFFF" stroke-miterlimit="10" width="5.262" height="5.26"/>
<rect x="427.18" y="263.67" fill="none" stroke="#FFDA68" stroke-miterlimit="10" width="5.262" height="5.26"/>
<rect x="418.413" y="254.902" fill="none" stroke="#FFFFFF" stroke-miterlimit="10" width="5.261" height="5.26"/>
<rect x="418.413" y="263.67" fill="none" stroke="#FFFFFF" stroke-miterlimit="10" width="5.261" height="5.26"/>
<rect x="393.865" y="254.902" fill="none" stroke="#FFFFFF" stroke-miterlimit="10" width="21.041" height="5.26"/>
<rect x="393.865" y="263.67" fill="none" stroke="#FFFFFF" stroke-miterlimit="10" width="21.041" height="5.26"/>
<rect x="353.536" y="251.395" fill="none" stroke="#FFFFFF" stroke-miterlimit="10" width="7.014" height="7.015"/>
<rect x="339.507" y="251.395" fill="none" stroke="#FFDA68" stroke-miterlimit="10" width="7.016" height="7.015"/>
<rect x="332.494" y="306.628" fill="none" stroke="#FFFFFF" stroke-miterlimit="10" width="126.249" height="49.097"/>
<rect x="388.604" y="313.642" fill="none" stroke="#FFFFFF" stroke-miterlimit="10" width="49.098" height="21.042"/>
<rect x="444.714" y="327.669" fill="none" stroke="#FFFFFF" stroke-miterlimit="10" width="7.014" height="7.015"/>
<rect x="367.563" y="327.669" fill="none" stroke="#FFFFFF" stroke-miterlimit="10" width="7.015" height="7.015"/>
<rect x="353.536" y="327.669" fill="none" stroke="#FFFFFF" stroke-miterlimit="10" width="7.014" height="7.015"/>
<rect x="339.507" y="327.669" fill="none" stroke="#FFFFFF" stroke-miterlimit="10" width="7.016" height="7.015"/>
<rect x="430.687" y="341.698" fill="none" stroke="#FFFFFF" stroke-miterlimit="10" width="7.015" height="7.014"/>
<rect x="444.714" y="341.698" fill="none" stroke="#FFFFFF" stroke-miterlimit="10" width="7.014" height="7.014"/>
<rect x="416.66" y="341.698" fill="none" stroke="#FFFFFF" stroke-miterlimit="10" width="7.014" height="7.014"/>
<rect x="402.632" y="341.698" fill="none" stroke="#FFFFFF" stroke-miterlimit="10" width="7.015" height="7.014"/>
<rect x="388.604" y="341.698" fill="none" stroke="#FFFFFF" stroke-miterlimit="10" width="7.015" height="7.014"/>
<rect x="367.563" y="341.698" fill="none" stroke="#FFFFFF" stroke-miterlimit="10" width="7.015" height="7.014"/>
<rect x="353.536" y="341.698" fill="none" stroke="#FF687D" stroke-miterlimit="10" width="7.014" height="7.014"/>
<rect x="339.507" y="341.698" fill="none" stroke="#FFFFFF" stroke-miterlimit="10" width="7.016" height="7.014"/>
<rect x="367.563" y="313.643" fill="none" stroke="#FFFFFF" stroke-miterlimit="10" width="7.015" height="7.015"/>
<rect x="444.714" y="313.643" fill="none" stroke="#FFFFFF" stroke-miterlimit="10" width="7.014" height="7.015"/>
<rect x="427.18" y="317.15" fill="none" stroke="#FFFFFF" stroke-miterlimit="10" width="5.262" height="5.26"/>
<rect x="427.18" y="325.917" fill="none" stroke="#FF687D" stroke-miterlimit="10" width="5.262" height="5.261"/>
<rect x="418.413" y="317.15" fill="none" stroke="#FFFFFF" stroke-miterlimit="10" width="5.261" height="5.26"/>
<rect x="418.413" y="325.917" fill="none" stroke="#FFFFFF" stroke-miterlimit="10" width="5.261" height="5.261"/>
<rect x="393.865" y="317.15" fill="none" stroke="#FFFFFF" stroke-miterlimit="10" width="21.041" height="5.26"/>
<rect x="393.865" y="325.917" fill="none" stroke="#FFFFFF" stroke-miterlimit="10" width="21.041" height="5.261"/>
<rect x="353.536" y="313.643" fill="none" stroke="#FFFFFF" stroke-miterlimit="10" width="7.014" height="7.015"/>
<rect x="339.507" y="313.643" fill="none" stroke="#FF687D" stroke-miterlimit="10" width="7.016" height="7.015"/>
<rect x="208.876" y="75.612" fill="#1E222F" width="166.578" height="324.388"/>
<g>
	<defs>
		<rect id="SVGID_1_" width="630" height="401"/>
	</defs>
	<clipPath id="SVGID_2_">
		<use xlink:href="#SVGID_1_"  overflow="visible"/>
	</clipPath>
	
		<rect x="208.876" y="75.612" clip-path="url(#SVGID_2_)" fill="none" stroke="#FFDA68" stroke-width="2" stroke-miterlimit="10" width="166.578" height="324.388"/>
</g>
<rect x="222.028" y="88.763" fill="none" stroke="#FFFFFF" stroke-miterlimit="10" width="140.275" height="49.096"/>
<rect x="292.165" y="95.776" fill="none" stroke="#FFFFFF" stroke-miterlimit="10" width="49.097" height="21.042"/>
<rect x="348.275" y="109.804" fill="none" stroke="#FFFFFF" stroke-miterlimit="10" width="7.014" height="7.014"/>
<rect x="271.124" y="109.804" fill="none" stroke="#FFFFFF" stroke-miterlimit="10" width="7.014" height="7.014"/>
<rect x="257.095" y="109.804" fill="none" stroke="#FFFFFF" stroke-miterlimit="10" width="7.015" height="7.014"/>
<rect x="243.068" y="109.804" fill="none" stroke="#FFFFFF" stroke-miterlimit="10" width="7.014" height="7.014"/>
<rect x="229.041" y="109.804" fill="none" stroke="#FFFFFF" stroke-miterlimit="10" width="7.014" height="7.014"/>
<rect x="334.248" y="123.832" fill="none" stroke="#FFFFFF" stroke-miterlimit="10" width="7.014" height="7.014"/>
<rect x="348.275" y="123.832" fill="none" stroke="#FFFFFF" stroke-miterlimit="10" width="7.014" height="7.014"/>
<rect x="320.22" y="123.832" fill="none" stroke="#FFFFFF" stroke-miterlimit="10" width="7.015" height="7.014"/>
<rect x="306.192" y="123.832" fill="none" stroke="#FFFFFF" stroke-miterlimit="10" width="7.014" height="7.014"/>
<rect x="292.165" y="123.832" fill="none" stroke="#FFFFFF" stroke-miterlimit="10" width="7.014" height="7.014"/>
<rect x="271.124" y="123.832" fill="none" stroke="#FFFFFF" stroke-miterlimit="10" width="7.014" height="7.014"/>
<rect x="257.095" y="123.832" fill="none" stroke="#FFDA68" stroke-miterlimit="10" width="7.015" height="7.014"/>
<rect x="243.068" y="123.832" fill="none" stroke="#FFFFFF" stroke-miterlimit="10" width="7.014" height="7.014"/>
<rect x="229.041" y="123.832" fill="none" stroke="#FFFFFF" stroke-miterlimit="10" width="7.014" height="7.014"/>
<rect x="271.124" y="95.776" fill="none" stroke="#FFFFFF" stroke-miterlimit="10" width="7.014" height="7.014"/>
<rect x="348.275" y="95.776" fill="none" stroke="#FFFFFF" stroke-miterlimit="10" width="7.014" height="7.014"/>
<rect x="330.741" y="99.284" fill="none" stroke="#FFFFFF" stroke-miterlimit="10" width="5.26" height="5.26"/>
<rect x="330.741" y="108.05" fill="none" stroke="#FFDA68" stroke-miterlimit="10" width="5.26" height="5.261"/>
<rect x="321.973" y="99.284" fill="none" stroke="#FFFFFF" stroke-miterlimit="10" width="5.262" height="5.26"/>
<rect x="321.973" y="108.05" fill="none" stroke="#FFFFFF" stroke-miterlimit="10" width="5.262" height="5.261"/>
<rect x="297.426" y="99.284" fill="none" stroke="#FFFFFF" stroke-miterlimit="10" width="21.041" height="5.26"/>
<rect x="297.426" y="108.05" fill="none" stroke="#FFFFFF" stroke-miterlimit="10" width="21.041" height="5.261"/>
<rect x="257.095" y="95.776" fill="none" stroke="#FFFFFF" stroke-miterlimit="10" width="7.015" height="7.014"/>
<rect x="243.068" y="95.776" fill="none" stroke="#FFDA68" stroke-miterlimit="10" width="7.014" height="7.014"/>
<rect x="229.041" y="95.776" fill="none" stroke="#FFFFFF" stroke-miterlimit="10" width="7.014" height="7.014"/>
<rect x="222.028" y="151.01" fill="none" stroke="#FFFFFF" stroke-miterlimit="10" width="140.275" height="49.097"/>
<rect x="292.165" y="158.024" fill="none" stroke="#FFFFFF" stroke-miterlimit="10" width="49.097" height="21.041"/>
<rect x="348.275" y="172.051" fill="none" stroke="#FFFFFF" stroke-miterlimit="10" width="7.014" height="7.014"/>
<rect x="271.124" y="172.051" fill="none" stroke="#FFFFFF" stroke-miterlimit="10" width="7.014" height="7.014"/>
<rect x="257.095" y="172.051" fill="none" stroke="#FFFFFF" stroke-miterlimit="10" width="7.015" height="7.014"/>
<rect x="243.068" y="172.051" fill="none" stroke="#FFFFFF" stroke-miterlimit="10" width="7.014" height="7.014"/>
<rect x="229.041" y="172.051" fill="none" stroke="#FFFFFF" stroke-miterlimit="10" width="7.014" height="7.014"/>
<rect x="334.248" y="186.079" fill="none" stroke="#FFFFFF" stroke-miterlimit="10" width="7.014" height="7.014"/>
<rect x="348.275" y="186.079" fill="none" stroke="#FFFFFF" stroke-miterlimit="10" width="7.014" height="7.014"/>
<rect x="320.22" y="186.079" fill="none" stroke="#FFFFFF" stroke-miterlimit="10" width="7.015" height="7.014"/>
<rect x="306.192" y="186.079" fill="none" stroke="#FFFFFF" stroke-miterlimit="10" width="7.014" height="7.014"/>
<rect x="292.165" y="186.079" fill="none" stroke="#FFFFFF" stroke-miterlimit="10" width="7.014" height="7.014"/>
<rect x="271.124" y="186.079" fill="none" stroke="#FFFFFF" stroke-miterlimit="10" width="7.014" height="7.014"/>
<rect x="257.095" y="186.079" fill="none" stroke="#FFDA68" stroke-miterlimit="10" width="7.015" height="7.014"/>
<rect x="243.068" y="186.079" fill="none" stroke="#FFFFFF" stroke-miterlimit="10" width="7.014" height="7.014"/>
<rect x="229.041" y="186.079" fill="none" stroke="#FFFFFF" stroke-miterlimit="10" width="7.014" height="7.014"/>
<rect x="271.124" y="158.024" fill="none" stroke="#FFFFFF" stroke-miterlimit="10" width="7.014" height="7.014"/>
<rect x="348.275" y="158.024" fill="none" stroke="#FFFFFF" stroke-miterlimit="10" width="7.014" height="7.014"/>
<rect x="330.741" y="161.531" fill="none" stroke="#FFFFFF" stroke-miterlimit="10" width="5.26" height="5.26"/>
<rect x="330.741" y="170.298" fill="none" stroke="#FFDA68" stroke-miterlimit="10" width="5.26" height="5.26"/>
<rect x="321.973" y="161.531" fill="none" stroke="#FFFFFF" stroke-miterlimit="10" width="5.262" height="5.26"/>
<rect x="321.973" y="170.298" fill="none" stroke="#FFFFFF" stroke-miterlimit="10" width="5.262" height="5.26"/>
<rect x="297.426" y="161.531" fill="none" stroke="#FFFFFF" stroke-miterlimit="10" width="21.041" height="5.26"/>
<rect x="297.426" y="170.298" fill="none" stroke="#FFFFFF" stroke-miterlimit="10" width="21.041" height="5.26"/>
<rect x="257.095" y="158.024" fill="none" stroke="#FFFFFF" stroke-miterlimit="10" width="7.015" height="7.014"/>
<rect x="243.068" y="158.024" fill="none" stroke="#FFDA68" stroke-miterlimit="10" width="7.014" height="7.014"/>
<rect x="229.041" y="158.024" fill="none" stroke="#FFFFFF" stroke-miterlimit="10" width="7.014" height="7.014"/>
<rect x="222.028" y="213.257" fill="none" stroke="#FFFFFF" stroke-miterlimit="10" width="140.275" height="49.097"/>
<rect x="292.165" y="220.271" fill="none" stroke="#FFFFFF" stroke-miterlimit="10" width="49.097" height="21.042"/>
<rect x="348.275" y="234.299" fill="none" stroke="#FFFFFF" stroke-miterlimit="10" width="7.014" height="7.015"/>
<rect x="271.124" y="234.299" fill="none" stroke="#FFFFFF" stroke-miterlimit="10" width="7.014" height="7.015"/>
<rect x="257.095" y="234.299" fill="none" stroke="#FFFFFF" stroke-miterlimit="10" width="7.015" height="7.015"/>
<rect x="243.068" y="234.299" fill="none" stroke="#FFFFFF" stroke-miterlimit="10" width="7.014" height="7.015"/>
<rect x="229.041" y="234.299" fill="none" stroke="#FFFFFF" stroke-miterlimit="10" width="7.014" height="7.015"/>
<rect x="334.248" y="248.327" fill="none" stroke="#FFFFFF" stroke-miterlimit="10" width="7.014" height="7.014"/>
<rect x="348.275" y="248.327" fill="none" stroke="#FFFFFF" stroke-miterlimit="10" width="7.014" height="7.014"/>
<rect x="320.22" y="248.327" fill="none" stroke="#FFFFFF" stroke-miterlimit="10" width="7.015" height="7.014"/>
<rect x="306.192" y="248.327" fill="none" stroke="#FFFFFF" stroke-miterlimit="10" width="7.014" height="7.014"/>
<rect x="292.165" y="248.327" fill="none" stroke="#FFFFFF" stroke-miterlimit="10" width="7.014" height="7.014"/>
<rect x="271.124" y="248.327" fill="none" stroke="#FFFFFF" stroke-miterlimit="10" width="7.014" height="7.014"/>
<rect x="257.095" y="248.327" fill="none" stroke="#FFDA68" stroke-miterlimit="10" width="7.015" height="7.014"/>
<rect x="243.068" y="248.327" fill="none" stroke="#FFFFFF" stroke-miterlimit="10" width="7.014" height="7.014"/>
<rect x="229.041" y="248.327" fill="none" stroke="#FFFFFF" stroke-miterlimit="10" width="7.014" height="7.014"/>
<rect x="271.124" y="220.272" fill="none" stroke="#FFFFFF" stroke-miterlimit="10" width="7.014" height="7.014"/>
<rect x="348.275" y="220.272" fill="none" stroke="#FFFFFF" stroke-miterlimit="10" width="7.014" height="7.014"/>
<rect x="330.741" y="223.779" fill="none" stroke="#FFFFFF" stroke-miterlimit="10" width="5.26" height="5.26"/>
<rect x="330.741" y="232.546" fill="none" stroke="#FFDA68" stroke-miterlimit="10" width="5.26" height="5.26"/>
<rect x="321.973" y="223.779" fill="none" stroke="#FFFFFF" stroke-miterlimit="10" width="5.262" height="5.26"/>
<rect x="321.973" y="232.546" fill="none" stroke="#FFFFFF" stroke-miterlimit="10" width="5.262" height="5.26"/>
<rect x="297.426" y="223.779" fill="none" stroke="#FFFFFF" stroke-miterlimit="10" width="21.041" height="5.26"/>
<rect x="297.426" y="232.546" fill="none" stroke="#FFFFFF" stroke-miterlimit="10" width="21.041" height="5.26"/>
<rect x="257.095" y="220.272" fill="none" stroke="#FFFFFF" stroke-miterlimit="10" width="7.015" height="7.014"/>
<rect x="243.068" y="220.272" fill="none" stroke="#FF687D" stroke-miterlimit="10" width="7.014" height="7.014"/>
<rect x="229.041" y="220.272" fill="none" stroke="#FFFFFF" stroke-miterlimit="10" width="7.014" height="7.014"/>
<rect x="222.028" y="275.505" fill="none" stroke="#FFFFFF" stroke-miterlimit="10" width="140.275" height="49.097"/>
<rect x="292.165" y="282.518" fill="none" stroke="#FFFFFF" stroke-miterlimit="10" width="49.097" height="21.042"/>
<rect x="348.275" y="296.546" fill="none" stroke="#FFFFFF" stroke-miterlimit="10" width="7.014" height="7.014"/>
<rect x="271.124" y="296.546" fill="none" stroke="#FFFFFF" stroke-miterlimit="10" width="7.014" height="7.014"/>
<rect x="257.095" y="296.546" fill="none" stroke="#FFFFFF" stroke-miterlimit="10" width="7.015" height="7.014"/>
<rect x="243.068" y="296.546" fill="none" stroke="#FFFFFF" stroke-miterlimit="10" width="7.014" height="7.014"/>
<rect x="229.041" y="296.546" fill="none" stroke="#FFFFFF" stroke-miterlimit="10" width="7.014" height="7.014"/>
<rect x="334.248" y="310.574" fill="none" stroke="#FFFFFF" stroke-miterlimit="10" width="7.014" height="7.014"/>
<rect x="348.275" y="310.574" fill="none" stroke="#FFFFFF" stroke-miterlimit="10" width="7.014" height="7.014"/>
<rect x="320.22" y="310.574" fill="none" stroke="#FFFFFF" stroke-miterlimit="10" width="7.015" height="7.014"/>
<rect x="306.192" y="310.574" fill="none" stroke="#FFFFFF" stroke-miterlimit="10" width="7.014" height="7.014"/>
<rect x="292.165" y="310.574" fill="none" stroke="#FFFFFF" stroke-miterlimit="10" width="7.014" height="7.014"/>
<rect x="271.124" y="310.574" fill="none" stroke="#FFFFFF" stroke-miterlimit="10" width="7.014" height="7.014"/>
<rect x="257.095" y="310.574" fill="none" stroke="#FFDA68" stroke-miterlimit="10" width="7.015" height="7.014"/>
<rect x="243.068" y="310.574" fill="none" stroke="#FFFFFF" stroke-miterlimit="10" width="7.014" height="7.014"/>
<rect x="229.041" y="310.574" fill="none" stroke="#FFFFFF" stroke-miterlimit="10" width="7.014" height="7.014"/>
<rect x="271.124" y="282.519" fill="none" stroke="#FFFFFF" stroke-miterlimit="10" width="7.014" height="7.015"/>
<rect x="348.275" y="282.519" fill="none" stroke="#FFFFFF" stroke-miterlimit="10" width="7.014" height="7.015"/>
<rect x="330.741" y="286.026" fill="none" stroke="#FFFFFF" stroke-miterlimit="10" width="5.26" height="5.26"/>
<rect x="330.741" y="294.794" fill="none" stroke="#FF687D" stroke-miterlimit="10" width="5.26" height="5.26"/>
<rect x="321.973" y="286.026" fill="none" stroke="#FFFFFF" stroke-miterlimit="10" width="5.262" height="5.26"/>
<rect x="321.973" y="294.794" fill="none" stroke="#FFFFFF" stroke-miterlimit="10" width="5.262" height="5.26"/>
<rect x="297.426" y="286.026" fill="none" stroke="#FFFFFF" stroke-miterlimit="10" width="21.041" height="5.26"/>
<rect x="297.426" y="294.794" fill="none" stroke="#FFFFFF" stroke-miterlimit="10" width="21.041" height="5.26"/>
<rect x="257.095" y="282.519" fill="none" stroke="#FFFFFF" stroke-miterlimit="10" width="7.015" height="7.015"/>
<rect x="243.068" y="282.519" fill="none" stroke="#FFDA68" stroke-miterlimit="10" width="7.014" height="7.015"/>
<rect x="229.041" y="282.519" fill="none" stroke="#FFFFFF" stroke-miterlimit="10" width="7.014" height="7.015"/>
<rect x="222.028" y="337.752" fill="none" stroke="#FFFFFF" stroke-miterlimit="10" width="140.275" height="49.097"/>
<rect x="292.165" y="344.766" fill="none" stroke="#FFFFFF" stroke-miterlimit="10" width="49.097" height="21.041"/>
<rect x="348.275" y="358.793" fill="none" stroke="#FFFFFF" stroke-miterlimit="10" width="7.014" height="7.014"/>
<rect x="271.124" y="358.793" fill="none" stroke="#FFFFFF" stroke-miterlimit="10" width="7.014" height="7.014"/>
<rect x="257.095" y="358.793" fill="none" stroke="#FFFFFF" stroke-miterlimit="10" width="7.015" height="7.014"/>
<rect x="243.068" y="358.793" fill="none" stroke="#FFFFFF" stroke-miterlimit="10" width="7.014" height="7.014"/>
<rect x="229.041" y="358.793" fill="none" stroke="#FFFFFF" stroke-miterlimit="10" width="7.014" height="7.014"/>
<rect x="334.248" y="372.821" fill="none" stroke="#FFFFFF" stroke-miterlimit="10" width="7.014" height="7.015"/>
<rect x="348.275" y="372.821" fill="none" stroke="#FFFFFF" stroke-miterlimit="10" width="7.014" height="7.015"/>
<rect x="320.22" y="372.821" fill="none" stroke="#FFFFFF" stroke-miterlimit="10" width="7.015" height="7.015"/>
<rect x="306.192" y="372.821" fill="none" stroke="#FFFFFF" stroke-miterlimit="10" width="7.014" height="7.015"/>
<rect x="292.165" y="372.821" fill="none" stroke="#FFFFFF" stroke-miterlimit="10" width="7.014" height="7.015"/>
<rect x="271.124" y="372.821" fill="none" stroke="#FFFFFF" stroke-miterlimit="10" width="7.014" height="7.015"/>
<rect x="257.095" y="372.821" fill="none" stroke="#FFDA68" stroke-miterlimit="10" width="7.015" height="7.015"/>
<rect x="243.068" y="372.821" fill="none" stroke="#FFFFFF" stroke-miterlimit="10" width="7.014" height="7.015"/>
<rect x="229.041" y="372.821" fill="none" stroke="#FFFFFF" stroke-miterlimit="10" width="7.014" height="7.015"/>
<rect x="271.124" y="344.766" fill="none" stroke="#FFFFFF" stroke-miterlimit="10" width="7.014" height="7.015"/>
<rect x="348.275" y="344.766" fill="none" stroke="#FFFFFF" stroke-miterlimit="10" width="7.014" height="7.015"/>
<rect x="330.741" y="348.273" fill="none" stroke="#FFFFFF" stroke-miterlimit="10" width="5.26" height="5.261"/>
<rect x="330.741" y="357.041" fill="none" stroke="#FFDA68" stroke-miterlimit="10" width="5.26" height="5.26"/>
<rect x="321.973" y="348.273" fill="none" stroke="#FFFFFF" stroke-miterlimit="10" width="5.262" height="5.261"/>
<rect x="321.973" y="357.041" fill="none" stroke="#FFFFFF" stroke-miterlimit="10" width="5.262" height="5.26"/>
<rect x="297.426" y="348.273" fill="none" stroke="#FFFFFF" stroke-miterlimit="10" width="21.041" height="5.261"/>
<rect x="297.426" y="357.041" fill="none" stroke="#FFFFFF" stroke-miterlimit="10" width="21.041" height="5.26"/>
<rect x="257.095" y="344.766" fill="none" stroke="#FFFFFF" stroke-miterlimit="10" width="7.015" height="7.015"/>
<rect x="243.068" y="344.766" fill="none" stroke="#FFDA68" stroke-miterlimit="10" width="7.014" height="7.015"/>
<rect x="229.041" y="344.766" fill="none" stroke="#FFFFFF" stroke-miterlimit="10" width="7.014" height="7.015"/>
<line fill="none" stroke="#FFFFFF" stroke-width="2" stroke-miterlimit="10" x1="59.617" y1="99.669" x2="112.221" y2="99.669"/>
<line fill="none" stroke="#FFFFFF" stroke-width="2" stroke-miterlimit="10" x1="42.96" y1="99.669" x2="54.357" y2="99.669"/>
<line fill="none" stroke="#FFFFFF" stroke-width="2" stroke-miterlimit="10" x1="133.262" y1="71.614" x2="179.729" y2="71.614"/>
<line fill="none" stroke="#FFFFFF" stroke-width="2" stroke-miterlimit="10" x1="123.618" y1="71.614" x2="128.002" y2="71.614"/>
<line fill="none" stroke="#FFFFFF" stroke-width="2" stroke-miterlimit="10" x1="406.8" y1="89.148" x2="460.279" y2="89.148"/>
<line fill="none" stroke="#FFFFFF" stroke-width="2" stroke-miterlimit="10" x1="465.541" y1="89.148" x2="476.062" y2="89.148"/>
<line fill="none" stroke="#FFDA68" stroke-width="2" stroke-miterlimit="10" x1="481.834" y1="147.889" x2="529.177" y2="147.889"/>
<line fill="none" stroke="#FFDA68" stroke-width="2" stroke-miterlimit="10" x1="534.438" y1="147.889" x2="548.465" y2="147.889"/>
<line fill="none" stroke="#FFFFFF" stroke-width="2" stroke-miterlimit="10" x1="529.177" y1="206.629" x2="580.903" y2="206.629"/>
<line fill="none" stroke="#FFFFFF" stroke-width="2" stroke-miterlimit="10" x1="504.629" y1="229.424" x2="540.574" y2="229.424"/>
<line fill="none" stroke="#FFFFFF" stroke-width="2" stroke-miterlimit="10" x1="516.902" y1="239.067" x2="531.807" y2="239.067"/>
<line fill="none" stroke="#FFFFFF" stroke-width="2" stroke-miterlimit="10" x1="586.164" y1="206.629" x2="595.808" y2="206.629"/>
<line fill="none" stroke="#FFFFFF" stroke-width="2" stroke-miterlimit="10" x1="499.368" y1="310.959" x2="524.793" y2="310.959"/>
<line fill="none" stroke="#FFFFFF" stroke-width="2" stroke-miterlimit="10" x1="530.054" y1="310.959" x2="570.383" y2="310.959"/>
<line fill="none" stroke="#FFDA68" stroke-width="2" stroke-miterlimit="10" x1="540.574" y1="258.355" x2="609.835" y2="258.355"/>
<g>
	<defs>
		<rect id="SVGID_3_" width="630" height="401"/>
	</defs>
	<clipPath id="SVGID_4_">
		<use xlink:href="#SVGID_3_"  overflow="visible"/>
	</clipPath>
	
		<line clip-path="url(#SVGID_4_)" fill="none" stroke="#FFDA68" stroke-width="2" stroke-miterlimit="10" x1="615.096" y1="258.355" x2="630" y2="258.355"/>
</g>
<line fill="none" stroke="#FFDA68" stroke-width="2" stroke-miterlimit="10" x1="481.834" y1="154.902" x2="498.491" y2="154.902"/>
<line fill="none" stroke="#FFDA68" stroke-width="2" stroke-miterlimit="10" x1="25.425" y1="163.67" x2="64.001" y2="163.67"/>
<line fill="none" stroke="#FFDA68" stroke-width="2" stroke-miterlimit="10" x1="67.508" y1="163.67" x2="78.029" y2="163.67"/>
<line fill="none" stroke="#FFFFFF" stroke-width="2" stroke-miterlimit="10" x1="64.878" y1="225.917" x2="70.138" y2="225.917"/>
<line fill="none" stroke="#FFFFFF" stroke-width="2" stroke-miterlimit="10" x1="76.275" y1="225.917" x2="97.316" y2="225.917"/>
<g>
	<defs>
		<rect id="SVGID_5_" width="630" height="401"/>
	</defs>
	<clipPath id="SVGID_6_">
		<use xlink:href="#SVGID_5_"  overflow="visible"/>
	</clipPath>
	
		<line clip-path="url(#SVGID_6_)" fill="none" stroke="#FFDA68" stroke-width="2" stroke-miterlimit="10" x1="0" y1="286.411" x2="5.261" y2="286.411"/>
</g>
<line fill="none" stroke="#FFDA68" stroke-width="2" stroke-miterlimit="10" x1="11.397" y1="286.411" x2="64.877" y2="286.411"/>
<line fill="none" stroke="#FFFFFF" stroke-width="2" stroke-miterlimit="10" x1="61.371" y1="324.987" x2="88.549" y2="324.987"/>
<line fill="none" stroke="#FFFFFF" stroke-width="2" stroke-miterlimit="10" x1="48.22" y1="324.987" x2="56.111" y2="324.987"/>
<line fill="none" stroke="#FFDA68" stroke-width="2" stroke-miterlimit="10" x1="39.452" y1="174.19" x2="49.973" y2="174.19"/>
<line fill="none" stroke="#FFFFFF" stroke-width="2" stroke-miterlimit="10" x1="327.604" y1="11.397" x2="327.604" y2="20.165"/>
<line fill="none" stroke="#FFFFFF" stroke-width="2" stroke-miterlimit="10" x1="327.604" y1="25.425" x2="327.604" y2="34.192"/>
<line fill="none" stroke="#FFFFFF" stroke-width="2" stroke-miterlimit="10" x1="339.001" y1="22.795" x2="330.233" y2="22.795"/>
<line fill="none" stroke="#FFFFFF" stroke-width="2" stroke-miterlimit="10" x1="324.974" y1="22.795" x2="316.206" y2="22.795"/>
<g>
	<defs>
		<rect id="SVGID_7_" width="630" height="401"/>
	</defs>
	<clipPath id="SVGID_8_">
		<use xlink:href="#SVGID_7_"  overflow="visible"/>
	</clipPath>
	
		<line clip-path="url(#SVGID_8_)" fill="none" stroke="#FFFFFF" stroke-width="2" stroke-miterlimit="10" x1="258.343" y1="0" x2="258.343" y2="4.384"/>
</g>
<line fill="none" stroke="#FFFFFF" stroke-width="2" stroke-miterlimit="10" x1="258.343" y1="7.891" x2="258.343" y2="12.274"/>
<line fill="none" stroke="#FFFFFF" stroke-width="2" stroke-miterlimit="10" x1="264.479" y1="6.137" x2="260.095" y2="6.137"/>
<line fill="none" stroke="#FFFFFF" stroke-width="2" stroke-miterlimit="10" x1="256.589" y1="6.137" x2="252.205" y2="6.137"/>
<line fill="none" stroke="#FFFFFF" stroke-width="2" stroke-miterlimit="10" x1="249.575" y1="44.713" x2="249.575" y2="47.343"/>
<line fill="none" stroke="#FFFFFF" stroke-width="2" stroke-miterlimit="10" x1="249.575" y1="49.097" x2="249.575" y2="51.727"/>
<line fill="none" stroke="#FFFFFF" stroke-width="2" stroke-miterlimit="10" x1="253.082" y1="48.22" x2="250.452" y2="48.22"/>
<line fill="none" stroke="#FFFFFF" stroke-width="2" stroke-miterlimit="10" x1="248.698" y1="48.22" x2="246.068" y2="48.22"/>
<line fill="none" stroke="#FFDA68" stroke-width="2" stroke-miterlimit="10" x1="366.398" y1="35.727" x2="366.398" y2="45.371"/>
<line fill="none" stroke="#FFDA68" stroke-width="2" stroke-miterlimit="10" x1="371.221" y1="40.549" x2="361.576" y2="40.549"/>
<line fill="none" stroke="#FB667F" stroke-width="2" stroke-miterlimit="10" x1="216.868" y1="52.873" x2="212.676" y2="57.063"/>
<line fill="none" stroke="#FB667F" stroke-width="2" stroke-miterlimit="10" x1="209.323" y1="60.417" x2="205.131" y2="64.608"/>
<line fill="none" stroke="#FB667F" stroke-width="2" stroke-miterlimit="10" x1="216.868" y1="64.609" x2="212.676" y2="60.418"/>
<line fill="none" stroke="#FB667F" stroke-width="2" stroke-miterlimit="10" x1="209.323" y1="57.064" x2="205.131" y2="52.873"/>
<polygon fill="none" stroke="#FFFFFF" stroke-width="2" stroke-miterlimit="10" points="271.241,53.52 266.954,61.411 
	275.528,61.411 "/>
<g>
	<defs>
		<rect id="SVGID_9_" width="630" height="401"/>
	</defs>
	<clipPath id="SVGID_10_">
		<use xlink:href="#SVGID_9_"  overflow="visible"/>
	</clipPath>
	
		<circle clip-path="url(#SVGID_10_)" fill="none" stroke="#FFFFFF" stroke-width="2" stroke-miterlimit="10" cx="396.25" cy="69.375" r="1.65"/>
	
		<circle clip-path="url(#SVGID_10_)" fill="none" stroke="#FFFFFF" stroke-width="2" stroke-miterlimit="10" cx="347.153" cy="58.854" r="1.315"/>
</g>
</svg>
