<?xml version="1.0" encoding="utf-8"?>
<!-- Generator: Adobe Illustrator 16.0.0, SVG Export Plug-In . SVG Version: 6.00 Build 0)  -->
<!DOCTYPE svg PUBLIC "-//W3C//DTD SVG 1.1//EN" "http://www.w3.org/Graphics/SVG/1.1/DTD/svg11.dtd">
<svg version="1.1" id="Layer_1" xmlns="http://www.w3.org/2000/svg" xmlns:xlink="http://www.w3.org/1999/xlink" x="0px" y="0px"
viewBox="0 0 630 303.071" enable-background="new 0 0 630 303.071" xml:space="preserve">
<g>
	<defs>
		<rect id="SVGID_1_" width="630" height="303.071"/>
	</defs>
	<clipPath id="SVGID_2_">
		<use xlink:href="#SVGID_1_"  overflow="visible"/>
	</clipPath>
	<polygon clip-path="url(#SVGID_2_)" fill="#1E222F" points="106.605,230.235 263.085,174.935 473.233,208.232 473.233,246.157 
		318.08,302.042 106.605,268.16 	"/>
	<g clip-path="url(#SVGID_2_)">
		<defs>
			<rect id="SVGID_3_" width="630" height="303.071"/>
		</defs>
		<clipPath id="SVGID_4_">
			<use xlink:href="#SVGID_3_"  overflow="visible"/>
		</clipPath>
		<polygon clip-path="url(#SVGID_4_)" fill="none" stroke="#FFFFFF" stroke-width="2" stroke-miterlimit="10" points="
			106.605,230.235 263.085,174.935 473.233,208.232 473.233,246.157 318.08,302.042 106.605,268.16 		"/>
		<polygon clip-path="url(#SVGID_4_)" fill="none" stroke="#FFFFFF" stroke-width="2" stroke-miterlimit="10" points="
			106.605,230.9 318.08,264.783 473.233,208.897 473.233,246.157 318.08,302.042 106.605,268.16 		"/>
	</g>
	
		<line clip-path="url(#SVGID_2_)" fill="none" stroke="#FFFFFF" stroke-width="2" stroke-linecap="round" stroke-linejoin="round" stroke-miterlimit="10" x1="432.156" y1="232.573" x2="469.566" y2="219.096"/>
	
		<line clip-path="url(#SVGID_2_)" fill="none" stroke="#FFFFFF" stroke-width="2" stroke-linecap="round" stroke-linejoin="round" stroke-miterlimit="10" x1="432.156" y1="239.226" x2="469.566" y2="225.751"/>
	
		<line clip-path="url(#SVGID_2_)" fill="none" stroke="#FFFFFF" stroke-width="2" stroke-linecap="round" stroke-linejoin="round" stroke-miterlimit="10" x1="432.156" y1="245.879" x2="469.566" y2="232.405"/>
	
		<line clip-path="url(#SVGID_2_)" fill="none" stroke="#FFFFFF" stroke-width="2" stroke-linecap="round" stroke-linejoin="round" stroke-miterlimit="10" x1="432.156" y1="252.534" x2="469.566" y2="239.057"/>
	<g clip-path="url(#SVGID_2_)">
		<defs>
			<rect id="SVGID_5_" width="630" height="303.071"/>
		</defs>
		<clipPath id="SVGID_6_">
			<use xlink:href="#SVGID_5_"  overflow="visible"/>
		</clipPath>
		
			<line clip-path="url(#SVGID_6_)" fill="none" stroke="#FFFFFF" stroke-width="2" stroke-miterlimit="10" x1="318.08" y1="264.783" x2="318.08" y2="302.042"/>
	</g>
	
		<polygon clip-path="url(#SVGID_2_)" fill="none" stroke="#FFDA68" stroke-width="2" stroke-linecap="round" stroke-linejoin="round" stroke-miterlimit="10" points="
		276.669,266.993 308.368,272.071 308.368,292.136 276.669,287.056 	"/>
	
		<polygon clip-path="url(#SVGID_2_)" fill="none" stroke="#FFDA68" stroke-width="2" stroke-linecap="round" stroke-linejoin="round" stroke-miterlimit="10" points="
		199.892,254.181 199.892,274.772 115.386,261.232 115.386,240.641 	"/>
	
		<line clip-path="url(#SVGID_2_)" fill="none" stroke="#FFFFFF" stroke-width="2" stroke-miterlimit="10" x1="240.97" y1="263.781" x2="253.164" y2="265.735"/>
	
		<line clip-path="url(#SVGID_2_)" fill="none" stroke="#FFDA68" stroke-width="2" stroke-miterlimit="10" x1="258.246" y1="266.548" x2="270.5" y2="268.512"/>
	
		<line clip-path="url(#SVGID_2_)" fill="none" stroke="#FFFFFF" stroke-width="2" stroke-miterlimit="10" x1="223.694" y1="261.013" x2="235.889" y2="262.966"/>
	
		<line clip-path="url(#SVGID_2_)" fill="none" stroke="#FF687D" stroke-width="2" stroke-miterlimit="10" x1="206.419" y1="258.245" x2="218.614" y2="260.199"/>
	
		<line clip-path="url(#SVGID_2_)" fill="none" stroke="#FF687D" stroke-width="2" stroke-miterlimit="10" x1="240.97" y1="279.457" x2="253.164" y2="281.411"/>
	
		<line clip-path="url(#SVGID_2_)" fill="none" stroke="#FFFFFF" stroke-width="2" stroke-miterlimit="10" x1="258.246" y1="282.224" x2="270.5" y2="284.188"/>
	
		<line clip-path="url(#SVGID_2_)" fill="none" stroke="#FFDA68" stroke-width="2" stroke-miterlimit="10" x1="223.694" y1="276.689" x2="235.889" y2="278.642"/>
	
		<line clip-path="url(#SVGID_2_)" fill="none" stroke="#FFDA68" stroke-width="2" stroke-miterlimit="10" x1="206.419" y1="273.92" x2="218.614" y2="275.875"/>
	<g clip-path="url(#SVGID_2_)">
		<defs>
			<rect id="SVGID_7_" width="630" height="303.071"/>
		</defs>
		<clipPath id="SVGID_8_">
			<use xlink:href="#SVGID_7_"  overflow="visible"/>
		</clipPath>
		<path clip-path="url(#SVGID_8_)" fill="#745984" d="M292.088,279.815c0,2.424,0.928,4.334,2.073,4.265
			c1.145-0.068,2.073-2.089,2.073-4.514c0-2.424-0.928-4.333-2.073-4.265C293.017,275.371,292.088,277.391,292.088,279.815"/>
		<path clip-path="url(#SVGID_8_)" fill="#745984" d="M298.777,280.833c0,2.424,0.928,4.333,2.073,4.265
			c1.145-0.069,2.073-2.09,2.073-4.514s-0.928-4.334-2.073-4.265C299.705,276.387,298.777,278.408,298.777,280.833"/>
		<path clip-path="url(#SVGID_8_)" fill="#FF687D" d="M172.773,261.607c0,2.132,0.794,3.813,1.773,3.755
			c0.979-0.06,1.773-1.835,1.773-3.968c0-2.132-0.794-3.813-1.773-3.754C173.567,257.699,172.773,259.475,172.773,261.607"/>
		<path clip-path="url(#SVGID_8_)" fill="#FFDA68" d="M167.966,260.764c0,2.132,0.794,3.813,1.773,3.754s1.773-1.834,1.773-3.967
			c0-2.132-0.794-3.813-1.773-3.754C168.76,256.856,167.966,258.632,167.966,260.764"/>
		<path clip-path="url(#SVGID_8_)" fill="#FFDA68" d="M163.158,259.834c0,2.132,0.794,3.813,1.773,3.754s1.773-1.835,1.773-3.967
			c0-2.133-0.794-3.813-1.773-3.755S163.158,257.702,163.158,259.834"/>
		
			<line clip-path="url(#SVGID_8_)" fill="none" stroke="#FF687D" stroke-width="2" stroke-miterlimit="10" x1="155.884" y1="258.339" x2="145.18" y2="256.656"/>
		
			<line clip-path="url(#SVGID_8_)" fill="none" stroke="#FFDA68" stroke-width="2" stroke-miterlimit="10" x1="140.638" y1="256.038" x2="129.934" y2="254.353"/>
		<path clip-path="url(#SVGID_8_)" fill="#FFDA68" d="M120.004,252.358c0,3.554,1.422,6.349,3.177,6.243
			c1.755-0.104,3.177-3.071,3.177-6.625c0-3.555-1.422-6.35-3.177-6.244C121.426,245.836,120.004,248.803,120.004,252.358"/>
		<g opacity="0.15" clip-path="url(#SVGID_8_)">
			<g>
				<defs>
					<rect id="SVGID_9_" x="136.399" y="179.522" width="307.33" height="73.88"/>
				</defs>
				<clipPath id="SVGID_10_">
					<use xlink:href="#SVGID_9_"  overflow="visible"/>
				</clipPath>
				<polygon clip-path="url(#SVGID_10_)" fill="#FFFFFF" points="136.399,224.292 318.078,253.402 443.729,208.148 263.084,179.521 
									"/>
			</g>
		</g>
		<polygon clip-path="url(#SVGID_8_)" fill="#1E222F" points="106.605,172.866 263.085,117.564 473.233,150.863 473.233,188.788 
			318.08,244.673 106.605,210.791 		"/>
		<polygon clip-path="url(#SVGID_8_)" fill="none" stroke="#FFFFFF" stroke-width="2" stroke-miterlimit="10" points="
			106.605,172.866 263.085,117.564 473.233,150.863 473.233,188.788 318.08,244.673 106.605,210.791 		"/>
		<polygon clip-path="url(#SVGID_8_)" fill="none" stroke="#FFFFFF" stroke-width="2" stroke-miterlimit="10" points="
			106.605,173.531 318.08,207.414 473.233,151.528 473.233,188.788 318.08,244.673 106.605,210.791 		"/>
		
			<line clip-path="url(#SVGID_8_)" fill="none" stroke="#FFFFFF" stroke-width="2" stroke-linecap="round" stroke-linejoin="round" stroke-miterlimit="10" x1="432.156" y1="175.204" x2="469.566" y2="161.727"/>
		
			<line clip-path="url(#SVGID_8_)" fill="none" stroke="#FFFFFF" stroke-width="2" stroke-linecap="round" stroke-linejoin="round" stroke-miterlimit="10" x1="432.156" y1="181.857" x2="469.566" y2="168.38"/>
		
			<line clip-path="url(#SVGID_8_)" fill="none" stroke="#FFFFFF" stroke-width="2" stroke-linecap="round" stroke-linejoin="round" stroke-miterlimit="10" x1="432.156" y1="188.51" x2="469.566" y2="175.035"/>
		
			<line clip-path="url(#SVGID_8_)" fill="none" stroke="#FFFFFF" stroke-width="2" stroke-linecap="round" stroke-linejoin="round" stroke-miterlimit="10" x1="432.156" y1="195.164" x2="469.566" y2="181.689"/>
		
			<line clip-path="url(#SVGID_8_)" fill="none" stroke="#FFFFFF" stroke-width="2" stroke-miterlimit="10" x1="318.08" y1="207.414" x2="318.08" y2="244.673"/>
		
			<polygon clip-path="url(#SVGID_8_)" fill="none" stroke="#FFDA68" stroke-width="2" stroke-linecap="round" stroke-linejoin="round" stroke-miterlimit="10" points="
			276.669,209.624 308.368,214.702 308.368,234.767 276.669,229.687 		"/>
		
			<polygon clip-path="url(#SVGID_8_)" fill="none" stroke="#FFDA68" stroke-width="2" stroke-linecap="round" stroke-linejoin="round" stroke-miterlimit="10" points="
			199.892,196.811 199.892,217.403 115.386,203.863 115.386,183.272 		"/>
		
			<line clip-path="url(#SVGID_8_)" fill="none" stroke="#FFFFFF" stroke-width="2" stroke-miterlimit="10" x1="240.97" y1="206.412" x2="253.164" y2="208.366"/>
		
			<line clip-path="url(#SVGID_8_)" fill="none" stroke="#FFDA68" stroke-width="2" stroke-miterlimit="10" x1="258.246" y1="209.179" x2="270.5" y2="211.143"/>
		
			<line clip-path="url(#SVGID_8_)" fill="none" stroke="#FFFFFF" stroke-width="2" stroke-miterlimit="10" x1="223.694" y1="203.644" x2="235.889" y2="205.597"/>
		
			<line clip-path="url(#SVGID_8_)" fill="none" stroke="#FF687D" stroke-width="2" stroke-miterlimit="10" x1="206.419" y1="200.875" x2="218.614" y2="202.83"/>
		
			<line clip-path="url(#SVGID_8_)" fill="none" stroke="#FF687D" stroke-width="2" stroke-miterlimit="10" x1="240.97" y1="222.087" x2="253.164" y2="224.042"/>
		
			<line clip-path="url(#SVGID_8_)" fill="none" stroke="#FFFFFF" stroke-width="2" stroke-miterlimit="10" x1="258.246" y1="224.855" x2="270.5" y2="226.819"/>
		
			<line clip-path="url(#SVGID_8_)" fill="none" stroke="#FFDA68" stroke-width="2" stroke-miterlimit="10" x1="223.694" y1="219.319" x2="235.889" y2="221.273"/>
		
			<line clip-path="url(#SVGID_8_)" fill="none" stroke="#FFDA68" stroke-width="2" stroke-miterlimit="10" x1="206.419" y1="216.551" x2="218.614" y2="218.505"/>
		<path clip-path="url(#SVGID_8_)" fill="#745984" d="M292.088,222.446c0,2.424,0.928,4.334,2.073,4.265
			c1.145-0.068,2.073-2.089,2.073-4.514c0-2.424-0.928-4.333-2.073-4.265C293.017,218.001,292.088,220.022,292.088,222.446"/>
		<path clip-path="url(#SVGID_8_)" fill="#745984" d="M298.777,223.462c0,2.425,0.928,4.334,2.073,4.266
			c1.145-0.069,2.073-2.09,2.073-4.514c0-2.425-0.928-4.334-2.073-4.265C299.705,219.018,298.777,221.039,298.777,223.462"/>
		<path clip-path="url(#SVGID_8_)" fill="#FF687D" d="M172.773,204.238c0,2.132,0.794,3.813,1.773,3.754s1.773-1.835,1.773-3.967
			s-0.794-3.813-1.773-3.755C173.567,200.33,172.773,202.105,172.773,204.238"/>
		<path clip-path="url(#SVGID_8_)" fill="#FFDA68" d="M167.966,203.395c0,2.132,0.794,3.813,1.773,3.754s1.773-1.835,1.773-3.967
			c0-2.133-0.794-3.813-1.773-3.755C168.76,199.487,167.966,201.262,167.966,203.395"/>
		<path clip-path="url(#SVGID_8_)" fill="#FFDA68" d="M163.158,202.465c0,2.132,0.794,3.813,1.773,3.754s1.773-1.835,1.773-3.967
			c0-2.133-0.794-3.813-1.773-3.755S163.158,200.333,163.158,202.465"/>
		
			<line clip-path="url(#SVGID_8_)" fill="none" stroke="#FF687D" stroke-width="2" stroke-miterlimit="10" x1="155.884" y1="200.97" x2="145.18" y2="199.287"/>
		
			<line clip-path="url(#SVGID_8_)" fill="none" stroke="#FFDA68" stroke-width="2" stroke-miterlimit="10" x1="140.638" y1="198.668" x2="129.934" y2="196.984"/>
		<path clip-path="url(#SVGID_8_)" fill="#FFDA68" d="M120.004,194.988c0,3.554,1.422,6.35,3.177,6.244
			c1.755-0.105,3.177-3.071,3.177-6.625c0-3.555-1.422-6.35-3.177-6.244C121.426,188.467,120.004,191.434,120.004,194.988"/>
		<g opacity="0.15" clip-path="url(#SVGID_8_)">
			<g>
				<defs>
					<rect id="SVGID_11_" x="136.399" y="122.153" width="307.33" height="73.88"/>
				</defs>
				<clipPath id="SVGID_12_">
					<use xlink:href="#SVGID_11_"  overflow="visible"/>
				</clipPath>
				<polygon clip-path="url(#SVGID_12_)" fill="#FFFFFF" points="136.399,166.922 318.078,196.032 443.729,150.779 263.084,122.152 
									"/>
			</g>
		</g>
		<polygon clip-path="url(#SVGID_8_)" fill="#1E222F" points="105.193,115.967 261.674,60.667 471.821,93.964 471.821,131.889 
			316.668,187.775 105.193,153.892 		"/>
		<polygon clip-path="url(#SVGID_8_)" fill="none" stroke="#FFFFFF" stroke-width="2" stroke-miterlimit="10" points="
			105.193,115.967 261.674,60.667 471.821,93.964 471.821,131.889 316.668,187.775 105.193,153.892 		"/>
		<polygon clip-path="url(#SVGID_8_)" fill="none" stroke="#FFFFFF" stroke-width="2" stroke-miterlimit="10" points="
			105.193,116.632 316.668,150.515 471.821,94.629 471.821,131.889 316.668,187.775 105.193,153.892 		"/>
		
			<line clip-path="url(#SVGID_8_)" fill="none" stroke="#FFFFFF" stroke-width="2" stroke-linecap="round" stroke-linejoin="round" stroke-miterlimit="10" x1="430.744" y1="118.305" x2="468.155" y2="104.829"/>
		
			<line clip-path="url(#SVGID_8_)" fill="none" stroke="#FFFFFF" stroke-width="2" stroke-linecap="round" stroke-linejoin="round" stroke-miterlimit="10" x1="430.744" y1="124.958" x2="468.155" y2="111.482"/>
		
			<line clip-path="url(#SVGID_8_)" fill="none" stroke="#FFFFFF" stroke-width="2" stroke-linecap="round" stroke-linejoin="round" stroke-miterlimit="10" x1="430.744" y1="131.612" x2="468.155" y2="118.136"/>
		
			<line clip-path="url(#SVGID_8_)" fill="none" stroke="#FFFFFF" stroke-width="2" stroke-linecap="round" stroke-linejoin="round" stroke-miterlimit="10" x1="430.744" y1="138.265" x2="468.155" y2="124.79"/>
		
			<line clip-path="url(#SVGID_8_)" fill="none" stroke="#FFFFFF" stroke-width="2" stroke-miterlimit="10" x1="316.668" y1="150.515" x2="316.668" y2="187.775"/>
		
			<polygon clip-path="url(#SVGID_8_)" fill="none" stroke="#FFDA68" stroke-width="2" stroke-linecap="round" stroke-linejoin="round" stroke-miterlimit="10" points="
			275.257,152.724 306.956,157.803 306.956,177.869 275.257,172.789 		"/>
		
			<polygon clip-path="url(#SVGID_8_)" fill="none" stroke="#FFDA68" stroke-width="2" stroke-linecap="round" stroke-linejoin="round" stroke-miterlimit="10" points="
			198.48,139.913 198.48,160.504 113.973,146.964 113.973,126.374 		"/>
		
			<line clip-path="url(#SVGID_8_)" fill="none" stroke="#FFFFFF" stroke-width="2" stroke-miterlimit="10" x1="239.558" y1="149.513" x2="251.753" y2="151.467"/>
		
			<line clip-path="url(#SVGID_8_)" fill="none" stroke="#FFDA68" stroke-width="2" stroke-miterlimit="10" x1="256.834" y1="152.281" x2="269.087" y2="154.245"/>
		
			<line clip-path="url(#SVGID_8_)" fill="none" stroke="#FFFFFF" stroke-width="2" stroke-miterlimit="10" x1="222.283" y1="146.745" x2="234.478" y2="148.699"/>
		
			<line clip-path="url(#SVGID_8_)" fill="none" stroke="#FF687D" stroke-width="2" stroke-miterlimit="10" x1="205.007" y1="143.977" x2="217.202" y2="145.931"/>
		
			<line clip-path="url(#SVGID_8_)" fill="none" stroke="#FF687D" stroke-width="2" stroke-miterlimit="10" x1="239.558" y1="165.189" x2="251.753" y2="167.142"/>
		
			<line clip-path="url(#SVGID_8_)" fill="none" stroke="#FFFFFF" stroke-width="2" stroke-miterlimit="10" x1="256.834" y1="167.957" x2="269.087" y2="169.919"/>
		
			<line clip-path="url(#SVGID_8_)" fill="none" stroke="#FFDA68" stroke-width="2" stroke-miterlimit="10" x1="222.283" y1="162.42" x2="234.478" y2="164.375"/>
		
			<line clip-path="url(#SVGID_8_)" fill="none" stroke="#FFDA68" stroke-width="2" stroke-miterlimit="10" x1="205.007" y1="159.653" x2="217.202" y2="161.607"/>
		<path clip-path="url(#SVGID_8_)" fill="#745984" d="M290.677,165.547c0,2.424,0.928,4.333,2.073,4.265
			c1.145-0.068,2.073-2.09,2.073-4.514s-0.928-4.333-2.073-4.265C291.605,161.102,290.677,163.124,290.677,165.547"/>
		<path clip-path="url(#SVGID_8_)" fill="#745984" d="M297.365,166.564c0,2.424,0.928,4.334,2.073,4.265
			c1.145-0.068,2.073-2.089,2.073-4.514c0-2.424-0.928-4.333-2.073-4.266C298.293,162.12,297.365,164.14,297.365,166.564"/>
		<path clip-path="url(#SVGID_8_)" fill="#FF687D" d="M171.362,147.339c0,2.132,0.793,3.813,1.773,3.754
			c0.979-0.059,1.773-1.835,1.773-3.967c0-2.133-0.794-3.813-1.773-3.755C172.155,143.43,171.362,145.206,171.362,147.339"/>
		<path clip-path="url(#SVGID_8_)" fill="#FFDA68" d="M166.554,146.497c0,2.132,0.794,3.813,1.773,3.754s1.773-1.835,1.773-3.967
			c0-2.133-0.794-3.813-1.773-3.755C167.348,142.587,166.554,144.363,166.554,146.497"/>
		<path clip-path="url(#SVGID_8_)" fill="#FFDA68" d="M161.747,145.566c0,2.133,0.794,3.813,1.773,3.755
			c0.979-0.059,1.773-1.835,1.773-3.967c0-2.133-0.794-3.813-1.773-3.755C162.541,141.658,161.747,143.434,161.747,145.566"/>
		
			<line clip-path="url(#SVGID_8_)" fill="none" stroke="#FF687D" stroke-width="2" stroke-miterlimit="10" x1="154.472" y1="144.072" x2="143.769" y2="142.388"/>
		
			<line clip-path="url(#SVGID_8_)" fill="none" stroke="#FFDA68" stroke-width="2" stroke-miterlimit="10" x1="139.226" y1="141.77" x2="128.522" y2="140.086"/>
		<path clip-path="url(#SVGID_8_)" fill="#FFDA68" d="M118.592,138.089c0,3.554,1.422,6.35,3.177,6.244
			c1.755-0.105,3.177-3.071,3.177-6.625c0-3.554-1.422-6.349-3.177-6.244C120.014,131.569,118.592,134.535,118.592,138.089"/>
		<g opacity="0.15" clip-path="url(#SVGID_8_)">
			<g>
				<defs>
					<rect id="SVGID_13_" x="136.399" y="64.784" width="307.33" height="73.88"/>
				</defs>
				<clipPath id="SVGID_14_">
					<use xlink:href="#SVGID_13_"  overflow="visible"/>
				</clipPath>
				<polygon clip-path="url(#SVGID_14_)" fill="#FFFFFF" points="136.399,109.553 318.078,138.663 443.729,93.41 263.084,64.783 
									"/>
			</g>
		</g>
		
			<line clip-path="url(#SVGID_8_)" fill="none" stroke="#FFFFFF" stroke-width="2" stroke-miterlimit="10" x1="49.617" y1="21.521" x2="102.221" y2="21.521"/>
		
			<line clip-path="url(#SVGID_8_)" fill="none" stroke="#FFFFFF" stroke-width="2" stroke-miterlimit="10" x1="32.959" y1="21.521" x2="44.356" y2="21.521"/>
		
			<line clip-path="url(#SVGID_8_)" fill="none" stroke="#FFFFFF" stroke-width="2" stroke-miterlimit="10" x1="426.8" y1="1" x2="480.279" y2="1"/>
		
			<line clip-path="url(#SVGID_8_)" fill="none" stroke="#FFFFFF" stroke-width="2" stroke-miterlimit="10" x1="485.54" y1="1" x2="496.061" y2="1"/>
		
			<line clip-path="url(#SVGID_8_)" fill="none" stroke="#FFDA68" stroke-width="2" stroke-miterlimit="10" x1="491.834" y1="69.74" x2="539.177" y2="69.74"/>
		
			<line clip-path="url(#SVGID_8_)" fill="none" stroke="#FFDA68" stroke-width="2" stroke-miterlimit="10" x1="544.438" y1="69.74" x2="558.465" y2="69.74"/>
		
			<line clip-path="url(#SVGID_8_)" fill="none" stroke="#FFFFFF" stroke-width="2" stroke-miterlimit="10" x1="539.177" y1="128.481" x2="590.904" y2="128.481"/>
		
			<line clip-path="url(#SVGID_8_)" fill="none" stroke="#FFFFFF" stroke-width="2" stroke-miterlimit="10" x1="514.629" y1="151.276" x2="550.574" y2="151.276"/>
		
			<line clip-path="url(#SVGID_8_)" fill="none" stroke="#FFFFFF" stroke-width="2" stroke-miterlimit="10" x1="526.902" y1="160.919" x2="541.807" y2="160.919"/>
		
			<line clip-path="url(#SVGID_8_)" fill="none" stroke="#FFFFFF" stroke-width="2" stroke-miterlimit="10" x1="596.164" y1="128.481" x2="605.809" y2="128.481"/>
		
			<line clip-path="url(#SVGID_8_)" fill="none" stroke="#FFFFFF" stroke-width="2" stroke-miterlimit="10" x1="509.368" y1="232.811" x2="534.793" y2="232.811"/>
		
			<line clip-path="url(#SVGID_8_)" fill="none" stroke="#FFFFFF" stroke-width="2" stroke-miterlimit="10" x1="540.054" y1="232.811" x2="580.383" y2="232.811"/>
		
			<line clip-path="url(#SVGID_8_)" fill="none" stroke="#FFDA68" stroke-width="2" stroke-miterlimit="10" x1="540.574" y1="180.208" x2="609.835" y2="180.208"/>
		
			<line clip-path="url(#SVGID_8_)" fill="none" stroke="#FFDA68" stroke-width="2" stroke-miterlimit="10" x1="615.096" y1="180.208" x2="630" y2="180.208"/>
		
			<line clip-path="url(#SVGID_8_)" fill="none" stroke="#FFDA68" stroke-width="2" stroke-miterlimit="10" x1="491.834" y1="76.754" x2="508.491" y2="76.754"/>
		
			<line clip-path="url(#SVGID_8_)" fill="none" stroke="#FFDA68" stroke-width="2" stroke-miterlimit="10" x1="15.425" y1="85.521" x2="54.001" y2="85.521"/>
		
			<line clip-path="url(#SVGID_8_)" fill="none" stroke="#FFDA68" stroke-width="2" stroke-miterlimit="10" x1="57.508" y1="85.521" x2="68.029" y2="85.521"/>
		
			<line clip-path="url(#SVGID_8_)" fill="none" stroke="#FFFFFF" stroke-width="2" stroke-miterlimit="10" x1="54.877" y1="147.769" x2="60.137" y2="147.769"/>
		
			<line clip-path="url(#SVGID_8_)" fill="none" stroke="#FFFFFF" stroke-width="2" stroke-miterlimit="10" x1="66.275" y1="147.769" x2="87.317" y2="147.769"/>
		
			<line clip-path="url(#SVGID_8_)" fill="none" stroke="#FFDA68" stroke-width="2" stroke-miterlimit="10" x1="0" y1="208.263" x2="5.26" y2="208.263"/>
		
			<line clip-path="url(#SVGID_8_)" fill="none" stroke="#FFDA68" stroke-width="2" stroke-miterlimit="10" x1="11.397" y1="208.263" x2="64.877" y2="208.263"/>
		
			<line clip-path="url(#SVGID_8_)" fill="none" stroke="#FFFFFF" stroke-width="2" stroke-miterlimit="10" x1="51.371" y1="246.838" x2="78.55" y2="246.838"/>
		
			<line clip-path="url(#SVGID_8_)" fill="none" stroke="#FFFFFF" stroke-width="2" stroke-miterlimit="10" x1="38.22" y1="246.838" x2="46.111" y2="246.838"/>
		
			<line clip-path="url(#SVGID_8_)" fill="none" stroke="#FFDA68" stroke-width="2" stroke-miterlimit="10" x1="29.453" y1="96.042" x2="39.974" y2="96.042"/>
		<polygon clip-path="url(#SVGID_8_)" fill="#1E222F" points="473.234,36.125 473.234,36.785 318.085,92.675 106.605,58.795 
			106.605,58.125 263.094,2.825 		"/>
		<polygon clip-path="url(#SVGID_8_)" fill="none" stroke="#FFFFFF" stroke-width="2" stroke-miterlimit="10" points="
			473.234,36.125 473.234,36.785 318.085,92.675 106.605,58.795 106.605,58.125 263.094,2.825 		"/>
		<polygon clip-path="url(#SVGID_8_)" fill="#1E222F" points="473.234,36.785 473.234,74.045 318.085,129.935 106.605,96.045 
			106.605,58.795 318.085,92.675 		"/>
		<polygon clip-path="url(#SVGID_8_)" fill="none" stroke="#FFFFFF" stroke-width="2" stroke-miterlimit="10" points="
			473.234,36.785 473.234,74.045 318.085,129.935 106.605,96.045 106.605,58.795 318.085,92.675 		"/>
		<polygon clip-path="url(#SVGID_8_)" fill="none" stroke="#FFFFFF" stroke-width="2" stroke-miterlimit="10" points="
			473.234,36.785 473.234,74.045 318.085,129.935 106.605,96.045 106.605,58.795 318.085,92.675 		"/>
		
			<line clip-path="url(#SVGID_8_)" fill="none" stroke="#FFFFFF" stroke-width="2" stroke-linecap="round" stroke-linejoin="round" stroke-miterlimit="10" x1="432.161" y1="60.463" x2="469.571" y2="46.988"/>
		
			<line clip-path="url(#SVGID_8_)" fill="none" stroke="#FFFFFF" stroke-width="2" stroke-linecap="round" stroke-linejoin="round" stroke-miterlimit="10" x1="432.161" y1="67.116" x2="469.571" y2="53.641"/>
		
			<line clip-path="url(#SVGID_8_)" fill="none" stroke="#FFFFFF" stroke-width="2" stroke-linecap="round" stroke-linejoin="round" stroke-miterlimit="10" x1="432.161" y1="73.77" x2="469.571" y2="60.294"/>
		
			<line clip-path="url(#SVGID_8_)" fill="none" stroke="#FFFFFF" stroke-width="2" stroke-linecap="round" stroke-linejoin="round" stroke-miterlimit="10" x1="432.161" y1="80.423" x2="469.571" y2="66.948"/>
		
			<line clip-path="url(#SVGID_8_)" fill="none" stroke="#FFFFFF" stroke-width="2" stroke-miterlimit="10" x1="318.085" y1="92.673" x2="318.085" y2="129.933"/>
		
			<polygon clip-path="url(#SVGID_8_)" fill="none" stroke="#FFDA68" stroke-width="2" stroke-linecap="round" stroke-linejoin="round" stroke-miterlimit="10" points="
			276.674,94.882 308.373,99.961 308.373,120.026 276.674,114.947 		"/>
		
			<polygon clip-path="url(#SVGID_8_)" fill="none" stroke="#FFDA68" stroke-width="2" stroke-linecap="round" stroke-linejoin="round" stroke-miterlimit="10" points="
			199.896,82.071 199.896,102.662 115.391,89.122 115.391,68.531 		"/>
		
			<line clip-path="url(#SVGID_8_)" fill="none" stroke="#FFFFFF" stroke-width="2" stroke-miterlimit="10" x1="240.975" y1="91.671" x2="253.169" y2="93.625"/>
		
			<line clip-path="url(#SVGID_8_)" fill="none" stroke="#FFDA68" stroke-width="2" stroke-miterlimit="10" x1="258.25" y1="94.439" x2="270.504" y2="96.402"/>
		
			<line clip-path="url(#SVGID_8_)" fill="none" stroke="#FFFFFF" stroke-width="2" stroke-miterlimit="10" x1="223.699" y1="88.903" x2="235.894" y2="90.857"/>
		
			<line clip-path="url(#SVGID_8_)" fill="none" stroke="#FF687D" stroke-width="2" stroke-miterlimit="10" x1="206.424" y1="86.135" x2="218.619" y2="88.089"/>
		
			<line clip-path="url(#SVGID_8_)" fill="none" stroke="#FF687D" stroke-width="2" stroke-miterlimit="10" x1="240.975" y1="107.346" x2="253.169" y2="109.3"/>
		
			<line clip-path="url(#SVGID_8_)" fill="none" stroke="#FFFFFF" stroke-width="2" stroke-miterlimit="10" x1="258.25" y1="110.115" x2="270.504" y2="112.078"/>
		
			<line clip-path="url(#SVGID_8_)" fill="none" stroke="#FFDA68" stroke-width="2" stroke-miterlimit="10" x1="223.699" y1="104.579" x2="235.894" y2="106.533"/>
		
			<line clip-path="url(#SVGID_8_)" fill="none" stroke="#FFDA68" stroke-width="2" stroke-miterlimit="10" x1="206.424" y1="101.811" x2="218.619" y2="103.764"/>
		<path clip-path="url(#SVGID_8_)" fill="#745984" d="M292.093,107.706c0,2.424,0.928,4.333,2.073,4.265
			c1.145-0.07,2.073-2.09,2.073-4.514c0-2.424-0.928-4.334-2.073-4.265S292.093,105.281,292.093,107.706"/>
		<path clip-path="url(#SVGID_8_)" fill="#745984" d="M298.782,108.722c0,2.424,0.928,4.333,2.073,4.265
			c1.145-0.069,2.073-2.09,2.073-4.514c0-2.424-0.928-4.334-2.073-4.265S298.782,106.298,298.782,108.722"/>
		<path clip-path="url(#SVGID_8_)" fill="#FF687D" d="M172.778,89.497c0,2.132,0.794,3.813,1.773,3.754
			c0.979-0.058,1.773-1.835,1.773-3.967c0-2.132-0.794-3.813-1.773-3.754C173.572,85.588,172.778,87.365,172.778,89.497"/>
		<path clip-path="url(#SVGID_8_)" fill="#FFDA68" d="M167.971,88.654c0,2.132,0.794,3.813,1.773,3.754s1.773-1.835,1.773-3.967
			c0-2.132-0.794-3.813-1.773-3.754C168.765,84.745,167.971,86.522,167.971,88.654"/>
		<path clip-path="url(#SVGID_8_)" fill="#FFDA68" d="M163.163,87.724c0,2.132,0.794,3.813,1.773,3.754
			c0.979-0.058,1.773-1.835,1.773-3.966c0-2.133-0.794-3.814-1.773-3.755C163.957,83.816,163.163,85.592,163.163,87.724"/>
		
			<line clip-path="url(#SVGID_8_)" fill="none" stroke="#FF687D" stroke-width="2" stroke-miterlimit="10" x1="155.889" y1="86.23" x2="145.185" y2="84.546"/>
		
			<line clip-path="url(#SVGID_8_)" fill="none" stroke="#FFDA68" stroke-width="2" stroke-miterlimit="10" x1="140.643" y1="83.928" x2="129.938" y2="82.244"/>
		<path clip-path="url(#SVGID_8_)" fill="#FFDA68" d="M120.009,80.248c0,3.554,1.422,6.349,3.177,6.244
			c1.755-0.105,3.177-3.072,3.177-6.625c0-3.554-1.422-6.35-3.177-6.244C121.431,73.728,120.009,76.693,120.009,80.248"/>
		<g opacity="0.8" clip-path="url(#SVGID_8_)">
			<g>
				<defs>
					<rect id="SVGID_15_" x="214.645" y="18.435" width="74.05" height="21.729"/>
				</defs>
				<clipPath id="SVGID_16_">
					<use xlink:href="#SVGID_15_"  overflow="visible"/>
				</clipPath>
				<polygon clip-path="url(#SVGID_16_)" fill="#C86586" points="288.695,30.165 288.695,40.165 214.645,28.435 214.645,18.435 				
					"/>
			</g>
		</g>
		<g opacity="0.6" clip-path="url(#SVGID_8_)">
			<g>
				<defs>
					<rect id="SVGID_17_" x="288.695" y="12.775" width="49.2" height="27.39"/>
				</defs>
				<clipPath id="SVGID_18_">
					<use xlink:href="#SVGID_17_"  overflow="visible"/>
				</clipPath>
				<polygon clip-path="url(#SVGID_18_)" fill="#C86586" points="337.895,12.775 337.895,22.775 288.694,40.165 288.694,30.165 				
					"/>
			</g>
		</g>
		<g opacity="0.8" clip-path="url(#SVGID_8_)">
			<g>
				<defs>
					<rect id="SVGID_19_" x="313.555" y="34.105" width="80.39" height="22.74"/>
				</defs>
				<clipPath id="SVGID_20_">
					<use xlink:href="#SVGID_19_"  overflow="visible"/>
				</clipPath>
				<polygon clip-path="url(#SVGID_20_)" fill="#745883" points="393.944,46.845 393.944,56.845 313.554,44.105 313.554,34.105 				
					"/>
			</g>
		</g>
		<g opacity="0.6" clip-path="url(#SVGID_8_)">
			<g>
				<defs>
					<rect id="SVGID_21_" x="393.945" y="29.355" width="48.55" height="27.49"/>
				</defs>
				<clipPath id="SVGID_22_">
					<use xlink:href="#SVGID_21_"  overflow="visible"/>
				</clipPath>
				<polygon clip-path="url(#SVGID_22_)" fill="#745883" points="442.495,29.355 442.495,39.355 393.944,56.845 393.944,46.845 				
					"/>
			</g>
		</g>
		<g opacity="0.8" clip-path="url(#SVGID_8_)">
			<g>
				<defs>
					<rect id="SVGID_23_" x="137.595" y="45.655" width="73.8" height="21.83"/>
				</defs>
				<clipPath id="SVGID_24_">
					<use xlink:href="#SVGID_23_"  overflow="visible"/>
				</clipPath>
				<polygon clip-path="url(#SVGID_24_)" fill="#FDDA6F" points="211.395,57.485 211.395,67.485 137.595,55.655 137.595,45.655 				
					"/>
			</g>
		</g>
		<g opacity="0.6" clip-path="url(#SVGID_8_)">
			<g>
				<defs>
					<rect id="SVGID_25_" x="211.395" y="38.555" width="53.56" height="28.93"/>
				</defs>
				<clipPath id="SVGID_26_">
					<use xlink:href="#SVGID_25_"  overflow="visible"/>
				</clipPath>
				<polygon clip-path="url(#SVGID_26_)" fill="#FDDA6F" points="264.955,38.555 264.955,48.555 211.395,67.485 211.395,57.485 				
					"/>
			</g>
		</g>
		<g opacity="0.8" clip-path="url(#SVGID_8_)">
			<g>
				<defs>
					<rect id="SVGID_27_" x="236.175" y="61.455" width="81.141" height="22.99"/>
				</defs>
				<clipPath id="SVGID_28_">
					<use xlink:href="#SVGID_27_"  overflow="visible"/>
				</clipPath>
				<polygon clip-path="url(#SVGID_28_)" fill="#FB667F" points="317.314,74.445 317.314,84.445 236.174,71.455 236.174,61.455 				
					"/>
			</g>
		</g>
		<g opacity="0.6" clip-path="url(#SVGID_8_)">
			<g>
				<defs>
					<rect id="SVGID_29_" x="317.315" y="55.285" width="53.199" height="29.16"/>
				</defs>
				<clipPath id="SVGID_30_">
					<use xlink:href="#SVGID_29_"  overflow="visible"/>
				</clipPath>
				<polygon clip-path="url(#SVGID_30_)" fill="#FB667F" points="370.515,55.285 370.515,65.285 317.314,84.445 317.314,74.445 				
					"/>
			</g>
		</g>
		<polygon clip-path="url(#SVGID_8_)" fill="#FB667F" points="370.515,55.285 317.314,74.445 236.175,61.455 289.825,42.495 		"/>
		<polygon clip-path="url(#SVGID_8_)" fill="#FDDA6F" points="264.955,38.555 211.395,57.485 137.595,45.655 190.905,26.825 		"/>
		<polygon clip-path="url(#SVGID_8_)" fill="#C86586" points="337.895,12.775 288.694,30.165 214.645,18.435 263.845,1.045 		"/>
		<polygon clip-path="url(#SVGID_8_)" fill="#745883" points="442.495,29.355 393.944,46.845 313.555,34.105 362.765,16.715 		"/>
	</g>
</g>
</svg>
